{"glyphs":{"0":{"ha":919,"x_min":82,"x_max":885,"o":"m 399 -8 q 229 33 300 -8 q 120 154 158 75 q 82 343 82 233 q 116 581 82 467 q 213 786 150 696 q 366 928 276 876 q 568 981 456 981 q 738 939 668 981 q 847 819 808 897 q 885 629 885 740 q 851 391 885 506 q 753 186 817 276 q 601 44 690 96 q 399 -8 511 -8 m 407 83 q 567 132 497 83 q 685 261 638 181 q 758 438 733 342 q 783 628 783 533 q 724 822 783 754 q 560 889 665 889 q 399 840 469 889 q 281 711 329 792 q 208 535 233 631 q 183 344 183 439 q 242 151 183 218 q 407 83 301 83 z "},"1":{"ha":501,"x_min":115,"x_max":464,"o":"m 168 0 l 353 926 l 389 883 l 115 883 l 133 972 l 464 972 l 269 0 l 168 0 z "},"2":{"ha":789,"x_min":-19,"x_max":765,"o":"m -19 0 l -4 71 l 482 465 q 592 566 553 521 q 647 651 631 611 q 663 735 663 692 q 612 849 663 807 q 453 892 561 892 q 306 863 376 892 q 185 781 236 833 l 115 840 q 267 943 175 906 q 467 981 360 981 q 631 951 564 981 q 731 869 697 921 q 765 747 765 817 q 746 640 765 693 q 680 530 726 586 q 551 407 633 474 l 104 47 l 78 89 l 682 89 l 664 0 l -19 0 z "},"3":{"ha":783,"x_min":-31,"x_max":799,"o":"m 303 -8 q 103 26 192 -8 q -31 118 15 61 l 25 196 q 136 115 63 147 q 308 83 210 83 q 465 110 400 83 q 564 188 529 138 q 599 304 599 238 q 541 430 599 388 q 364 472 483 472 l 301 472 l 317 546 l 688 921 l 700 883 l 157 883 l 175 972 l 799 972 l 785 901 l 413 525 l 365 557 l 389 557 q 560 527 490 557 q 665 442 629 497 q 701 310 701 388 q 651 144 701 217 q 512 32 601 72 q 303 -8 422 -8 z "},"4":{"ha":918,"x_min":35,"x_max":894,"o":"m 35 256 l 49 328 l 685 972 l 803 972 l 169 328 l 111 344 l 894 344 l 878 256 l 35 256 m 531 0 l 582 256 l 603 344 l 649 569 l 744 569 l 631 0 l 531 0 z "},"5":{"ha":786,"x_min":-11,"x_max":801,"o":"m 322 -8 q 123 26 211 -8 q -11 118 35 61 l 46 196 q 157 115 83 147 q 329 83 231 83 q 543 144 467 83 q 619 308 619 204 q 557 438 619 390 q 349 485 494 485 l 124 485 l 271 972 l 801 972 l 783 883 l 292 883 l 358 932 l 232 524 l 188 574 l 365 574 q 635 505 550 574 q 721 319 721 436 q 672 146 721 219 q 533 32 622 72 q 322 -8 443 -8 z "},"6":{"ha":846,"x_min":83,"x_max":851,"o":"m 440 -8 q 255 35 336 -8 q 128 163 174 78 q 83 376 83 249 q 101 544 83 458 q 159 708 119 629 q 261 848 199 786 q 413 945 324 910 q 618 981 501 981 q 747 968 686 981 q 851 926 808 956 l 804 846 q 715 883 765 872 q 613 893 665 893 q 453 865 522 893 q 335 788 385 836 q 254 678 286 740 q 206 548 222 617 q 189 411 190 479 q 188 360 188 378 q 188 329 188 343 l 146 339 q 219 481 169 428 q 338 558 269 535 q 479 582 406 582 q 637 550 567 582 q 749 457 707 518 q 792 308 792 396 q 747 140 792 211 q 622 30 701 68 q 440 -8 543 -8 m 439 76 q 621 136 551 76 q 690 301 690 196 q 625 447 690 397 q 458 497 560 497 q 322 468 381 497 q 230 389 263 439 q 197 276 197 339 q 224 181 197 228 q 306 106 251 135 q 439 76 360 76 z "},"7":{"ha":818,"x_min":113,"x_max":881,"o":"m 169 0 l 771 928 l 797 883 l 196 883 l 257 932 l 211 701 l 113 701 l 165 972 l 881 972 l 867 901 l 283 0 l 169 0 z "},"8":{"ha":886,"x_min":47,"x_max":858,"o":"m 404 -8 q 214 23 294 -8 q 90 112 133 54 q 47 249 47 169 q 94 402 47 338 q 228 502 140 467 q 440 538 317 538 q 635 508 554 538 q 758 422 715 478 q 800 289 800 365 q 751 131 800 197 q 613 28 701 64 q 404 -8 524 -8 m 408 76 q 621 133 543 76 q 699 288 699 190 q 629 419 699 371 q 438 467 560 467 q 226 410 303 467 q 149 256 149 353 q 217 124 149 172 q 408 76 286 76 m 501 478 q 322 506 396 478 q 211 585 249 533 q 174 706 174 636 q 218 852 174 790 q 343 947 263 914 q 531 981 424 981 q 703 952 629 981 q 817 871 776 924 q 858 744 858 818 q 816 603 858 663 q 694 510 774 543 q 501 478 614 478 m 503 546 q 689 597 621 546 q 757 732 757 649 q 694 852 757 808 q 526 896 632 896 q 344 845 413 896 q 275 707 275 794 q 335 590 275 633 q 503 546 394 546 z "},"9":{"ha":846,"x_min":43,"x_max":811,"o":"m 454 981 q 640 938 560 981 q 766 810 721 894 q 811 596 811 725 q 793 428 811 514 q 735 265 775 343 q 633 124 696 186 q 482 27 571 63 q 275 -8 393 -8 q 148 4 208 -8 q 43 46 88 17 l 90 126 q 179 90 131 100 q 282 79 228 79 q 441 108 372 79 q 559 184 510 136 q 640 294 608 232 q 688 424 672 356 q 706 561 704 493 q 707 612 707 594 q 707 643 707 629 l 749 633 q 676 492 726 546 q 557 414 625 438 q 415 390 489 390 q 258 422 329 390 q 144 515 186 454 q 103 664 103 576 q 148 833 103 763 q 272 942 193 904 q 454 981 351 981 m 456 896 q 274 836 343 896 q 204 671 204 776 q 269 526 204 576 q 436 475 333 475 q 573 504 514 475 q 665 584 632 533 q 697 696 697 635 q 669 792 697 746 q 589 867 642 838 q 456 896 536 896 z "},"\u0000":{"ha":0,"x_min":0,"x_max":0,"o":""},"\r":{"ha":364,"x_min":0,"x_max":0,"o":""}," ":{"ha":364,"x_min":0,"x_max":0,"o":""},"!":{"ha":361,"x_min":47,"x_max":360,"o":"m 128 292 l 243 972 l 360 972 l 204 292 l 128 292 m 118 -7 q 67 13 88 -7 q 47 61 47 33 q 69 115 47 93 q 122 136 92 136 q 173 117 153 136 q 193 69 193 97 q 183 31 193 49 q 156 3 172 14 q 118 -7 139 -7 z "},"\"":{"ha":518,"x_min":153,"x_max":543,"o":"m 153 606 l 218 972 l 306 972 l 226 606 l 153 606 m 390 606 l 456 972 l 543 972 l 464 606 l 390 606 z "},"#":{"ha":967,"x_min":22,"x_max":994,"o":"m 493 0 l 804 972 l 883 972 l 571 0 l 493 0 m 22 264 l 38 340 l 878 340 l 863 264 l 22 264 m 132 0 l 444 972 l 522 972 l 210 0 l 132 0 m 140 632 l 154 708 l 994 708 l 979 632 l 140 632 z "},"$":{"ha":854,"x_min":17,"x_max":850,"o":"m 292 -167 l 553 1139 l 621 1139 l 360 -167 l 292 -167 m 369 -8 q 230 8 299 -8 q 106 52 161 24 q 17 115 50 81 l 67 196 q 149 135 100 161 q 258 94 199 108 q 378 79 318 79 q 528 101 464 79 q 629 167 593 124 q 665 271 665 210 q 638 349 665 319 q 565 398 610 379 q 467 432 521 417 q 358 465 413 447 q 259 510 304 483 q 187 579 214 536 q 160 688 160 622 q 210 845 160 779 q 347 946 260 911 q 549 981 435 981 q 715 960 635 981 q 850 897 794 939 l 807 814 q 686 873 754 853 q 543 893 618 893 q 394 869 458 893 q 295 802 331 846 q 260 697 260 758 q 287 618 260 649 q 359 568 314 588 q 458 533 404 549 q 567 499 513 517 q 666 456 621 482 q 739 390 711 431 q 767 285 767 349 q 715 126 767 192 q 574 26 664 60 q 369 -8 485 -8 z "},"%":{"ha":1151,"x_min":124,"x_max":1076,"o":"m 129 0 l 983 972 l 1069 972 l 217 0 l 129 0 m 311 453 q 174 508 225 453 q 124 660 124 563 q 155 817 124 744 q 244 933 186 889 q 383 978 303 978 q 520 923 469 978 q 571 771 571 868 q 540 615 571 688 q 451 497 508 542 q 311 453 393 453 m 317 514 q 419 552 378 514 q 481 649 460 590 q 501 765 501 707 q 469 878 501 839 q 378 917 436 917 q 276 878 318 917 q 214 782 235 840 q 193 665 193 724 q 226 553 193 592 q 317 514 260 514 m 817 -7 q 679 48 731 -7 q 628 200 628 103 q 659 357 628 285 q 749 474 690 429 q 889 518 808 518 q 1026 463 975 518 q 1076 311 1076 408 q 1045 155 1076 228 q 956 38 1014 82 q 817 -7 899 -7 m 822 54 q 924 92 883 54 q 986 189 965 131 q 1007 306 1007 247 q 974 418 1007 379 q 883 457 942 457 q 781 419 824 457 q 718 322 739 381 q 697 206 697 264 q 731 93 697 132 q 822 54 764 54 z "},"&":{"ha":929,"x_min":40,"x_max":869,"o":"m 338 -8 q 180 19 246 -8 q 77 96 114 46 q 40 214 40 146 q 76 342 40 285 q 190 454 113 400 q 389 564 267 508 q 554 649 494 613 q 638 722 614 686 q 661 801 661 757 q 628 875 661 844 q 532 906 594 906 q 405 863 453 906 q 357 749 357 819 q 376 670 357 711 q 433 578 394 629 l 847 49 l 781 -15 l 350 536 q 288 638 310 589 q 265 738 265 686 q 300 867 265 813 q 396 950 335 921 q 535 979 457 979 q 647 959 599 979 q 721 900 694 939 q 747 808 747 861 q 713 692 747 743 q 608 596 679 642 q 422 499 536 550 q 255 406 317 449 q 166 322 193 364 q 139 229 139 281 q 192 117 139 160 q 344 74 246 74 q 523 114 439 74 q 676 236 607 154 q 792 442 744 318 l 869 417 q 735 180 815 275 q 553 38 654 85 q 338 -8 453 -8 z "},"'":{"ha":281,"x_min":153,"x_max":306,"o":"m 153 606 l 218 972 l 306 972 l 226 606 l 153 606 z "},"(":{"ha":457,"x_min":119,"x_max":533,"o":"m 183 -269 q 149 -157 164 -218 q 127 -30 135 -96 q 119 99 119 36 q 142 355 119 226 q 205 605 164 483 q 303 835 246 726 q 432 1031 361 943 l 533 1031 q 401 827 460 939 q 301 593 343 715 q 236 344 258 471 q 214 93 214 217 q 228 -87 214 1 q 272 -269 243 -175 l 183 -269 z "},")":{"ha":457,"x_min":-3,"x_max":411,"o":"m -3 -269 q 130 -65 71 -176 q 231 168 189 46 q 294 417 272 290 q 317 668 317 544 q 303 848 317 760 q 258 1031 289 936 l 347 1031 q 382 919 368 981 q 403 792 396 857 q 411 663 411 726 q 389 406 411 535 q 326 156 367 278 q 228 -74 285 35 q 99 -269 171 -182 l -3 -269 z "},"*":{"ha":536,"x_min":93,"x_max":611,"o":"m 611 875 l 394 765 l 399 790 l 568 682 l 529 624 l 361 735 l 375 740 l 333 528 l 268 528 l 313 740 l 328 733 l 119 624 l 93 681 l 308 790 l 306 769 l 136 876 l 175 935 l 340 825 l 328 818 l 368 1031 l 433 1031 l 389 818 l 376 824 l 586 935 l 611 875 z "},"+":{"ha":799,"x_min":113,"x_max":735,"o":"m 321 192 l 439 781 l 526 781 l 408 192 l 321 192 m 113 444 l 129 526 l 735 526 l 718 444 l 113 444 z "},",":{"ha":294,"x_min":-36,"x_max":163,"o":"m -36 -203 l 76 54 l 86 -7 q 35 14 56 -7 q 14 65 14 35 q 38 122 14 100 q 92 144 61 144 q 142 124 122 144 q 163 72 163 104 q 156 38 163 54 q 136 -1 150 22 l 31 -203 l -36 -203 z "},"-":{"ha":531,"x_min":78,"x_max":458,"o":"m 78 333 l 94 419 l 458 419 l 442 333 l 78 333 z "},".":{"ha":294,"x_min":14,"x_max":163,"o":"m 86 -7 q 35 14 56 -7 q 14 65 14 35 q 38 122 14 100 q 92 144 61 144 q 142 124 122 144 q 163 72 163 104 q 152 31 163 49 q 124 3 142 14 q 86 -7 106 -7 z "},"/":{"ha":465,"x_min":-137,"x_max":675,"o":"m -137 -139 l 579 1169 l 675 1169 l -42 -139 l -137 -139 z "},":":{"ha":294,"x_min":14,"x_max":281,"o":"m 204 585 q 153 606 174 585 q 132 657 132 626 q 156 714 132 692 q 210 736 179 736 q 260 716 240 736 q 281 664 281 696 q 270 623 281 640 q 242 595 260 606 q 204 585 224 585 m 86 -7 q 35 14 56 -7 q 14 65 14 35 q 38 122 14 100 q 92 144 61 144 q 142 124 122 144 q 163 72 163 104 q 152 31 163 49 q 124 3 142 14 q 86 -7 106 -7 z "},";":{"ha":294,"x_min":-36,"x_max":281,"o":"m 204 585 q 153 606 174 585 q 132 657 132 626 q 156 714 132 692 q 210 736 179 736 q 260 716 240 736 q 281 664 281 696 q 270 623 281 640 q 242 595 260 606 q 204 585 224 585 m -36 -203 l 76 54 l 86 -7 q 35 14 56 -7 q 14 65 14 35 q 38 122 14 100 q 92 144 61 144 q 142 124 122 144 q 163 72 163 104 q 156 38 163 54 q 136 -1 150 22 l 31 -203 l -36 -203 z "},"<":{"ha":799,"x_min":111,"x_max":782,"o":"m 782 774 l 763 682 l 150 458 l 158 504 l 685 281 l 668 199 l 111 440 l 129 532 l 782 774 z "},"=":{"ha":799,"x_min":82,"x_max":767,"o":"m 146 604 l 163 686 l 767 686 l 749 604 l 146 604 m 82 285 l 99 367 l 703 367 l 686 285 l 82 285 z "},">":{"ha":799,"x_min":65,"x_max":735,"o":"m 65 199 l 85 290 l 696 514 l 686 468 l 164 692 l 181 774 l 735 532 l 717 440 l 65 199 z "},"?":{"ha":788,"x_min":110,"x_max":757,"o":"m 313 292 q 353 398 324 354 q 421 474 382 442 q 501 535 460 507 q 576 593 542 564 q 633 660 611 622 q 654 750 654 697 q 603 856 654 818 q 457 893 553 893 q 297 865 365 893 q 175 781 228 836 l 110 840 q 262 944 171 908 q 471 981 353 981 q 624 955 560 981 q 722 881 688 929 q 757 765 757 833 q 735 653 757 700 q 679 574 714 607 q 604 511 644 540 q 525 452 564 482 q 456 384 486 422 q 414 292 426 346 l 313 292 m 315 -7 q 266 13 286 -7 q 246 61 246 33 q 268 115 246 93 q 321 136 290 136 q 370 117 350 136 q 390 69 390 97 q 381 31 390 49 q 353 3 371 14 q 315 -7 336 -7 z "},"@":{"ha":1435,"x_min":58,"x_max":1374,"o":"m 610 -278 q 314 -212 438 -278 q 124 -31 190 -147 q 58 239 58 86 q 111 525 58 390 q 263 762 164 660 q 500 922 361 864 q 811 981 639 981 q 1117 917 992 981 q 1308 741 1243 854 q 1374 476 1374 628 q 1351 294 1374 381 q 1287 140 1328 207 q 1191 33 1246 72 q 1072 -7 1136 -7 q 957 38 996 -7 q 935 157 918 82 l 956 257 l 989 346 l 999 492 l 1042 704 l 1132 704 l 1026 176 q 1035 97 1015 121 q 1094 72 1054 72 q 1176 107 1139 72 q 1242 200 1214 142 q 1287 329 1271 258 q 1303 475 1303 400 q 1247 703 1303 606 q 1079 856 1190 801 q 803 910 968 910 q 528 858 651 910 q 318 714 406 806 q 183 501 231 622 q 136 243 136 379 q 191 8 136 110 q 353 -150 246 -93 q 617 -207 461 -207 q 761 -192 692 -207 q 888 -147 831 -176 l 903 -217 q 766 -262 843 -246 q 610 -278 689 -278 m 650 -7 q 492 29 561 -7 q 385 132 424 65 q 347 289 347 199 q 376 454 347 378 q 458 588 406 531 q 583 678 511 646 q 743 710 656 710 q 958 634 883 710 q 1035 419 1033 558 q 990 205 1036 301 q 858 51 944 108 q 650 -7 772 -7 m 669 74 q 829 118 760 74 q 939 238 899 163 q 979 410 979 314 q 917 572 979 515 q 744 629 854 629 q 588 586 657 629 q 478 467 518 543 q 439 294 439 392 q 500 131 439 189 q 669 74 561 74 z "},"A":{"ha":996,"x_min":-69,"x_max":921,"o":"m -69 0 l 569 972 l 671 972 l 921 0 l 818 0 l 590 915 l 632 915 l 42 0 l -69 0 m 157 260 l 204 343 l 769 343 l 785 260 l 157 260 z "},"B":{"ha":1047,"x_min":86,"x_max":994,"o":"m 86 0 l 281 972 l 696 972 q 915 919 836 972 q 994 765 994 867 q 949 608 994 671 q 828 513 903 544 q 668 481 754 481 l 699 513 q 884 459 815 513 q 953 301 953 406 q 902 136 953 204 q 758 34 851 68 q 538 0 665 0 l 86 0 m 204 85 l 546 85 q 772 140 692 85 q 851 300 851 196 q 794 417 851 383 q 625 450 736 450 l 260 450 l 276 535 l 604 535 q 752 558 688 535 q 853 630 817 582 q 889 747 889 678 q 833 853 889 819 q 676 888 778 888 l 364 888 l 204 85 z "},"C":{"ha":999,"x_min":89,"x_max":1026,"o":"m 543 -8 q 297 42 399 -8 q 142 184 196 93 q 89 396 89 275 q 130 621 89 515 q 248 808 171 726 q 434 935 325 889 q 681 981 543 981 q 888 944 797 981 q 1026 839 978 908 l 954 775 q 839 860 908 832 q 672 889 769 889 q 473 851 563 889 q 321 744 383 813 q 224 588 258 676 q 190 400 190 500 q 231 235 190 307 q 353 124 272 164 q 550 83 433 83 q 724 113 646 83 q 860 199 801 142 l 919 131 q 757 27 856 63 q 543 -8 658 -8 z "},"D":{"ha":1147,"x_min":86,"x_max":1108,"o":"m 86 0 l 281 972 l 650 972 q 899 923 797 972 q 1055 785 1001 874 q 1108 576 1108 697 q 1066 342 1108 449 q 944 160 1024 236 q 753 42 864 83 q 504 0 642 0 l 86 0 m 206 89 l 507 89 q 773 151 661 89 q 945 323 885 214 q 1006 572 1006 432 q 965 735 1006 665 q 844 844 925 806 q 639 883 763 883 l 364 883 l 206 89 z "},"E":{"ha":929,"x_min":86,"x_max":947,"o":"m 285 538 l 799 538 l 782 450 l 268 450 l 285 538 m 206 89 l 790 89 l 772 0 l 86 0 l 281 972 l 947 972 l 929 883 l 364 883 l 206 89 z "},"F":{"ha":879,"x_min":86,"x_max":947,"o":"m 278 501 l 792 501 l 774 413 l 258 413 l 278 501 m 188 0 l 86 0 l 281 972 l 947 972 l 929 883 l 364 883 l 188 0 z "},"G":{"ha":1074,"x_min":89,"x_max":1043,"o":"m 543 -8 q 299 42 400 -8 q 143 184 197 93 q 89 396 89 275 q 130 621 89 515 q 248 808 171 726 q 435 935 325 889 q 682 981 544 981 q 897 944 804 981 q 1043 839 989 907 l 971 776 q 848 862 921 835 q 678 889 775 889 q 476 851 565 889 q 323 746 386 813 q 225 590 260 679 q 190 400 190 501 q 231 235 190 307 q 353 124 272 164 q 554 83 435 83 q 715 113 642 83 q 850 196 788 142 l 892 113 q 734 24 825 57 q 543 -8 643 -8 m 797 128 l 868 486 l 967 486 l 892 113 l 797 128 z "},"H":{"ha":1129,"x_min":86,"x_max":1092,"o":"m 990 972 l 1092 972 l 897 0 l 796 0 l 990 972 m 188 0 l 86 0 l 281 972 l 382 972 l 188 0 m 896 449 l 268 449 l 285 539 l 914 539 l 896 449 z "},"I":{"ha":419,"x_min":86,"x_max":382,"o":"m 86 0 l 281 972 l 382 972 l 188 0 l 86 0 z "},"J":{"ha":696,"x_min":-51,"x_max":667,"o":"m 214 -8 q 51 29 119 -8 q -51 132 -18 67 l 21 197 q 98 112 47 143 q 217 81 149 81 q 355 128 301 81 q 431 290 408 176 l 549 883 l 194 883 l 213 972 l 667 972 l 531 290 q 467 115 510 181 q 362 21 425 50 q 214 -8 299 -8 z "},"K":{"ha":988,"x_min":86,"x_max":1078,"o":"m 226 244 l 242 371 l 943 972 l 1078 972 l 553 521 l 492 471 l 226 244 m 86 0 l 281 972 l 382 972 l 188 0 l 86 0 m 792 0 l 461 483 l 531 551 l 907 0 l 792 0 z "},"L":{"ha":818,"x_min":86,"x_max":750,"o":"m 86 0 l 281 972 l 382 972 l 206 89 l 750 89 l 732 0 l 86 0 z "},"M":{"ha":1326,"x_min":86,"x_max":1290,"o":"m 86 0 l 281 972 l 364 972 l 660 213 l 617 214 l 1200 972 l 1290 972 l 1096 0 l 997 0 l 1161 821 l 1188 818 l 649 124 l 600 124 l 325 822 l 347 818 l 185 0 l 86 0 z "},"N":{"ha":1129,"x_min":86,"x_max":1092,"o":"m 86 0 l 281 972 l 364 972 l 854 124 l 822 129 l 990 972 l 1092 972 l 897 0 l 814 0 l 324 849 l 356 843 l 188 0 l 86 0 z "},"O":{"ha":1165,"x_min":89,"x_max":1125,"o":"m 539 -8 q 294 42 396 -8 q 141 184 193 93 q 89 396 89 275 q 129 621 89 515 q 247 808 169 726 q 432 935 324 889 q 675 981 540 981 q 920 930 819 981 q 1073 788 1021 879 q 1125 576 1125 697 q 1085 351 1125 457 q 967 165 1044 246 q 782 38 890 83 q 539 -8 674 -8 m 549 83 q 744 122 657 83 q 894 228 832 160 q 990 384 957 296 q 1024 572 1024 472 q 983 738 1024 667 q 863 849 942 808 q 665 889 783 889 q 469 851 557 889 q 320 744 382 813 q 224 588 258 676 q 190 400 190 500 q 231 235 190 307 q 351 124 272 164 q 549 83 431 83 z "},"P":{"ha":997,"x_min":86,"x_max":976,"o":"m 86 0 l 281 972 l 629 972 q 885 900 794 972 q 976 697 976 828 q 922 485 976 572 q 765 353 867 399 q 525 307 664 307 l 204 307 l 260 356 l 188 0 l 86 0 m 257 347 l 221 397 l 526 397 q 783 471 692 397 q 874 688 874 544 q 808 833 874 783 q 621 883 743 883 l 321 883 l 375 935 l 257 347 z "},"Q":{"ha":1165,"x_min":89,"x_max":1125,"o":"m 539 -8 q 294 42 396 -8 q 141 184 193 93 q 89 396 89 275 q 129 621 89 515 q 247 808 169 726 q 432 935 324 889 q 675 981 540 981 q 920 930 819 981 q 1073 788 1021 879 q 1125 576 1125 697 q 1085 351 1125 457 q 967 165 1044 246 q 782 38 890 83 q 539 -8 674 -8 m 817 -193 q 629 -139 713 -193 q 482 14 546 -85 l 597 39 q 696 -74 642 -37 q 819 -111 750 -111 q 922 -89 874 -111 q 1007 -26 969 -67 l 1051 -89 q 947 -167 1008 -142 q 817 -193 885 -193 m 549 83 q 744 122 657 83 q 894 228 832 160 q 990 384 957 296 q 1024 572 1024 472 q 983 738 1024 667 q 863 849 942 808 q 665 889 783 889 q 469 851 557 889 q 320 744 382 813 q 224 588 258 676 q 190 400 190 500 q 231 235 190 307 q 351 124 272 164 q 549 83 431 83 z "},"R":{"ha":1004,"x_min":86,"x_max":978,"o":"m 86 0 l 281 972 l 631 972 q 887 900 796 972 q 978 697 978 828 q 923 487 978 574 q 767 354 868 400 q 526 308 665 308 l 206 308 l 260 356 l 189 0 l 86 0 m 751 0 l 553 353 l 663 353 l 863 0 l 751 0 m 257 347 l 222 397 l 528 397 q 784 471 693 397 q 875 688 875 544 q 810 833 875 783 q 624 883 744 883 l 322 883 l 375 933 l 257 347 z "},"S":{"ha":854,"x_min":17,"x_max":850,"o":"m 369 -8 q 230 8 299 -8 q 106 52 161 24 q 17 115 50 81 l 67 196 q 149 135 100 161 q 258 94 199 108 q 378 79 318 79 q 528 101 464 79 q 629 167 593 124 q 665 271 665 210 q 638 349 665 319 q 565 398 610 379 q 467 432 521 417 q 358 465 413 447 q 259 510 304 483 q 187 579 214 536 q 160 688 160 622 q 210 845 160 779 q 347 946 260 911 q 549 981 435 981 q 715 960 635 981 q 850 897 794 939 l 807 814 q 686 873 754 853 q 543 893 618 893 q 394 869 458 893 q 295 802 331 846 q 260 697 260 758 q 287 618 260 649 q 359 568 314 588 q 458 533 404 549 q 567 499 513 517 q 666 456 621 482 q 739 390 711 431 q 767 285 767 349 q 715 126 767 192 q 574 26 664 60 q 369 -8 485 -8 z "},"T":{"ha":797,"x_min":108,"x_max":913,"o":"m 275 0 l 451 883 l 108 883 l 126 972 l 913 972 l 894 883 l 553 883 l 376 0 l 275 0 z "},"U":{"ha":1100,"x_min":136,"x_max":1069,"o":"m 499 -8 q 281 46 365 -8 q 167 196 197 100 q 161 414 136 292 l 272 972 l 374 972 l 263 414 q 254 281 247 342 q 291 175 261 219 q 375 107 321 131 q 508 83 429 83 q 678 120 608 83 q 791 229 747 157 q 857 407 835 301 l 969 972 l 1069 972 l 956 400 q 802 96 917 200 q 499 -8 688 -8 z "},"V":{"ha":969,"x_min":125,"x_max":1088,"o":"m 363 0 l 125 972 l 231 972 l 451 58 l 389 58 l 979 972 l 1088 972 l 463 0 l 363 0 z "},"W":{"ha":1543,"x_min":171,"x_max":1615,"o":"m 304 0 l 171 972 l 272 972 l 397 58 l 346 58 l 844 972 l 940 972 l 1068 58 l 1018 58 l 1513 972 l 1615 972 l 1093 0 l 985 0 l 860 865 l 889 867 l 413 0 l 304 0 z "},"X":{"ha":911,"x_min":-49,"x_max":983,"o":"m -49 0 l 450 531 l 444 474 l 169 972 l 278 972 l 514 543 l 468 549 l 867 972 l 983 972 l 518 475 l 521 531 l 813 0 l 704 0 l 454 457 l 497 454 l 74 0 l -49 0 z "},"Y":{"ha":882,"x_min":122,"x_max":1001,"o":"m 317 0 l 389 364 l 400 294 l 122 972 l 225 972 l 468 381 l 413 379 l 892 972 l 1001 972 l 456 293 l 490 364 l 418 0 l 317 0 z "},"Z":{"ha":904,"x_min":-11,"x_max":965,"o":"m -11 0 l 3 71 l 842 922 l 850 883 l 176 883 l 194 972 l 965 972 l 951 901 l 111 50 l 104 89 l 804 89 l 786 0 l -11 0 z "},"[":{"ha":443,"x_min":31,"x_max":544,"o":"m 31 -269 l 290 1031 l 544 1031 l 528 947 l 372 947 l 147 -186 l 301 -186 l 285 -269 l 31 -269 z "},"\\":{"ha":465,"x_min":111,"x_max":399,"o":"m 399 -139 l 313 -139 l 111 1169 l 197 1169 l 399 -139 z "},"]":{"ha":442,"x_min":-96,"x_max":418,"o":"m 158 -269 l -96 -269 l -79 -186 l 76 -186 l 301 947 l 146 947 l 163 1031 l 418 1031 l 158 -269 z "},"^":{"ha":800,"x_min":83,"x_max":651,"o":"m 83 199 l 440 774 l 524 774 l 651 199 l 574 199 l 458 739 l 501 739 l 168 199 l 83 199 z "},"_":{"ha":694,"x_min":-86,"x_max":622,"o":"m -86 -67 l -72 0 l 622 0 l 608 -67 l -86 -67 z "},"`":{"ha":833,"x_min":314,"x_max":603,"o":"m 504 843 l 314 1015 l 444 1015 l 603 843 l 504 843 z "},"a":{"ha":942,"x_min":58,"x_max":878,"o":"m 376 -7 q 211 31 283 -7 q 99 138 139 68 q 58 303 58 207 q 89 475 58 396 q 175 613 119 554 q 306 704 231 672 q 471 736 382 736 q 633 702 567 736 q 736 603 700 668 q 772 447 772 539 q 724 213 772 315 q 586 51 675 110 q 376 -7 497 -7 m 397 81 q 560 124 489 81 q 673 246 632 168 q 714 422 714 324 q 651 590 714 531 q 474 650 588 650 q 311 606 383 650 q 198 484 239 561 q 157 307 157 407 q 220 140 157 200 q 397 81 283 81 m 638 0 l 679 210 l 721 357 l 735 510 l 779 729 l 878 729 l 732 0 l 638 0 z "},"b":{"ha":942,"x_min":65,"x_max":885,"o":"m 65 0 l 271 1031 l 369 1031 l 267 518 l 222 374 l 206 232 l 160 0 l 65 0 m 471 -7 q 309 27 376 -7 q 206 126 242 61 q 169 282 171 190 q 197 465 169 382 q 277 609 225 549 q 402 703 329 669 q 565 736 475 736 q 731 699 660 736 q 844 593 803 663 q 885 428 885 524 q 854 254 885 333 q 767 117 824 175 q 636 26 711 58 q 471 -7 561 -7 m 469 81 q 632 124 561 81 q 744 246 703 168 q 785 422 785 324 q 722 590 785 531 q 544 650 660 650 q 383 606 454 650 q 270 484 311 561 q 229 307 229 407 q 292 140 229 200 q 469 81 354 81 z "},"c":{"ha":782,"x_min":58,"x_max":771,"o":"m 396 -7 q 216 31 292 -7 q 99 139 140 69 q 58 303 58 208 q 113 526 58 428 q 263 680 167 624 q 483 736 360 736 q 658 699 585 736 q 771 590 731 663 l 688 542 q 603 624 657 597 q 475 650 550 650 q 311 606 383 650 q 198 484 239 561 q 157 307 157 407 q 220 140 157 200 q 400 81 283 81 q 531 108 471 81 q 631 186 592 135 l 701 132 q 572 30 654 67 q 396 -7 490 -7 z "},"d":{"ha":942,"x_min":58,"x_max":938,"o":"m 376 -7 q 211 31 283 -7 q 99 138 139 68 q 58 303 58 207 q 89 475 58 396 q 175 613 119 554 q 306 704 231 672 q 471 736 382 736 q 633 702 567 736 q 736 603 700 668 q 772 447 772 539 q 745 265 772 349 q 665 121 718 182 q 540 26 613 60 q 376 -7 467 -7 m 397 81 q 560 124 489 81 q 673 246 632 168 q 714 422 714 324 q 651 590 714 531 q 474 650 588 650 q 311 606 383 650 q 198 484 239 561 q 157 307 157 407 q 220 140 157 200 q 397 81 283 81 m 638 0 l 679 210 l 721 357 l 735 510 l 839 1031 l 938 1031 l 732 0 l 638 0 z "},"e":{"ha":839,"x_min":58,"x_max":781,"o":"m 399 -7 q 217 31 294 -7 q 99 139 140 69 q 58 304 58 208 q 111 526 58 429 q 256 680 164 624 q 463 736 347 736 q 631 699 560 736 q 741 593 701 663 q 781 426 781 524 q 778 381 781 404 q 771 338 775 358 l 131 338 l 143 411 l 725 411 l 685 383 q 672 531 699 471 q 591 622 646 590 q 460 653 536 653 q 301 609 371 653 q 193 488 232 565 q 154 308 154 411 q 217 140 154 199 q 407 81 281 81 q 543 105 481 81 q 646 172 606 129 l 690 101 q 562 22 639 50 q 399 -7 485 -7 z "},"f":{"ha":471,"x_min":81,"x_max":643,"o":"m 82 0 l 246 822 q 330 981 267 925 q 496 1038 393 1038 q 579 1025 540 1038 q 643 990 618 1013 l 599 918 q 496 954 560 954 q 394 920 432 954 q 340 811 356 886 l 318 704 l 313 661 l 181 0 l 82 0 m 81 647 l 96 729 l 547 729 l 531 647 l 81 647 z "},"g":{"ha":951,"x_min":10,"x_max":888,"o":"m 335 -276 q 150 -248 233 -276 q 10 -167 67 -219 l 68 -92 q 184 -162 113 -136 q 342 -189 256 -189 q 557 -125 481 -189 q 658 72 633 -61 l 697 264 l 735 383 l 750 508 l 793 729 l 888 729 l 760 89 q 618 -190 722 -104 q 335 -276 514 -276 m 383 28 q 215 64 288 28 q 101 166 142 100 q 61 322 61 232 q 92 486 61 411 q 178 617 122 561 q 310 705 233 674 q 478 736 386 736 q 633 706 565 736 q 741 614 701 675 q 781 458 781 553 q 733 241 782 339 q 596 85 685 143 q 383 28 507 28 m 403 115 q 566 157 494 115 q 679 272 638 199 q 721 438 721 344 q 657 594 721 538 q 479 650 593 650 q 315 608 388 650 q 202 494 243 567 q 161 328 161 421 q 225 172 161 228 q 403 115 289 115 z "},"h":{"ha":939,"x_min":65,"x_max":840,"o":"m 567 736 q 728 698 665 736 q 816 588 792 660 q 819 415 840 515 l 736 0 l 638 0 l 721 417 q 698 586 743 525 q 539 647 653 647 q 345 583 422 647 q 242 392 268 519 l 164 0 l 65 0 l 271 1031 l 369 1031 l 267 519 l 242 556 q 378 693 294 650 q 567 736 463 736 z "},"i":{"ha":374,"x_min":65,"x_max":379,"o":"m 65 0 l 210 729 l 308 729 l 164 0 l 65 0 m 301 890 q 253 910 272 890 q 235 956 235 929 q 256 1008 235 986 q 311 1031 278 1031 q 360 1013 340 1031 q 379 967 379 994 q 357 912 379 933 q 301 890 335 890 z "},"j":{"ha":381,"x_min":-242,"x_max":385,"o":"m -87 -276 q -174 -265 -135 -276 q -242 -231 -214 -253 l -196 -154 q -86 -192 -153 -192 q 9 -159 -26 -192 q 60 -53 44 -126 l 217 729 l 315 729 l 158 -56 q -87 -276 114 -276 m 307 890 q 259 910 278 890 q 240 956 240 929 q 262 1008 240 986 q 317 1031 283 1031 q 365 1013 346 1031 q 385 967 385 994 q 363 912 385 933 q 307 890 340 890 z "},"k":{"ha":819,"x_min":65,"x_max":874,"o":"m 183 194 l 203 315 l 733 729 l 874 729 l 475 419 l 421 378 l 183 194 m 65 0 l 271 1031 l 369 1031 l 164 0 l 65 0 m 635 0 l 404 379 l 472 453 l 750 0 l 635 0 z "},"l":{"ha":374,"x_min":65,"x_max":369,"o":"m 65 0 l 271 1031 l 369 1031 l 164 0 l 65 0 z "},"m":{"ha":1474,"x_min":65,"x_max":1374,"o":"m 1104 736 q 1265 698 1203 736 q 1350 588 1326 660 q 1353 415 1374 515 l 1269 0 l 1171 0 l 1254 417 q 1234 586 1276 525 q 1081 647 1192 647 q 897 586 971 647 q 797 403 822 525 l 717 0 l 618 0 l 701 417 q 681 586 724 525 q 528 647 638 647 q 342 583 415 647 q 242 392 268 519 l 164 0 l 65 0 l 210 729 l 304 729 l 263 519 l 242 556 q 375 693 294 650 q 557 736 456 736 q 688 710 633 736 q 774 635 743 685 q 808 518 806 586 l 757 529 q 901 685 811 633 q 1104 736 990 736 z "},"n":{"ha":939,"x_min":65,"x_max":840,"o":"m 567 736 q 728 698 665 736 q 816 588 792 660 q 819 415 840 515 l 736 0 l 638 0 l 721 417 q 698 586 743 525 q 539 647 653 647 q 345 583 422 647 q 242 392 268 519 l 164 0 l 65 0 l 210 729 l 304 729 l 263 519 l 242 556 q 378 693 294 650 q 567 736 463 736 z "},"o":{"ha":871,"x_min":58,"x_max":813,"o":"m 390 -7 q 215 31 289 -7 q 99 139 140 69 q 58 303 58 208 q 113 526 58 428 q 263 680 167 624 q 481 736 358 736 q 656 699 582 736 q 772 592 731 661 q 813 428 813 522 q 758 205 813 303 q 609 50 704 107 q 390 -7 514 -7 m 397 81 q 560 124 489 81 q 673 246 632 168 q 714 422 714 324 q 651 590 714 531 q 474 650 588 650 q 311 606 383 650 q 198 484 239 561 q 157 307 157 407 q 220 140 157 200 q 397 81 283 81 z "},"p":{"ha":942,"x_min":11,"x_max":885,"o":"m 471 -7 q 309 27 376 -7 q 206 126 242 61 q 169 282 171 190 q 218 519 169 417 q 356 678 267 621 q 565 736 444 736 q 731 699 660 736 q 844 593 803 663 q 885 428 885 524 q 854 254 885 333 q 767 117 824 175 q 636 26 711 58 q 471 -7 561 -7 m 11 -269 l 210 729 l 304 729 l 263 519 l 222 374 l 207 221 l 110 -269 l 11 -269 m 469 81 q 632 124 561 81 q 744 246 703 168 q 785 422 785 324 q 722 590 785 531 q 544 650 660 650 q 383 606 454 650 q 270 484 311 561 q 229 307 229 407 q 292 140 229 200 q 469 81 354 81 z "},"q":{"ha":942,"x_min":58,"x_max":878,"o":"m 376 -7 q 211 31 283 -7 q 99 138 139 68 q 58 303 58 207 q 89 475 58 396 q 175 613 119 554 q 306 704 231 672 q 471 736 382 736 q 633 702 567 736 q 736 603 700 668 q 772 447 772 539 q 724 213 772 315 q 586 51 675 110 q 376 -7 497 -7 m 397 81 q 560 124 489 81 q 673 246 632 168 q 714 422 714 324 q 651 590 714 531 q 474 650 588 650 q 311 606 383 650 q 198 484 239 561 q 157 307 157 407 q 220 140 157 200 q 397 81 283 81 m 579 -269 l 675 211 l 721 357 l 736 497 l 783 729 l 878 729 l 678 -269 l 579 -269 z "},"r":{"ha":557,"x_min":65,"x_max":579,"o":"m 65 0 l 210 729 l 304 729 l 263 514 l 251 551 q 380 692 300 647 q 579 736 460 736 l 561 640 q 548 641 554 640 q 533 642 542 642 q 341 574 417 642 q 238 371 265 507 l 164 0 l 65 0 z "},"s":{"ha":678,"x_min":-12,"x_max":654,"o":"m 278 -7 q 110 18 189 -7 q -12 82 31 43 l 35 160 q 144 101 76 122 q 288 79 213 79 q 448 114 392 79 q 504 210 504 149 q 474 273 504 251 q 397 306 444 294 q 297 329 350 318 q 197 358 244 340 q 120 411 150 375 q 90 508 90 447 q 130 629 90 578 q 240 708 169 681 q 407 736 311 736 q 544 718 476 736 q 654 668 613 700 l 613 589 q 513 637 569 622 q 399 651 456 651 q 242 615 297 651 q 188 518 188 578 q 217 454 188 476 q 294 419 247 432 q 395 397 342 407 q 495 368 449 386 q 572 316 542 350 q 601 221 601 282 q 561 98 601 149 q 448 20 521 47 q 278 -7 375 -7 z "},"t":{"ha":564,"x_min":81,"x_max":547,"o":"m 297 -7 q 190 20 235 -7 q 128 97 146 47 q 125 217 111 147 l 258 890 l 357 890 l 224 221 q 234 115 210 153 q 324 78 258 78 q 383 87 354 78 q 436 115 413 96 l 460 40 q 382 3 425 14 q 297 -7 339 -7 m 81 647 l 96 729 l 547 729 l 531 647 l 81 647 z "},"u":{"ha":933,"x_min":101,"x_max":869,"o":"m 371 -7 q 212 32 275 -7 q 125 143 149 71 q 119 314 101 215 l 203 729 l 301 729 l 218 314 q 242 144 197 206 q 397 82 286 82 q 590 146 513 82 q 693 338 667 210 l 771 729 l 869 729 l 724 0 l 629 0 l 671 210 l 692 175 q 556 37 640 81 q 371 -7 472 -7 z "},"v":{"ha":753,"x_min":74,"x_max":825,"o":"m 254 0 l 74 729 l 172 729 l 336 53 l 289 53 l 722 729 l 825 729 l 354 0 l 254 0 z "},"w":{"ha":1221,"x_min":79,"x_max":1289,"o":"m 222 0 l 79 729 l 169 729 l 299 53 l 254 53 l 640 729 l 724 729 l 857 53 l 813 53 l 1193 729 l 1289 729 l 876 0 l 781 0 l 650 636 l 681 636 l 317 0 l 222 0 z "},"x":{"ha":742,"x_min":-49,"x_max":774,"o":"m -49 0 l 344 403 l 333 354 l 117 729 l 221 729 l 401 414 l 357 415 l 660 729 l 774 729 l 400 344 l 408 400 l 640 0 l 535 0 l 344 333 l 389 333 l 68 0 l -49 0 z "},"y":{"ha":753,"x_min":-146,"x_max":825,"o":"m 28 -276 q -71 -259 -24 -276 q -146 -211 -118 -242 l -93 -139 q -37 -178 -69 -164 q 35 -192 -6 -192 q 122 -166 82 -192 q 204 -74 161 -140 l 278 39 l 290 53 l 724 729 l 825 729 l 292 -94 q 206 -203 246 -164 q 123 -260 165 -243 q 28 -276 81 -276 m 261 -21 l 74 729 l 174 729 l 338 60 l 261 -21 z "},"z":{"ha":710,"x_min":-15,"x_max":717,"o":"m -15 0 l -3 65 l 600 681 l 622 647 l 124 647 l 140 729 l 717 729 l 703 665 l 101 49 l 75 82 l 596 82 l 579 0 l -15 0 z "},"{":{"ha":465,"x_min":78,"x_max":567,"o":"m 256 -269 q 162 -247 200 -269 q 108 -181 124 -225 q 106 -74 93 -137 l 174 268 q 168 322 181 306 q 126 339 156 339 l 78 339 l 94 422 l 143 422 q 193 439 175 422 q 218 493 211 456 l 292 857 q 363 988 310 944 q 515 1031 415 1031 l 567 1031 l 550 947 l 514 947 q 428 920 458 947 q 389 847 399 893 l 318 494 q 296 428 310 453 q 260 392 282 404 q 201 374 238 379 l 204 386 q 265 351 246 379 q 272 267 283 322 l 206 -64 q 217 -157 193 -128 q 286 -186 240 -186 l 324 -186 l 307 -269 l 256 -269 z "},"|":{"ha":408,"x_min":32,"x_max":383,"o":"m 32 -269 l 292 1031 l 383 1031 l 124 -269 l 32 -269 z "},"}":{"ha":465,"x_min":-97,"x_max":392,"o":"m -97 -269 l -81 -186 l -43 -186 q 43 -159 14 -186 q 82 -86 72 -132 l 153 267 q 176 334 163 310 q 212 371 189 358 q 269 388 235 383 l 267 375 q 206 410 225 382 q 199 494 188 439 l 265 825 q 254 918 278 889 q 185 947 231 947 l 147 947 l 163 1031 l 215 1031 q 309 1008 271 1031 q 363 942 347 986 q 365 835 378 899 l 296 493 q 302 439 289 456 q 343 422 315 422 l 392 422 l 376 339 l 328 339 q 278 322 296 339 q 253 268 260 306 l 179 -96 q 108 -226 161 -183 q -44 -269 56 -269 l -97 -269 z "},"~":{"ha":799,"x_min":90,"x_max":757,"o":"m 557 378 q 469 399 504 378 q 409 449 435 421 q 357 497 383 476 q 293 518 331 518 q 206 483 242 518 q 158 386 171 447 l 90 386 q 132 502 103 456 q 203 572 161 549 q 290 596 244 596 q 378 574 344 596 q 438 525 413 553 q 490 476 464 497 q 554 454 517 454 q 641 491 606 454 q 689 588 676 528 l 757 588 q 715 472 744 519 q 645 401 686 425 q 557 378 604 378 z "}," ":{"ha":364,"x_min":0,"x_max":0,"o":""},"¡":{"ha":361,"x_min":6,"x_max":313,"o":"m 6 -214 l 157 438 l 232 438 l 122 -214 l 6 -214 m 238 593 q 188 613 208 593 q 167 660 167 633 q 177 699 167 682 q 205 726 188 715 q 243 736 222 736 q 293 717 274 736 q 313 668 313 697 q 291 615 313 638 q 238 593 269 593 z "},"¢":{"ha":782,"x_min":58,"x_max":771,"o":"m 396 -7 q 216 31 292 -7 q 99 139 140 69 q 58 303 58 208 q 113 526 58 428 q 263 680 167 624 q 483 736 360 736 q 658 699 585 736 q 771 590 731 663 l 688 542 q 603 624 657 597 q 475 650 550 650 q 311 606 383 650 q 198 484 239 561 q 157 307 157 407 q 220 140 157 200 q 400 81 283 81 q 531 108 471 81 q 631 186 592 135 l 701 132 q 572 30 654 67 q 396 -7 490 -7 m 290 -167 l 501 896 l 569 896 l 358 -167 l 290 -167 z "},"£":{"ha":885,"x_min":-32,"x_max":965,"o":"m 129 18 l 253 638 q 338 833 276 757 q 490 944 400 908 q 689 981 581 981 q 846 962 774 981 q 965 903 918 943 l 917 822 q 813 874 872 858 q 683 889 754 889 q 464 827 547 889 q 353 628 381 765 l 231 18 l 129 18 m -32 0 l -14 89 l 788 89 l 769 0 l -32 0 m 57 451 l 72 521 l 715 521 l 701 451 l 57 451 z "},"¤":{"ha":972,"x_min":61,"x_max":940,"o":"m 224 657 l 61 819 l 119 882 l 282 719 l 224 657 m 776 657 l 718 719 l 882 882 l 940 819 l 776 657 m 882 0 l 718 163 l 776 225 l 940 63 l 882 0 m 119 0 l 61 63 l 224 225 l 282 163 l 119 0 m 500 72 q 353 101 422 72 q 233 181 285 131 q 151 299 181 232 q 121 442 121 365 q 151 585 121 518 q 233 704 181 653 q 353 785 285 756 q 500 814 422 814 q 649 785 581 814 q 771 704 718 756 q 853 585 824 653 q 883 442 883 518 q 853 299 883 365 q 771 181 824 232 q 649 101 718 131 q 500 72 581 72 m 500 156 q 651 194 583 156 q 761 298 719 233 q 803 442 803 363 q 761 586 803 521 q 651 691 719 651 q 500 731 583 731 q 351 691 419 731 q 243 586 283 651 q 203 442 203 521 q 243 298 203 363 q 351 194 283 233 q 500 156 419 156 z "},"¥":{"ha":965,"x_min":88,"x_max":1085,"o":"m 358 0 l 443 424 l 456 364 l 122 972 l 228 972 l 524 426 l 467 426 l 976 972 l 1085 972 l 510 354 l 546 424 l 461 0 l 358 0 m 88 181 l 101 242 l 814 242 l 801 181 l 88 181 m 126 372 l 140 433 l 853 433 l 840 372 l 126 372 z "},"¦":{"ha":408,"x_min":32,"x_max":383,"o":"m 194 544 l 292 1031 l 383 1031 l 286 544 l 194 544 m 32 -269 l 129 217 l 221 217 l 124 -269 l 32 -269 z "},"§":{"ha":681,"x_min":-43,"x_max":743,"o":"m 446 206 l 378 256 q 508 313 463 269 q 554 415 554 356 q 526 488 554 463 q 453 528 497 513 q 358 556 408 543 q 263 590 307 569 q 191 646 219 610 q 163 744 163 682 q 203 867 163 814 q 319 949 244 919 q 490 979 393 979 q 584 971 536 979 q 674 947 632 963 q 743 908 715 932 l 700 835 q 601 883 658 867 q 483 899 543 899 q 312 855 372 899 q 251 750 251 811 q 279 680 251 704 q 352 642 307 656 q 447 615 397 628 q 540 581 496 601 q 613 524 585 560 q 642 424 642 488 q 586 285 642 343 q 446 206 531 228 m 219 -146 q 70 -121 139 -146 q -43 -54 1 -96 l 1 19 q 102 -43 46 -21 q 232 -65 158 -65 q 394 -22 336 -65 q 453 85 453 22 q 425 154 453 129 q 353 194 397 179 q 258 222 308 208 q 164 256 208 235 q 91 313 119 278 q 63 410 63 349 q 115 545 63 486 q 254 628 168 604 l 321 578 q 194 518 239 561 q 150 418 150 475 q 178 349 150 375 q 251 308 207 324 q 346 279 296 293 q 441 244 396 265 q 515 188 486 224 q 543 90 543 151 q 502 -33 543 21 q 389 -116 461 -86 q 219 -146 317 -146 z "},"¨":{"ha":833,"x_min":346,"x_max":714,"o":"m 650 875 q 610 890 626 875 q 594 928 594 906 q 613 976 594 957 q 657 994 632 994 q 697 979 681 994 q 714 939 714 964 q 695 893 714 911 q 650 875 676 875 m 403 875 q 363 890 379 875 q 346 928 346 906 q 365 976 346 957 q 408 994 385 994 q 449 979 433 994 q 465 939 465 964 q 447 893 465 911 q 403 875 428 875 z "},"©":{"ha":1124,"x_min":96,"x_max":1076,"o":"m 585 -4 q 392 33 481 -4 q 236 138 303 71 q 133 294 169 206 q 96 486 96 383 q 133 678 96 589 q 238 834 171 767 q 394 939 304 901 q 588 976 483 976 q 781 940 692 976 q 937 836 871 903 q 1040 681 1003 769 q 1076 489 1076 593 q 1039 295 1076 385 q 934 138 1001 206 q 778 33 867 71 q 585 -4 689 -4 m 585 47 q 758 81 678 47 q 897 175 838 115 q 990 316 957 235 q 1024 489 1024 397 q 991 661 1024 582 q 899 800 958 740 q 761 892 840 860 q 588 925 682 925 q 414 892 494 925 q 274 798 333 858 q 182 658 215 738 q 149 486 149 579 q 181 315 149 394 q 273 174 214 235 q 412 81 332 114 q 585 47 492 47 m 599 197 q 449 234 515 197 q 346 336 383 271 q 308 486 308 401 q 346 636 308 571 q 449 738 383 701 q 599 775 515 775 q 726 747 668 775 q 818 668 783 718 l 758 624 q 688 683 731 664 q 597 703 646 703 q 490 676 538 703 q 416 600 443 649 q 389 486 389 551 q 416 372 389 421 q 490 297 443 324 q 597 269 538 269 q 688 289 646 269 q 758 349 731 308 l 818 306 q 726 226 783 254 q 599 197 668 197 z "},"ª":{"ha":557,"x_min":128,"x_max":575,"o":"m 436 597 l 454 692 l 454 707 l 486 864 q 468 949 499 921 q 375 978 438 978 q 290 965 333 978 q 213 929 246 953 l 190 979 q 279 1021 226 1006 q 386 1036 332 1036 q 528 991 482 1036 q 557 857 575 946 l 506 597 l 436 597 m 282 593 q 168 624 208 593 q 128 704 128 656 q 152 781 128 749 q 220 828 176 813 q 324 844 264 844 l 493 844 l 485 796 l 324 796 q 231 774 264 796 q 197 711 197 753 q 299 644 197 644 q 392 665 351 644 q 460 725 432 686 l 467 683 q 397 619 442 644 q 282 593 353 593 z "},"«":{"ha":663,"x_min":69,"x_max":665,"o":"m 218 103 l 69 365 l 322 628 l 418 628 l 139 331 l 143 408 l 308 103 l 218 103 m 465 103 l 317 365 l 569 628 l 665 628 l 386 331 l 390 408 l 556 103 l 465 103 z "},"¬":{"ha":800,"x_min":113,"x_max":735,"o":"m 735 528 l 669 196 l 582 196 l 632 446 l 113 446 l 129 528 l 735 528 z "},"­":{"ha":531,"x_min":78,"x_max":458,"o":"m 78 333 l 94 419 l 458 419 l 442 333 l 78 333 z "},"®":{"ha":1124,"x_min":96,"x_max":1076,"o":"m 585 -4 q 392 33 481 -4 q 236 138 303 71 q 133 294 169 206 q 96 486 96 383 q 133 678 96 589 q 238 834 171 767 q 394 939 304 901 q 588 976 483 976 q 781 940 692 976 q 937 836 871 903 q 1040 681 1003 769 q 1076 489 1076 593 q 1039 295 1076 385 q 934 138 1001 206 q 778 33 867 71 q 585 -4 689 -4 m 765 206 l 624 422 l 699 422 l 840 206 l 765 206 m 585 47 q 758 81 678 47 q 897 175 838 115 q 990 316 957 235 q 1024 489 1024 397 q 991 661 1024 582 q 899 800 958 740 q 761 892 840 860 q 588 925 682 925 q 414 892 494 925 q 274 798 333 858 q 182 658 215 738 q 149 486 149 579 q 181 315 149 394 q 273 174 214 235 q 412 81 332 114 q 585 47 492 47 m 394 206 l 394 767 l 613 767 q 774 716 715 767 q 833 581 833 665 q 774 442 833 492 q 613 392 715 392 l 467 392 l 467 206 l 394 206 m 465 453 l 607 453 q 722 486 681 453 q 763 581 763 519 q 722 673 763 640 q 607 706 681 706 l 465 706 l 465 453 z "},"¯":{"ha":833,"x_min":308,"x_max":750,"o":"m 308 896 l 321 961 l 750 961 l 736 896 l 308 896 z "},"°":{"ha":582,"x_min":149,"x_max":592,"o":"m 371 539 q 258 569 308 539 q 178 648 207 599 q 149 760 149 697 q 178 871 149 821 q 258 950 207 921 q 371 979 308 979 q 483 950 433 979 q 563 871 533 921 q 592 760 592 821 q 563 649 592 699 q 483 569 533 599 q 371 539 433 539 m 371 597 q 453 619 417 597 q 510 678 489 642 q 531 760 531 714 q 510 842 531 806 q 453 900 489 879 q 371 921 417 921 q 288 900 325 921 q 231 842 251 879 q 210 760 210 806 q 231 677 210 714 q 288 619 251 640 q 371 597 325 597 z "},"±":{"ha":799,"x_min":24,"x_max":742,"o":"m 24 0 l 40 83 l 644 83 l 628 0 l 24 0 m 329 240 l 446 821 l 533 821 l 417 240 l 329 240 m 121 489 l 138 572 l 742 572 l 725 489 l 121 489 z "},"²":{"ha":597,"x_min":83,"x_max":596,"o":"m 83 454 l 93 503 l 400 725 q 476 789 450 763 q 513 838 503 815 q 522 883 522 860 q 487 949 522 925 q 386 972 451 972 q 284 956 329 972 q 204 908 239 939 l 160 950 q 260 1014 200 992 q 394 1036 321 1036 q 543 996 490 1036 q 596 889 596 956 q 585 828 596 858 q 543 765 575 799 q 450 688 511 732 l 178 489 l 154 517 l 551 517 l 539 454 l 83 454 z "},"³":{"ha":597,"x_min":79,"x_max":626,"o":"m 308 449 q 171 469 232 449 q 79 524 110 490 l 115 579 q 197 531 146 550 q 314 513 249 513 q 449 544 400 513 q 499 636 499 576 q 465 705 499 681 q 363 729 432 729 l 297 729 l 307 781 l 542 996 l 554 968 l 178 968 l 190 1031 l 626 1031 l 617 982 l 381 765 l 347 786 l 379 786 q 524 747 474 786 q 574 640 574 707 q 540 538 574 581 q 447 472 507 494 q 308 449 388 449 z "},"´":{"ha":833,"x_min":418,"x_max":764,"o":"m 418 843 l 629 1015 l 764 1015 l 521 843 l 418 843 z "},"µ":{"ha":942,"x_min":11,"x_max":876,"o":"m 11 -269 l 211 729 l 310 729 l 226 314 q 249 144 206 206 q 406 82 293 82 q 597 146 519 82 q 700 338 675 210 l 778 729 l 876 729 l 732 0 l 638 0 l 679 210 l 700 175 q 617 72 665 113 q 512 13 568 32 q 397 -7 456 -7 q 245 28 304 -7 q 163 135 186 63 l 200 176 l 110 -269 l 11 -269 z "},"¶":{"ha":878,"x_min":111,"x_max":851,"o":"m 213 -139 l 350 549 q 228 574 282 550 q 142 644 174 599 q 111 754 111 689 q 156 910 111 849 q 281 1001 201 971 q 463 1031 361 1031 l 851 1031 l 618 -139 l 535 -139 l 753 953 l 514 953 l 296 -139 l 213 -139 z "},"·":{"ha":350,"x_min":103,"x_max":251,"o":"m 175 300 q 124 322 144 300 q 103 372 103 343 q 126 429 103 407 q 181 451 150 451 q 231 432 211 451 q 251 381 251 413 q 241 339 251 357 q 213 310 231 321 q 175 300 196 300 z "},"¸":{"ha":833,"x_min":146,"x_max":436,"o":"m 263 -306 q 198 -297 228 -306 q 146 -274 168 -289 l 176 -221 q 219 -240 196 -233 q 269 -247 242 -247 q 340 -226 315 -247 q 364 -174 364 -206 q 344 -133 364 -147 q 288 -118 325 -118 l 257 -118 l 315 8 l 375 8 l 339 -71 q 410 -103 385 -78 q 436 -169 436 -129 q 388 -268 436 -231 q 263 -306 340 -306 z "},"¹":{"ha":597,"x_min":133,"x_max":540,"o":"m 304 468 l 411 1003 l 439 971 l 247 971 l 260 1031 l 492 1031 l 379 468 l 304 468 m 133 454 l 144 514 l 540 514 l 528 454 l 133 454 z "},"º":{"ha":576,"x_min":135,"x_max":619,"o":"m 349 593 q 237 617 285 593 q 162 685 189 642 q 135 785 135 728 q 170 914 135 857 q 267 1003 206 971 q 408 1036 329 1036 q 519 1013 472 1036 q 593 946 567 989 q 619 846 619 903 q 585 716 619 774 q 489 626 550 658 q 349 593 428 593 m 354 656 q 455 681 411 656 q 524 748 499 706 q 549 842 549 790 q 508 939 549 903 q 401 975 467 975 q 301 950 344 975 q 232 882 257 925 q 207 788 207 839 q 248 691 207 726 q 354 656 289 656 z "},"»":{"ha":664,"x_min":-1,"x_max":594,"o":"m 199 628 l 347 365 l 93 103 l -1 103 l 278 400 l 274 324 l 108 628 l 199 628 m 446 628 l 594 365 l 340 103 l 246 103 l 525 400 l 521 324 l 356 628 l 446 628 z "},"¼":{"ha":1429,"x_min":122,"x_max":1357,"o":"m 269 0 l 1121 972 l 1208 972 l 356 0 l 269 0 m 825 147 l 836 197 l 1193 576 l 1281 576 l 921 197 l 883 208 l 1357 208 l 1344 147 l 825 147 m 1119 0 l 1149 147 l 1167 208 l 1192 335 l 1260 335 l 1192 0 l 1119 0 z "},"½":{"ha":1429,"x_min":122,"x_max":1338,"o":"m 269 0 l 1121 972 l 1208 972 l 356 0 l 269 0 m 825 0 l 835 49 l 1142 271 q 1218 335 1192 308 q 1254 383 1244 361 q 1264 429 1264 406 q 1228 494 1264 471 q 1128 518 1193 518 q 1026 501 1071 518 q 946 454 981 485 l 901 496 q 1002 560 942 538 q 1136 582 1063 582 q 1285 542 1232 582 q 1338 435 1338 501 q 1327 374 1338 404 q 1285 311 1317 344 q 1192 233 1253 278 l 919 35 l 896 63 l 1293 63 l 1281 0 l 825 0 z "},"¾":{"ha":1429,"x_min":68,"x_max":1357,"o":"m 269 0 l 1121 972 l 1208 972 l 356 0 l 269 0 m 825 147 l 836 197 l 1193 576 l 1281 576 l 921 197 l 883 208 l 1357 208 l 1344 147 l 825 147 m 1119 0 l 1149 147 l 1167 208 l 1192 335 l 1260 335 l 1192 0 l 1119 0 z "},"¿":{"ha":788,"x_min":36,"x_max":683,"o":"m 321 -222 q 169 -197 233 -222 q 70 -124 104 -171 q 36 -10 36 -76 q 58 96 36 51 q 114 174 79 140 q 188 235 149 207 q 267 292 228 264 q 335 356 306 321 q 375 438 364 392 l 476 438 q 438 342 467 382 q 370 270 408 301 q 292 212 332 239 q 217 156 251 185 q 160 90 182 126 q 138 3 138 53 q 189 -97 138 -60 q 335 -135 240 -135 q 497 -106 428 -135 q 618 -22 565 -78 l 683 -82 q 531 -185 622 -149 q 321 -222 440 -222 m 469 593 q 419 613 439 593 q 399 661 399 633 q 409 699 399 682 q 436 726 419 717 q 474 736 453 736 q 524 717 504 736 q 543 669 543 697 q 522 615 543 638 q 469 593 500 593 z "},"À":{"ha":996,"x_min":-69,"x_max":921,"o":"m -69 0 l 569 972 l 671 972 l 921 0 l 818 0 l 590 915 l 632 915 l 42 0 l -69 0 m 157 260 l 204 343 l 769 343 l 785 260 l 157 260 z "},"Á":{"ha":996,"x_min":-69,"x_max":921,"o":"m -69 0 l 569 972 l 671 972 l 921 0 l 818 0 l 590 915 l 632 915 l 42 0 l -69 0 m 157 260 l 204 343 l 769 343 l 785 260 l 157 260 z "},"Â":{"ha":996,"x_min":-69,"x_max":921,"o":"m -69 0 l 569 972 l 671 972 l 921 0 l 818 0 l 590 915 l 632 915 l 42 0 l -69 0 m 157 260 l 204 343 l 769 343 l 785 260 l 157 260 z "},"Ã":{"ha":996,"x_min":-69,"x_max":921,"o":"m -69 0 l 569 972 l 671 972 l 921 0 l 818 0 l 590 915 l 632 915 l 42 0 l -69 0 m 157 260 l 204 343 l 769 343 l 785 260 l 157 260 z "},"Ä":{"ha":996,"x_min":-69,"x_max":921,"o":"m -69 0 l 569 972 l 671 972 l 921 0 l 818 0 l 590 915 l 632 915 l 42 0 l -69 0 m 157 260 l 204 343 l 769 343 l 785 260 l 157 260 z "},"Å":{"ha":996,"x_min":-69,"x_max":921,"o":"m -69 0 l 569 972 l 671 972 l 921 0 l 818 0 l 590 915 l 632 915 l 42 0 l -69 0 m 157 260 l 204 343 l 769 343 l 785 260 l 157 260 m 668 1069 q 594 1089 626 1069 q 542 1140 561 1108 q 524 1211 524 1172 q 542 1283 524 1250 q 594 1337 561 1317 q 668 1357 626 1357 q 742 1337 710 1357 q 794 1283 775 1317 q 813 1211 813 1250 q 794 1140 813 1172 q 742 1089 775 1108 q 668 1069 710 1069 m 668 1118 q 736 1145 710 1118 q 763 1211 763 1172 q 736 1280 763 1251 q 668 1308 710 1308 q 601 1281 628 1308 q 574 1211 574 1253 q 600 1144 574 1171 q 668 1118 626 1118 z "},"Æ":{"ha":1435,"x_min":-71,"x_max":1453,"o":"m -71 0 l 711 972 l 819 972 l 804 885 l 713 885 l 785 925 l 44 0 l -71 0 m 215 260 l 243 343 l 694 343 l 678 260 l 215 260 m 592 0 l 786 972 l 1453 972 l 1435 883 l 869 883 l 711 89 l 1296 89 l 1278 0 l 592 0 m 772 450 l 790 538 l 1304 538 l 1286 450 l 772 450 z "},"Ç":{"ha":999,"x_min":89,"x_max":1026,"o":"m 543 -8 q 297 42 399 -8 q 142 184 196 93 q 89 396 89 275 q 130 621 89 515 q 248 808 171 726 q 434 935 325 889 q 681 981 543 981 q 888 944 797 981 q 1026 839 978 908 l 954 775 q 839 860 908 832 q 672 889 769 889 q 473 851 563 889 q 321 744 383 813 q 224 588 258 676 q 190 400 190 500 q 231 235 190 307 q 353 124 272 164 q 550 83 433 83 q 724 113 646 83 q 860 199 801 142 l 919 131 q 757 27 856 63 q 543 -8 658 -8 m 421 -306 q 356 -297 386 -306 q 304 -274 326 -289 l 335 -221 q 377 -240 354 -233 q 428 -247 400 -247 q 498 -226 474 -247 q 522 -174 522 -206 q 503 -133 522 -147 q 446 -118 483 -118 l 415 -118 l 474 8 l 533 8 l 497 -71 q 569 -103 543 -78 q 594 -169 594 -129 q 547 -268 594 -231 q 421 -306 499 -306 z "},"È":{"ha":929,"x_min":86,"x_max":947,"o":"m 285 538 l 799 538 l 782 450 l 268 450 l 285 538 m 206 89 l 790 89 l 772 0 l 86 0 l 281 972 l 947 972 l 929 883 l 364 883 l 206 89 z "},"É":{"ha":929,"x_min":86,"x_max":947,"o":"m 285 538 l 799 538 l 782 450 l 268 450 l 285 538 m 206 89 l 790 89 l 772 0 l 86 0 l 281 972 l 947 972 l 929 883 l 364 883 l 206 89 z "},"Ê":{"ha":929,"x_min":86,"x_max":947,"o":"m 285 538 l 799 538 l 782 450 l 268 450 l 285 538 m 206 89 l 790 89 l 772 0 l 86 0 l 281 972 l 947 972 l 929 883 l 364 883 l 206 89 z "},"Ë":{"ha":929,"x_min":86,"x_max":947,"o":"m 285 538 l 799 538 l 782 450 l 268 450 l 285 538 m 206 89 l 790 89 l 772 0 l 86 0 l 281 972 l 947 972 l 929 883 l 364 883 l 206 89 z "},"Ì":{"ha":419,"x_min":86,"x_max":438,"o":"m 86 0 l 281 972 l 382 972 l 188 0 l 86 0 z "},"Í":{"ha":419,"x_min":86,"x_max":599,"o":"m 86 0 l 281 972 l 382 972 l 188 0 l 86 0 z "},"Î":{"ha":419,"x_min":86,"x_max":576,"o":"m 86 0 l 281 972 l 382 972 l 188 0 l 86 0 z "},"Ï":{"ha":419,"x_min":86,"x_max":549,"o":"m 86 0 l 281 972 l 382 972 l 188 0 l 86 0 z "},"Ð":{"ha":1154,"x_min":35,"x_max":1115,"o":"m 93 0 l 288 972 l 657 972 q 906 923 804 972 q 1062 785 1008 874 q 1115 576 1115 697 q 1073 342 1115 449 q 951 160 1031 236 q 760 42 871 83 q 511 0 649 0 l 93 0 m 213 89 l 514 89 q 780 151 668 89 q 952 323 892 214 q 1013 572 1013 432 q 972 735 1013 665 q 851 844 932 806 q 646 883 769 883 l 371 883 l 213 89 m 35 454 l 51 536 l 589 536 l 572 454 l 35 454 z "},"Ñ":{"ha":1129,"x_min":86,"x_max":1092,"o":"m 86 0 l 281 972 l 364 972 l 854 124 l 822 129 l 990 972 l 1092 972 l 897 0 l 814 0 l 324 849 l 356 843 l 188 0 l 86 0 z "},"Ò":{"ha":1165,"x_min":89,"x_max":1125,"o":"m 539 -8 q 294 42 396 -8 q 141 184 193 93 q 89 396 89 275 q 129 621 89 515 q 247 808 169 726 q 432 935 324 889 q 675 981 540 981 q 920 930 819 981 q 1073 788 1021 879 q 1125 576 1125 697 q 1085 351 1125 457 q 967 165 1044 246 q 782 38 890 83 q 539 -8 674 -8 m 549 83 q 744 122 657 83 q 894 228 832 160 q 990 384 957 296 q 1024 572 1024 472 q 983 738 1024 667 q 863 849 942 808 q 665 889 783 889 q 469 851 557 889 q 320 744 382 813 q 224 588 258 676 q 190 400 190 500 q 231 235 190 307 q 351 124 272 164 q 549 83 431 83 z "},"Ó":{"ha":1165,"x_min":89,"x_max":1125,"o":"m 539 -8 q 294 42 396 -8 q 141 184 193 93 q 89 396 89 275 q 129 621 89 515 q 247 808 169 726 q 432 935 324 889 q 675 981 540 981 q 920 930 819 981 q 1073 788 1021 879 q 1125 576 1125 697 q 1085 351 1125 457 q 967 165 1044 246 q 782 38 890 83 q 539 -8 674 -8 m 549 83 q 744 122 657 83 q 894 228 832 160 q 990 384 957 296 q 1024 572 1024 472 q 983 738 1024 667 q 863 849 942 808 q 665 889 783 889 q 469 851 557 889 q 320 744 382 813 q 224 588 258 676 q 190 400 190 500 q 231 235 190 307 q 351 124 272 164 q 549 83 431 83 z "},"Ô":{"ha":1165,"x_min":89,"x_max":1125,"o":"m 539 -8 q 294 42 396 -8 q 141 184 193 93 q 89 396 89 275 q 129 621 89 515 q 247 808 169 726 q 432 935 324 889 q 675 981 540 981 q 920 930 819 981 q 1073 788 1021 879 q 1125 576 1125 697 q 1085 351 1125 457 q 967 165 1044 246 q 782 38 890 83 q 539 -8 674 -8 m 549 83 q 744 122 657 83 q 894 228 832 160 q 990 384 957 296 q 1024 572 1024 472 q 983 738 1024 667 q 863 849 942 808 q 665 889 783 889 q 469 851 557 889 q 320 744 382 813 q 224 588 258 676 q 190 400 190 500 q 231 235 190 307 q 351 124 272 164 q 549 83 431 83 z "},"Õ":{"ha":1165,"x_min":89,"x_max":1125,"o":"m 539 -8 q 294 42 396 -8 q 141 184 193 93 q 89 396 89 275 q 129 621 89 515 q 247 808 169 726 q 432 935 324 889 q 675 981 540 981 q 920 930 819 981 q 1073 788 1021 879 q 1125 576 1125 697 q 1085 351 1125 457 q 967 165 1044 246 q 782 38 890 83 q 539 -8 674 -8 m 549 83 q 744 122 657 83 q 894 228 832 160 q 990 384 957 296 q 1024 572 1024 472 q 983 738 1024 667 q 863 849 942 808 q 665 889 783 889 q 469 851 557 889 q 320 744 382 813 q 224 588 258 676 q 190 400 190 500 q 231 235 190 307 q 351 124 272 164 q 549 83 431 83 z "},"Ö":{"ha":1165,"x_min":89,"x_max":1125,"o":"m 539 -8 q 294 42 396 -8 q 141 184 193 93 q 89 396 89 275 q 129 621 89 515 q 247 808 169 726 q 432 935 324 889 q 675 981 540 981 q 920 930 819 981 q 1073 788 1021 879 q 1125 576 1125 697 q 1085 351 1125 457 q 967 165 1044 246 q 782 38 890 83 q 539 -8 674 -8 m 549 83 q 744 122 657 83 q 894 228 832 160 q 990 384 957 296 q 1024 572 1024 472 q 983 738 1024 667 q 863 849 942 808 q 665 889 783 889 q 469 851 557 889 q 320 744 382 813 q 224 588 258 676 q 190 400 190 500 q 231 235 190 307 q 351 124 272 164 q 549 83 431 83 z "},"×":{"ha":799,"x_min":163,"x_max":685,"o":"m 163 303 l 633 731 l 685 669 l 214 242 l 163 303 m 207 674 l 268 731 l 639 299 l 579 242 l 207 674 z "},"Ø":{"ha":1165,"x_min":25,"x_max":1186,"o":"m 539 -8 q 294 42 396 -8 q 141 184 193 93 q 89 396 89 275 q 129 621 89 515 q 247 808 169 726 q 432 935 324 889 q 675 981 540 981 q 920 930 819 981 q 1073 788 1021 879 q 1125 576 1125 697 q 1085 351 1125 457 q 967 165 1044 246 q 782 38 890 83 q 539 -8 674 -8 m 549 83 q 744 122 657 83 q 894 228 832 160 q 990 384 957 296 q 1024 572 1024 472 q 983 738 1024 667 q 863 849 942 808 q 665 889 783 889 q 469 851 557 889 q 320 744 382 813 q 224 588 258 676 q 190 400 190 500 q 231 235 190 307 q 351 124 272 164 q 549 83 431 83 m 25 -97 l 1100 1069 l 1186 1069 l 113 -97 l 25 -97 z "},"Ù":{"ha":1100,"x_min":136,"x_max":1069,"o":"m 499 -8 q 281 46 365 -8 q 167 196 197 100 q 161 414 136 292 l 272 972 l 374 972 l 263 414 q 254 281 247 342 q 291 175 261 219 q 375 107 321 131 q 508 83 429 83 q 678 120 608 83 q 791 229 747 157 q 857 407 835 301 l 969 972 l 1069 972 l 956 400 q 802 96 917 200 q 499 -8 688 -8 z "},"Ú":{"ha":1100,"x_min":136,"x_max":1069,"o":"m 499 -8 q 281 46 365 -8 q 167 196 197 100 q 161 414 136 292 l 272 972 l 374 972 l 263 414 q 254 281 247 342 q 291 175 261 219 q 375 107 321 131 q 508 83 429 83 q 678 120 608 83 q 791 229 747 157 q 857 407 835 301 l 969 972 l 1069 972 l 956 400 q 802 96 917 200 q 499 -8 688 -8 z "},"Û":{"ha":1100,"x_min":136,"x_max":1069,"o":"m 499 -8 q 281 46 365 -8 q 167 196 197 100 q 161 414 136 292 l 272 972 l 374 972 l 263 414 q 254 281 247 342 q 291 175 261 219 q 375 107 321 131 q 508 83 429 83 q 678 120 608 83 q 791 229 747 157 q 857 407 835 301 l 969 972 l 1069 972 l 956 400 q 802 96 917 200 q 499 -8 688 -8 z "},"Ü":{"ha":1100,"x_min":136,"x_max":1069,"o":"m 499 -8 q 281 46 365 -8 q 167 196 197 100 q 161 414 136 292 l 272 972 l 374 972 l 263 414 q 254 281 247 342 q 291 175 261 219 q 375 107 321 131 q 508 83 429 83 q 678 120 608 83 q 791 229 747 157 q 857 407 835 301 l 969 972 l 1069 972 l 956 400 q 802 96 917 200 q 499 -8 688 -8 z "},"Ý":{"ha":882,"x_min":122,"x_max":1001,"o":"m 317 0 l 389 364 l 400 294 l 122 972 l 225 972 l 468 381 l 413 379 l 892 972 l 1001 972 l 456 293 l 490 364 l 418 0 l 317 0 z "},"Þ":{"ha":997,"x_min":86,"x_max":951,"o":"m 199 181 l 215 269 l 503 269 q 758 343 667 269 q 849 561 849 417 q 783 706 849 657 q 597 756 718 756 l 314 756 l 331 846 l 607 846 q 861 774 771 846 q 951 569 951 701 q 897 358 951 446 q 742 226 843 271 q 500 181 640 181 l 199 181 m 86 0 l 281 972 l 382 972 l 188 0 l 86 0 z "},"ß":{"ha":926,"x_min":64,"x_max":864,"o":"m 474 -7 q 385 0 431 -7 q 313 18 340 7 l 340 101 q 404 85 369 90 q 474 79 439 79 q 617 108 556 79 q 714 190 679 136 q 749 318 749 244 q 692 438 749 400 q 540 476 635 476 l 463 476 l 479 561 q 629 591 564 563 q 731 674 694 619 q 768 801 768 728 q 722 912 768 872 q 588 951 676 951 q 405 893 481 951 q 303 701 329 835 l 163 0 l 64 0 l 201 694 q 281 890 226 815 q 416 1001 336 965 q 594 1038 496 1038 q 738 1010 678 1038 q 831 931 799 982 q 864 810 864 881 q 821 654 864 724 q 703 544 778 585 q 533 504 629 504 l 576 547 q 718 522 657 547 q 814 446 779 496 q 849 322 849 396 q 800 148 849 222 q 667 33 751 74 q 474 -7 582 -7 z "},"à":{"ha":942,"x_min":58,"x_max":878,"o":"m 376 -7 q 211 31 283 -7 q 99 138 139 68 q 58 303 58 207 q 89 475 58 396 q 175 613 119 554 q 306 704 231 672 q 471 736 382 736 q 633 702 567 736 q 736 603 700 668 q 772 447 772 539 q 724 213 772 315 q 586 51 675 110 q 376 -7 497 -7 m 397 81 q 560 124 489 81 q 673 246 632 168 q 714 422 714 324 q 651 590 714 531 q 474 650 588 650 q 311 606 383 650 q 198 484 239 561 q 157 307 157 407 q 220 140 157 200 q 397 81 283 81 m 638 0 l 679 210 l 721 357 l 735 510 l 779 729 l 878 729 l 732 0 l 638 0 m 544 843 l 354 1015 l 485 1015 l 643 843 l 544 843 z "},"á":{"ha":942,"x_min":58,"x_max":878,"o":"m 376 -7 q 211 31 283 -7 q 99 138 139 68 q 58 303 58 207 q 89 475 58 396 q 175 613 119 554 q 306 704 231 672 q 471 736 382 736 q 633 702 567 736 q 736 603 700 668 q 772 447 772 539 q 724 213 772 315 q 586 51 675 110 q 376 -7 497 -7 m 397 81 q 560 124 489 81 q 673 246 632 168 q 714 422 714 324 q 651 590 714 531 q 474 650 588 650 q 311 606 383 650 q 198 484 239 561 q 157 307 157 407 q 220 140 157 200 q 397 81 283 81 m 638 0 l 679 210 l 721 357 l 735 510 l 779 729 l 878 729 l 732 0 l 638 0 m 458 843 l 669 1015 l 804 1015 l 561 843 l 458 843 z "},"â":{"ha":942,"x_min":58,"x_max":878,"o":"m 376 -7 q 211 31 283 -7 q 99 138 139 68 q 58 303 58 207 q 89 475 58 396 q 175 613 119 554 q 306 704 231 672 q 471 736 382 736 q 633 702 567 736 q 736 603 700 668 q 772 447 772 539 q 724 213 772 315 q 586 51 675 110 q 376 -7 497 -7 m 397 81 q 560 124 489 81 q 673 246 632 168 q 714 422 714 324 q 651 590 714 531 q 474 650 588 650 q 311 606 383 650 q 198 484 239 561 q 157 307 157 407 q 220 140 157 200 q 397 81 283 81 m 638 0 l 679 210 l 721 357 l 735 510 l 779 729 l 878 729 l 732 0 l 638 0 m 324 843 l 522 1015 l 622 1015 l 782 843 l 693 843 l 532 990 l 610 990 l 418 843 l 324 843 z "},"ã":{"ha":942,"x_min":58,"x_max":878,"o":"m 376 -7 q 211 31 283 -7 q 99 138 139 68 q 58 303 58 207 q 89 475 58 396 q 175 613 119 554 q 306 704 231 672 q 471 736 382 736 q 633 702 567 736 q 736 603 700 668 q 772 447 772 539 q 724 213 772 315 q 586 51 675 110 q 376 -7 497 -7 m 397 81 q 560 124 489 81 q 673 246 632 168 q 714 422 714 324 q 651 590 714 531 q 474 650 588 650 q 311 606 383 650 q 198 484 239 561 q 157 307 157 407 q 220 140 157 200 q 397 81 283 81 m 638 0 l 679 210 l 721 357 l 735 510 l 779 729 l 878 729 l 732 0 l 638 0 m 660 851 q 603 865 628 851 q 560 898 579 879 q 521 931 540 917 q 478 946 501 946 q 426 922 447 946 q 399 857 406 897 l 339 857 q 388 969 350 929 q 479 1010 425 1010 q 535 995 511 1010 q 579 962 560 981 q 618 929 599 943 q 660 915 638 915 q 713 940 692 915 q 740 1001 735 964 l 800 1001 q 752 892 789 932 q 660 851 715 851 z "},"ä":{"ha":942,"x_min":58,"x_max":878,"o":"m 376 -7 q 211 31 283 -7 q 99 138 139 68 q 58 303 58 207 q 89 475 58 396 q 175 613 119 554 q 306 704 231 672 q 471 736 382 736 q 633 702 567 736 q 736 603 700 668 q 772 447 772 539 q 724 213 772 315 q 586 51 675 110 q 376 -7 497 -7 m 397 81 q 560 124 489 81 q 673 246 632 168 q 714 422 714 324 q 651 590 714 531 q 474 650 588 650 q 311 606 383 650 q 198 484 239 561 q 157 307 157 407 q 220 140 157 200 q 397 81 283 81 m 638 0 l 679 210 l 721 357 l 735 510 l 779 729 l 878 729 l 732 0 l 638 0 m 690 875 q 651 890 667 875 q 635 928 635 906 q 653 976 635 957 q 697 994 672 994 q 738 979 721 994 q 754 939 754 964 q 735 893 754 911 q 690 875 717 875 m 443 875 q 403 890 419 875 q 386 928 386 906 q 406 976 386 957 q 449 994 425 994 q 490 979 474 994 q 506 939 506 964 q 487 893 506 911 q 443 875 468 875 z "},"å":{"ha":942,"x_min":58,"x_max":878,"o":"m 376 -7 q 211 31 283 -7 q 99 138 139 68 q 58 303 58 207 q 89 475 58 396 q 175 613 119 554 q 306 704 231 672 q 471 736 382 736 q 633 702 567 736 q 736 603 700 668 q 772 447 772 539 q 724 213 772 315 q 586 51 675 110 q 376 -7 497 -7 m 397 81 q 560 124 489 81 q 673 246 632 168 q 714 422 714 324 q 651 590 714 531 q 474 650 588 650 q 311 606 383 650 q 198 484 239 561 q 157 307 157 407 q 220 140 157 200 q 397 81 283 81 m 638 0 l 679 210 l 721 357 l 735 510 l 779 729 l 878 729 l 732 0 l 638 0 m 578 826 q 503 846 536 826 q 452 897 471 865 q 433 968 433 929 q 452 1040 433 1007 q 503 1094 471 1074 q 578 1114 536 1114 q 652 1094 619 1114 q 703 1040 685 1074 q 722 968 722 1007 q 703 897 722 929 q 652 846 685 865 q 578 826 619 826 m 578 875 q 646 902 619 875 q 672 968 672 929 q 646 1037 672 1008 q 578 1065 619 1065 q 510 1038 538 1065 q 483 968 483 1010 q 510 901 483 928 q 578 875 536 875 z "},"æ":{"ha":1371,"x_min":44,"x_max":1314,"o":"m 304 -7 q 164 17 222 -7 q 75 83 106 40 q 44 186 44 126 q 124 351 44 289 q 354 413 203 413 l 608 413 l 597 339 l 347 339 q 195 300 249 339 q 142 192 142 261 q 184 102 142 133 q 314 71 226 71 q 428 94 375 71 q 519 163 482 117 q 571 279 557 210 l 606 450 q 583 599 626 547 q 432 650 539 650 q 294 626 361 650 q 181 565 228 603 l 147 643 q 237 694 188 674 q 340 726 286 715 q 446 736 393 736 q 638 681 575 736 q 700 525 701 625 l 651 533 q 740 644 688 599 q 858 713 793 689 q 993 736 924 736 q 1162 699 1090 736 q 1274 593 1233 663 q 1314 426 1314 524 q 1311 381 1314 404 q 1303 339 1308 358 l 661 339 l 674 413 l 1257 413 l 1214 383 q 1202 531 1228 471 q 1121 622 1176 590 q 989 653 1065 653 q 832 609 901 653 q 723 488 763 565 q 683 308 683 411 q 747 138 683 194 q 936 81 811 81 q 1072 105 1013 81 q 1174 172 1132 129 l 1219 101 q 1090 22 1167 50 q 928 -7 1013 -7 q 772 21 842 -7 q 656 106 701 49 q 599 250 611 164 l 651 247 q 572 99 626 154 q 449 18 518 43 q 304 -7 379 -7 z "},"ç":{"ha":782,"x_min":58,"x_max":771,"o":"m 396 -7 q 216 31 292 -7 q 99 139 140 69 q 58 303 58 208 q 113 526 58 428 q 263 680 167 624 q 483 736 360 736 q 658 699 585 736 q 771 590 731 663 l 688 542 q 603 624 657 597 q 475 650 550 650 q 311 606 383 650 q 198 484 239 561 q 157 307 157 407 q 220 140 157 200 q 400 81 283 81 q 531 108 471 81 q 631 186 592 135 l 701 132 q 572 30 654 67 q 396 -7 490 -7 m 307 -307 q 242 -299 272 -307 q 190 -275 213 -290 l 221 -222 q 263 -242 240 -235 q 314 -249 286 -249 q 384 -228 360 -249 q 408 -175 408 -207 q 389 -134 408 -149 q 332 -119 369 -119 l 301 -119 l 360 7 l 419 7 l 383 -72 q 455 -105 429 -79 q 481 -171 481 -131 q 433 -269 481 -232 q 307 -307 385 -307 z "},"è":{"ha":839,"x_min":58,"x_max":781,"o":"m 399 -7 q 217 31 294 -7 q 99 139 140 69 q 58 304 58 208 q 111 526 58 429 q 256 680 164 624 q 463 736 347 736 q 631 699 560 736 q 741 593 701 663 q 781 426 781 524 q 778 381 781 404 q 771 338 775 358 l 131 338 l 143 411 l 725 411 l 685 383 q 672 531 699 471 q 591 622 646 590 q 460 653 536 653 q 301 609 371 653 q 193 488 232 565 q 154 308 154 411 q 217 140 154 199 q 407 81 281 81 q 543 105 481 81 q 646 172 606 129 l 690 101 q 562 22 639 50 q 399 -7 485 -7 m 499 842 l 308 1014 l 439 1014 l 597 842 l 499 842 z "},"é":{"ha":839,"x_min":58,"x_max":781,"o":"m 399 -7 q 217 31 294 -7 q 99 139 140 69 q 58 304 58 208 q 111 526 58 429 q 256 680 164 624 q 463 736 347 736 q 631 699 560 736 q 741 593 701 663 q 781 426 781 524 q 778 381 781 404 q 771 338 775 358 l 131 338 l 143 411 l 725 411 l 685 383 q 672 531 699 471 q 591 622 646 590 q 460 653 536 653 q 301 609 371 653 q 193 488 232 565 q 154 308 154 411 q 217 140 154 199 q 407 81 281 81 q 543 105 481 81 q 646 172 606 129 l 690 101 q 562 22 639 50 q 399 -7 485 -7 m 413 842 l 624 1014 l 758 1014 l 515 842 l 413 842 z "},"ê":{"ha":839,"x_min":58,"x_max":781,"o":"m 399 -7 q 217 31 294 -7 q 99 139 140 69 q 58 304 58 208 q 111 526 58 429 q 256 680 164 624 q 463 736 347 736 q 631 699 560 736 q 741 593 701 663 q 781 426 781 524 q 778 381 781 404 q 771 338 775 358 l 131 338 l 143 411 l 725 411 l 685 383 q 672 531 699 471 q 591 622 646 590 q 460 653 536 653 q 301 609 371 653 q 193 488 232 565 q 154 308 154 411 q 217 140 154 199 q 407 81 281 81 q 543 105 481 81 q 646 172 606 129 l 690 101 q 562 22 639 50 q 399 -7 485 -7 m 278 842 l 476 1014 l 576 1014 l 736 842 l 647 842 l 486 989 l 564 989 l 372 842 l 278 842 z "},"ë":{"ha":839,"x_min":58,"x_max":781,"o":"m 399 -7 q 217 31 294 -7 q 99 139 140 69 q 58 304 58 208 q 111 526 58 429 q 256 680 164 624 q 463 736 347 736 q 631 699 560 736 q 741 593 701 663 q 781 426 781 524 q 778 381 781 404 q 771 338 775 358 l 131 338 l 143 411 l 725 411 l 685 383 q 672 531 699 471 q 591 622 646 590 q 460 653 536 653 q 301 609 371 653 q 193 488 232 565 q 154 308 154 411 q 217 140 154 199 q 407 81 281 81 q 543 105 481 81 q 646 172 606 129 l 690 101 q 562 22 639 50 q 399 -7 485 -7 m 644 874 q 605 889 621 874 q 589 926 589 904 q 608 974 589 956 q 651 993 626 993 q 692 978 675 993 q 708 938 708 963 q 690 892 708 910 q 644 874 671 874 m 397 874 q 357 889 374 874 q 340 926 340 904 q 360 974 340 956 q 403 993 379 993 q 444 978 428 993 q 460 938 460 963 q 441 892 460 910 q 397 874 422 874 z "},"ì":{"ha":374,"x_min":65,"x_max":374,"o":"m 65 0 l 210 729 l 308 729 l 164 0 l 65 0 m 275 843 l 85 1015 l 215 1015 l 374 843 l 275 843 z "},"í":{"ha":374,"x_min":65,"x_max":535,"o":"m 65 0 l 210 729 l 308 729 l 164 0 l 65 0 m 189 843 l 400 1015 l 535 1015 l 292 843 l 189 843 z "},"î":{"ha":374,"x_min":65,"x_max":478,"o":"m 65 0 l 210 729 l 308 729 l 164 0 l 65 0 m 89 843 l 256 1015 l 351 1015 l 478 843 l 392 843 l 269 990 l 335 990 l 179 843 l 89 843 z "},"ï":{"ha":374,"x_min":65,"x_max":450,"o":"m 65 0 l 210 729 l 308 729 l 164 0 l 65 0 m 389 875 q 350 890 365 875 q 335 928 335 906 q 353 975 335 956 q 397 994 371 994 q 435 979 419 994 q 450 939 450 964 q 433 894 450 913 q 389 875 415 875 m 204 875 q 165 890 181 875 q 150 928 150 906 q 168 975 150 956 q 213 994 186 994 q 251 978 236 994 q 265 939 265 963 q 248 893 265 911 q 204 875 231 875 z "},"ð":{"ha":879,"x_min":50,"x_max":878,"o":"m 361 -8 q 199 25 268 -8 q 90 119 129 58 q 50 260 50 181 q 100 442 50 364 q 238 563 150 519 q 440 606 326 606 q 592 574 526 606 q 694 483 658 542 q 729 346 731 425 l 685 324 q 735 469 719 388 q 750 619 750 550 q 670 840 750 767 q 447 913 590 913 q 347 906 399 913 q 254 883 294 899 l 251 968 q 347 990 293 982 q 454 997 401 997 q 663 954 574 997 q 801 827 751 911 q 850 621 850 743 q 830 436 850 526 q 769 265 810 346 q 670 123 729 185 q 533 26 611 61 q 361 -8 456 -8 m 369 76 q 478 95 425 76 q 574 149 532 114 q 640 230 615 183 q 664 331 664 276 q 605 471 664 419 q 443 522 546 522 q 289 490 356 522 q 185 401 222 458 q 147 267 147 344 q 206 127 147 178 q 369 76 264 76 m 288 686 l 263 754 l 851 986 l 878 918 l 288 686 z "},"ñ":{"ha":939,"x_min":65,"x_max":840,"o":"m 567 736 q 728 698 665 736 q 816 588 792 660 q 819 415 840 515 l 736 0 l 638 0 l 721 417 q 698 586 743 525 q 539 647 653 647 q 345 583 422 647 q 242 392 268 519 l 164 0 l 65 0 l 210 729 l 304 729 l 263 519 l 242 556 q 378 693 294 650 q 567 736 463 736 m 675 851 q 619 865 643 851 q 575 898 594 879 q 536 931 556 917 q 493 946 517 946 q 442 922 463 946 q 414 857 421 897 l 354 857 q 403 969 365 929 q 494 1010 440 1010 q 551 995 526 1010 q 594 962 575 981 q 633 929 614 943 q 675 915 653 915 q 728 940 707 915 q 756 1001 750 964 l 815 1001 q 767 892 804 932 q 675 851 731 851 z "},"ò":{"ha":871,"x_min":58,"x_max":813,"o":"m 390 -7 q 215 31 289 -7 q 99 139 140 69 q 58 303 58 208 q 113 526 58 428 q 263 680 167 624 q 481 736 358 736 q 656 699 582 736 q 772 592 731 661 q 813 428 813 522 q 758 205 813 303 q 609 50 704 107 q 390 -7 514 -7 m 397 81 q 560 124 489 81 q 673 246 632 168 q 714 422 714 324 q 651 590 714 531 q 474 650 588 650 q 311 606 383 650 q 198 484 239 561 q 157 307 157 407 q 220 140 157 200 q 397 81 283 81 m 521 843 l 331 1015 l 461 1015 l 619 843 l 521 843 z "},"ó":{"ha":871,"x_min":58,"x_max":813,"o":"m 390 -7 q 215 31 289 -7 q 99 139 140 69 q 58 303 58 208 q 113 526 58 428 q 263 680 167 624 q 481 736 358 736 q 656 699 582 736 q 772 592 731 661 q 813 428 813 522 q 758 205 813 303 q 609 50 704 107 q 390 -7 514 -7 m 397 81 q 560 124 489 81 q 673 246 632 168 q 714 422 714 324 q 651 590 714 531 q 474 650 588 650 q 311 606 383 650 q 198 484 239 561 q 157 307 157 407 q 220 140 157 200 q 397 81 283 81 m 435 843 l 646 1015 l 781 1015 l 538 843 l 435 843 z "},"ô":{"ha":871,"x_min":58,"x_max":813,"o":"m 390 -7 q 215 31 289 -7 q 99 139 140 69 q 58 303 58 208 q 113 526 58 428 q 263 680 167 624 q 481 736 358 736 q 656 699 582 736 q 772 592 731 661 q 813 428 813 522 q 758 205 813 303 q 609 50 704 107 q 390 -7 514 -7 m 397 81 q 560 124 489 81 q 673 246 632 168 q 714 422 714 324 q 651 590 714 531 q 474 650 588 650 q 311 606 383 650 q 198 484 239 561 q 157 307 157 407 q 220 140 157 200 q 397 81 283 81 m 300 843 l 499 1015 l 599 1015 l 758 843 l 669 843 l 508 990 l 586 990 l 394 843 l 300 843 z "},"õ":{"ha":871,"x_min":58,"x_max":813,"o":"m 390 -7 q 215 31 289 -7 q 99 139 140 69 q 58 303 58 208 q 113 526 58 428 q 263 680 167 624 q 481 736 358 736 q 656 699 582 736 q 772 592 731 661 q 813 428 813 522 q 758 205 813 303 q 609 50 704 107 q 390 -7 514 -7 m 397 81 q 560 124 489 81 q 673 246 632 168 q 714 422 714 324 q 651 590 714 531 q 474 650 588 650 q 311 606 383 650 q 198 484 239 561 q 157 307 157 407 q 220 140 157 200 q 397 81 283 81 m 636 851 q 580 865 604 851 q 536 898 556 879 q 497 931 517 917 q 454 946 478 946 q 403 922 424 946 q 375 857 382 897 l 315 857 q 364 969 326 929 q 456 1010 401 1010 q 512 995 488 1010 q 556 962 536 981 q 594 929 575 943 q 636 915 614 915 q 690 940 668 915 q 717 1001 711 964 l 776 1001 q 728 892 765 932 q 636 851 692 851 z "},"ö":{"ha":871,"x_min":58,"x_max":813,"o":"m 390 -7 q 215 31 289 -7 q 99 139 140 69 q 58 303 58 208 q 113 526 58 428 q 263 680 167 624 q 481 736 358 736 q 656 699 582 736 q 772 592 731 661 q 813 428 813 522 q 758 205 813 303 q 609 50 704 107 q 390 -7 514 -7 m 397 81 q 560 124 489 81 q 673 246 632 168 q 714 422 714 324 q 651 590 714 531 q 474 650 588 650 q 311 606 383 650 q 198 484 239 561 q 157 307 157 407 q 220 140 157 200 q 397 81 283 81 m 667 875 q 627 890 643 875 q 611 928 611 906 q 630 976 611 957 q 674 994 649 994 q 714 979 697 994 q 731 939 731 964 q 712 893 731 911 q 667 875 693 875 m 419 875 q 379 890 396 875 q 363 928 363 906 q 382 976 363 957 q 425 994 401 994 q 466 979 450 994 q 482 939 482 964 q 463 893 482 911 q 419 875 444 875 z "},"÷":{"ha":799,"x_min":113,"x_max":735,"o":"m 113 444 l 129 526 l 735 526 l 718 444 l 113 444 m 367 153 q 323 172 342 153 q 304 217 304 190 q 325 268 304 249 q 374 288 346 288 q 418 270 400 288 q 436 225 436 253 q 416 174 436 194 q 367 153 396 153 m 472 685 q 428 703 447 685 q 410 747 410 721 q 431 799 410 779 q 479 819 451 819 q 524 802 506 819 q 542 757 542 785 q 522 706 542 726 q 472 685 501 685 z "},"ø":{"ha":871,"x_min":0,"x_max":867,"o":"m 390 -7 q 215 31 289 -7 q 99 139 140 69 q 58 303 58 208 q 113 526 58 428 q 263 680 167 624 q 481 736 358 736 q 656 699 582 736 q 772 592 731 661 q 813 428 813 522 q 758 205 813 303 q 609 50 704 107 q 390 -7 514 -7 m 397 81 q 560 124 489 81 q 673 246 632 168 q 714 422 714 324 q 651 590 714 531 q 474 650 588 650 q 311 606 383 650 q 198 484 239 561 q 157 307 157 407 q 220 140 157 200 q 397 81 283 81 m 0 -97 l 796 826 l 867 826 l 71 -97 l 0 -97 z "},"ù":{"ha":933,"x_min":101,"x_max":869,"o":"m 371 -7 q 212 32 275 -7 q 125 143 149 71 q 119 314 101 215 l 203 729 l 301 729 l 218 314 q 242 144 197 206 q 397 82 286 82 q 590 146 513 82 q 693 338 667 210 l 771 729 l 869 729 l 724 0 l 629 0 l 671 210 l 692 175 q 556 37 640 81 q 371 -7 472 -7 m 551 843 l 361 1015 l 492 1015 l 650 843 l 551 843 z "},"ú":{"ha":933,"x_min":101,"x_max":869,"o":"m 371 -7 q 212 32 275 -7 q 125 143 149 71 q 119 314 101 215 l 203 729 l 301 729 l 218 314 q 242 144 197 206 q 397 82 286 82 q 590 146 513 82 q 693 338 667 210 l 771 729 l 869 729 l 724 0 l 629 0 l 671 210 l 692 175 q 556 37 640 81 q 371 -7 472 -7 m 465 843 l 676 1015 l 811 1015 l 568 843 l 465 843 z "},"û":{"ha":933,"x_min":101,"x_max":869,"o":"m 371 -7 q 212 32 275 -7 q 125 143 149 71 q 119 314 101 215 l 203 729 l 301 729 l 218 314 q 242 144 197 206 q 397 82 286 82 q 590 146 513 82 q 693 338 667 210 l 771 729 l 869 729 l 724 0 l 629 0 l 671 210 l 692 175 q 556 37 640 81 q 371 -7 472 -7 m 331 843 l 529 1015 l 629 1015 l 789 843 l 700 843 l 539 990 l 617 990 l 425 843 l 331 843 z "},"ü":{"ha":933,"x_min":101,"x_max":869,"o":"m 371 -7 q 212 32 275 -7 q 125 143 149 71 q 119 314 101 215 l 203 729 l 301 729 l 218 314 q 242 144 197 206 q 397 82 286 82 q 590 146 513 82 q 693 338 667 210 l 771 729 l 869 729 l 724 0 l 629 0 l 671 210 l 692 175 q 556 37 640 81 q 371 -7 472 -7 m 697 875 q 658 890 674 875 q 642 928 642 906 q 660 976 642 957 q 704 994 679 994 q 744 979 728 994 q 761 939 761 964 q 742 893 761 911 q 697 875 724 875 m 450 875 q 410 890 426 875 q 393 928 393 906 q 413 976 393 957 q 456 994 432 994 q 497 979 481 994 q 513 939 513 964 q 494 893 513 911 q 450 875 475 875 z "},"ý":{"ha":753,"x_min":-146,"x_max":825,"o":"m 28 -276 q -71 -259 -24 -276 q -146 -211 -118 -242 l -93 -139 q -37 -178 -69 -164 q 35 -192 -6 -192 q 122 -166 82 -192 q 204 -74 161 -140 l 278 39 l 290 53 l 724 729 l 825 729 l 292 -94 q 206 -203 246 -164 q 123 -260 165 -243 q 28 -276 81 -276 m 261 -21 l 74 729 l 174 729 l 338 60 l 261 -21 m 358 843 l 569 1015 l 704 1015 l 461 843 l 358 843 z "},"þ":{"ha":942,"x_min":11,"x_max":885,"o":"m 11 -269 l 271 1031 l 369 1031 l 267 519 l 222 374 l 207 222 l 110 -269 l 11 -269 m 471 -7 q 309 27 376 -7 q 206 126 242 61 q 169 282 171 190 q 218 519 169 417 q 356 678 267 621 q 565 736 444 736 q 731 699 660 736 q 844 593 803 663 q 885 428 885 524 q 854 254 885 333 q 767 117 824 175 q 636 26 711 58 q 471 -7 561 -7 m 469 81 q 632 124 561 81 q 744 246 703 168 q 785 422 785 324 q 722 590 785 531 q 544 650 660 650 q 383 606 454 650 q 270 484 311 561 q 229 307 229 407 q 292 140 229 200 q 469 81 354 81 z "},"ÿ":{"ha":753,"x_min":-146,"x_max":825,"o":"m 28 -276 q -71 -259 -24 -276 q -146 -211 -118 -242 l -93 -139 q -37 -178 -69 -164 q 35 -192 -6 -192 q 122 -166 82 -192 q 204 -74 161 -140 l 278 39 l 290 53 l 724 729 l 825 729 l 292 -94 q 206 -203 246 -164 q 123 -260 165 -243 q 28 -276 81 -276 m 261 -21 l 74 729 l 174 729 l 338 60 l 261 -21 m 590 875 q 551 890 567 875 q 535 928 535 906 q 553 976 535 957 q 597 994 572 994 q 638 979 621 994 q 654 939 654 964 q 635 893 654 911 q 590 875 617 875 m 343 875 q 303 890 319 875 q 286 928 286 906 q 306 976 286 957 q 349 994 325 994 q 390 979 374 994 q 406 939 406 964 q 387 893 406 911 q 343 875 368 875 z "},"Ā":{"ha":996,"x_min":-69,"x_max":921,"o":"m -69 0 l 569 972 l 671 972 l 921 0 l 818 0 l 590 915 l 632 915 l 42 0 l -69 0 m 157 260 l 204 343 l 769 343 l 785 260 l 157 260 z "},"ā":{"ha":942,"x_min":58,"x_max":878,"o":"m 376 -7 q 211 31 283 -7 q 99 138 139 68 q 58 303 58 207 q 89 475 58 396 q 175 613 119 554 q 306 704 231 672 q 471 736 382 736 q 633 702 567 736 q 736 603 700 668 q 772 447 772 539 q 724 213 772 315 q 586 51 675 110 q 376 -7 497 -7 m 397 81 q 560 124 489 81 q 673 246 632 168 q 714 422 714 324 q 651 590 714 531 q 474 650 588 650 q 311 606 383 650 q 198 484 239 561 q 157 307 157 407 q 220 140 157 200 q 397 81 283 81 m 638 0 l 679 210 l 721 357 l 735 510 l 779 729 l 878 729 l 732 0 l 638 0 m 349 896 l 361 961 l 790 961 l 776 896 l 349 896 z "},"Ă":{"ha":996,"x_min":-69,"x_max":921,"o":"m -69 0 l 569 972 l 671 972 l 921 0 l 818 0 l 590 915 l 632 915 l 42 0 l -69 0 m 157 260 l 204 343 l 769 343 l 785 260 l 157 260 z "},"ă":{"ha":942,"x_min":58,"x_max":878,"o":"m 376 -7 q 211 31 283 -7 q 99 138 139 68 q 58 303 58 207 q 89 475 58 396 q 175 613 119 554 q 306 704 231 672 q 471 736 382 736 q 633 702 567 736 q 736 603 700 668 q 772 447 772 539 q 724 213 772 315 q 586 51 675 110 q 376 -7 497 -7 m 397 81 q 560 124 489 81 q 673 246 632 168 q 714 422 714 324 q 651 590 714 531 q 474 650 588 650 q 311 606 383 650 q 198 484 239 561 q 157 307 157 407 q 220 140 157 200 q 397 81 283 81 m 638 0 l 679 210 l 721 357 l 735 510 l 779 729 l 878 729 l 732 0 l 638 0 m 567 836 q 464 858 510 836 q 394 920 418 881 q 374 1015 369 960 l 442 1015 q 475 929 439 961 q 572 897 511 897 q 674 928 631 897 q 725 1015 717 960 l 797 1015 q 719 884 783 932 q 567 836 654 836 z "},"Ą":{"ha":996,"x_min":-69,"x_max":921,"o":"m -69 0 l 569 972 l 671 972 l 921 0 l 818 0 l 590 915 l 632 915 l 42 0 l -69 0 m 157 260 l 204 343 l 769 343 l 785 260 l 157 260 m 775 -306 q 678 -276 715 -306 q 640 -192 640 -246 q 667 -105 640 -146 q 746 -27 693 -64 q 878 40 799 10 l 919 0 q 807 -55 853 -25 q 738 -115 761 -85 q 715 -181 715 -146 q 735 -228 715 -211 q 789 -244 756 -244 q 839 -237 814 -244 q 883 -218 864 -231 l 899 -272 q 842 -297 872 -287 q 775 -306 811 -306 z "},"ą":{"ha":942,"x_min":58,"x_max":878,"o":"m 376 -7 q 211 31 283 -7 q 99 138 139 68 q 58 303 58 207 q 89 475 58 396 q 175 613 119 554 q 306 704 231 672 q 471 736 382 736 q 633 702 567 736 q 736 603 700 668 q 772 447 772 539 q 724 213 772 315 q 586 51 675 110 q 376 -7 497 -7 m 397 81 q 560 124 489 81 q 673 246 632 168 q 714 422 714 324 q 651 590 714 531 q 474 650 588 650 q 311 606 383 650 q 198 484 239 561 q 157 307 157 407 q 220 140 157 200 q 397 81 283 81 m 638 0 l 679 210 l 721 357 l 735 510 l 779 729 l 878 729 l 732 0 l 638 0 m 586 -306 q 489 -276 526 -306 q 451 -192 451 -246 q 478 -105 451 -146 q 557 -27 504 -64 q 689 40 610 10 l 731 0 q 618 -55 664 -25 q 549 -115 572 -85 q 526 -181 526 -146 q 547 -228 526 -211 q 600 -244 567 -244 q 650 -237 625 -244 q 694 -218 675 -231 l 710 -272 q 653 -297 683 -287 q 586 -306 622 -306 z "},"Ć":{"ha":999,"x_min":89,"x_max":1026,"o":"m 543 -8 q 297 42 399 -8 q 142 184 196 93 q 89 396 89 275 q 130 621 89 515 q 248 808 171 726 q 434 935 325 889 q 681 981 543 981 q 888 944 797 981 q 1026 839 978 908 l 954 775 q 839 860 908 832 q 672 889 769 889 q 473 851 563 889 q 321 744 383 813 q 224 588 258 676 q 190 400 190 500 q 231 235 190 307 q 353 124 272 164 q 550 83 433 83 q 724 113 646 83 q 860 199 801 142 l 919 131 q 757 27 856 63 q 543 -8 658 -8 z "},"ć":{"ha":782,"x_min":58,"x_max":771,"o":"m 396 -7 q 216 31 292 -7 q 99 139 140 69 q 58 303 58 208 q 113 526 58 428 q 263 680 167 624 q 483 736 360 736 q 658 699 585 736 q 771 590 731 663 l 688 542 q 603 624 657 597 q 475 650 550 650 q 311 606 383 650 q 198 484 239 561 q 157 307 157 407 q 220 140 157 200 q 400 81 283 81 q 531 108 471 81 q 631 186 592 135 l 701 132 q 572 30 654 67 q 396 -7 490 -7 m 415 843 l 626 1015 l 761 1015 l 518 843 l 415 843 z "},"Ĉ":{"ha":999,"x_min":89,"x_max":1026,"o":"m 543 -8 q 297 42 399 -8 q 142 184 196 93 q 89 396 89 275 q 130 621 89 515 q 248 808 171 726 q 434 935 325 889 q 681 981 543 981 q 888 944 797 981 q 1026 839 978 908 l 954 775 q 839 860 908 832 q 672 889 769 889 q 473 851 563 889 q 321 744 383 813 q 224 588 258 676 q 190 400 190 500 q 231 235 190 307 q 353 124 272 164 q 550 83 433 83 q 724 113 646 83 q 860 199 801 142 l 919 131 q 757 27 856 63 q 543 -8 658 -8 z "},"ĉ":{"ha":782,"x_min":58,"x_max":771,"o":"m 396 -7 q 216 31 292 -7 q 99 139 140 69 q 58 303 58 208 q 113 526 58 428 q 263 680 167 624 q 483 736 360 736 q 658 699 585 736 q 771 590 731 663 l 688 542 q 603 624 657 597 q 475 650 550 650 q 311 606 383 650 q 198 484 239 561 q 157 307 157 407 q 220 140 157 200 q 400 81 283 81 q 531 108 471 81 q 631 186 592 135 l 701 132 q 572 30 654 67 q 396 -7 490 -7 m 281 843 l 479 1015 l 579 1015 l 739 843 l 650 843 l 489 990 l 567 990 l 375 843 l 281 843 z "},"Ċ":{"ha":999,"x_min":89,"x_max":1026,"o":"m 543 -8 q 297 42 399 -8 q 142 184 196 93 q 89 396 89 275 q 130 621 89 515 q 248 808 171 726 q 434 935 325 889 q 681 981 543 981 q 888 944 797 981 q 1026 839 978 908 l 954 775 q 839 860 908 832 q 672 889 769 889 q 473 851 563 889 q 321 744 383 813 q 224 588 258 676 q 190 400 190 500 q 231 235 190 307 q 353 124 272 164 q 550 83 433 83 q 724 113 646 83 q 860 199 801 142 l 919 131 q 757 27 856 63 q 543 -8 658 -8 z "},"ċ":{"ha":782,"x_min":58,"x_max":771,"o":"m 396 -7 q 216 31 292 -7 q 99 139 140 69 q 58 303 58 208 q 113 526 58 428 q 263 680 167 624 q 483 736 360 736 q 658 699 585 736 q 771 590 731 663 l 688 542 q 603 624 657 597 q 475 650 550 650 q 311 606 383 650 q 198 484 239 561 q 157 307 157 407 q 220 140 157 200 q 400 81 283 81 q 531 108 471 81 q 631 186 592 135 l 701 132 q 572 30 654 67 q 396 -7 490 -7 m 525 875 q 480 892 497 875 q 463 935 463 908 q 483 988 463 967 q 533 1008 504 1008 q 578 992 560 1008 q 596 949 596 975 q 575 896 596 917 q 525 875 554 875 z "},"Č":{"ha":999,"x_min":89,"x_max":1026,"o":"m 543 -8 q 297 42 399 -8 q 142 184 196 93 q 89 396 89 275 q 130 621 89 515 q 248 808 171 726 q 434 935 325 889 q 681 981 543 981 q 888 944 797 981 q 1026 839 978 908 l 954 775 q 839 860 908 832 q 672 889 769 889 q 473 851 563 889 q 321 744 383 813 q 224 588 258 676 q 190 400 190 500 q 231 235 190 307 q 353 124 272 164 q 550 83 433 83 q 724 113 646 83 q 860 199 801 142 l 919 131 q 757 27 856 63 q 543 -8 658 -8 z "},"č":{"ha":782,"x_min":58,"x_max":771,"o":"m 396 -7 q 216 31 292 -7 q 99 139 140 69 q 58 303 58 208 q 113 526 58 428 q 263 680 167 624 q 483 736 360 736 q 658 699 585 736 q 771 590 731 663 l 688 542 q 603 624 657 597 q 475 650 550 650 q 311 606 383 650 q 198 484 239 561 q 157 307 157 407 q 220 140 157 200 q 400 81 283 81 q 531 108 471 81 q 631 186 592 135 l 701 132 q 572 30 654 67 q 396 -7 490 -7 m 469 843 l 311 1015 l 400 1015 l 560 868 l 482 868 l 674 1015 l 769 1015 l 569 843 l 469 843 z "},"Ď":{"ha":1147,"x_min":86,"x_max":1108,"o":"m 86 0 l 281 972 l 650 972 q 899 923 797 972 q 1055 785 1001 874 q 1108 576 1108 697 q 1066 342 1108 449 q 944 160 1024 236 q 753 42 864 83 q 504 0 642 0 l 86 0 m 206 89 l 507 89 q 773 151 661 89 q 945 323 885 214 q 1006 572 1006 432 q 965 735 1006 665 q 844 844 925 806 q 639 883 763 883 l 364 883 l 206 89 z "},"ď":{"ha":942,"x_min":58,"x_max":1157,"o":"m 376 -7 q 211 31 283 -7 q 99 138 139 68 q 58 303 58 207 q 89 475 58 396 q 175 613 119 554 q 306 704 231 672 q 471 736 382 736 q 633 702 567 736 q 736 603 700 668 q 772 447 772 539 q 745 265 772 349 q 665 121 718 182 q 540 26 613 60 q 376 -7 467 -7 m 397 81 q 560 124 489 81 q 673 246 632 168 q 714 422 714 324 q 651 590 714 531 q 474 650 588 650 q 311 606 383 650 q 198 484 239 561 q 157 307 157 407 q 220 140 157 200 q 397 81 283 81 m 638 0 l 679 210 l 721 357 l 735 510 l 839 1031 l 938 1031 l 732 0 l 638 0 m 1021 808 l 1074 1069 l 1157 1069 l 1092 808 l 1021 808 z "},"Đ":{"ha":1154,"x_min":35,"x_max":1115,"o":"m 93 0 l 288 972 l 657 972 q 906 923 804 972 q 1062 785 1008 874 q 1115 576 1115 697 q 1073 342 1115 449 q 951 160 1031 236 q 760 42 871 83 q 511 0 649 0 l 93 0 m 213 89 l 514 89 q 780 151 668 89 q 952 323 892 214 q 1013 572 1013 432 q 972 735 1013 665 q 851 844 932 806 q 646 883 769 883 l 371 883 l 213 89 m 35 454 l 51 536 l 589 536 l 572 454 l 35 454 z "},"đ":{"ha":942,"x_min":58,"x_max":1050,"o":"m 376 -7 q 211 31 283 -7 q 99 138 139 68 q 58 303 58 207 q 89 475 58 396 q 175 613 119 554 q 306 704 231 672 q 471 736 382 736 q 633 702 567 736 q 736 603 700 668 q 772 447 772 539 q 745 265 772 349 q 665 121 718 182 q 540 26 613 60 q 376 -7 467 -7 m 397 81 q 560 124 489 81 q 673 246 632 168 q 714 422 714 324 q 651 590 714 531 q 474 650 588 650 q 311 606 383 650 q 198 484 239 561 q 157 307 157 407 q 220 140 157 200 q 397 81 283 81 m 638 0 l 679 210 l 721 357 l 735 510 l 839 1031 l 938 1031 l 732 0 l 638 0 m 494 843 l 508 915 l 1050 915 l 1038 843 l 494 843 z "},"Ē":{"ha":929,"x_min":86,"x_max":947,"o":"m 285 538 l 799 538 l 782 450 l 268 450 l 285 538 m 206 89 l 790 89 l 772 0 l 86 0 l 281 972 l 947 972 l 929 883 l 364 883 l 206 89 z "},"ē":{"ha":839,"x_min":58,"x_max":781,"o":"m 399 -7 q 217 31 294 -7 q 99 139 140 69 q 58 304 58 208 q 111 526 58 429 q 256 680 164 624 q 463 736 347 736 q 631 699 560 736 q 741 593 701 663 q 781 426 781 524 q 778 381 781 404 q 771 338 775 358 l 131 338 l 143 411 l 725 411 l 685 383 q 672 531 699 471 q 591 622 646 590 q 460 653 536 653 q 301 609 371 653 q 193 488 232 565 q 154 308 154 411 q 217 140 154 199 q 407 81 281 81 q 543 105 481 81 q 646 172 606 129 l 690 101 q 562 22 639 50 q 399 -7 485 -7 m 303 894 l 315 960 l 744 960 l 731 894 l 303 894 z "},"Ĕ":{"ha":929,"x_min":86,"x_max":947,"o":"m 285 538 l 799 538 l 782 450 l 268 450 l 285 538 m 206 89 l 790 89 l 772 0 l 86 0 l 281 972 l 947 972 l 929 883 l 364 883 l 206 89 z "},"ĕ":{"ha":839,"x_min":58,"x_max":781,"o":"m 399 -7 q 217 31 294 -7 q 99 139 140 69 q 58 304 58 208 q 111 526 58 429 q 256 680 164 624 q 463 736 347 736 q 631 699 560 736 q 741 593 701 663 q 781 426 781 524 q 778 381 781 404 q 771 338 775 358 l 131 338 l 143 411 l 725 411 l 685 383 q 672 531 699 471 q 591 622 646 590 q 460 653 536 653 q 301 609 371 653 q 193 488 232 565 q 154 308 154 411 q 217 140 154 199 q 407 81 281 81 q 543 105 481 81 q 646 172 606 129 l 690 101 q 562 22 639 50 q 399 -7 485 -7 m 521 835 q 418 857 464 835 q 348 919 372 879 q 328 1014 324 958 l 396 1014 q 429 928 393 960 q 526 896 465 896 q 628 927 585 896 q 679 1014 671 958 l 751 1014 q 673 883 738 931 q 521 835 608 835 z "},"Ė":{"ha":929,"x_min":86,"x_max":947,"o":"m 285 538 l 799 538 l 782 450 l 268 450 l 285 538 m 206 89 l 790 89 l 772 0 l 86 0 l 281 972 l 947 972 l 929 883 l 364 883 l 206 89 z "},"ė":{"ha":839,"x_min":58,"x_max":781,"o":"m 399 -7 q 217 31 294 -7 q 99 139 140 69 q 58 304 58 208 q 111 526 58 429 q 256 680 164 624 q 463 736 347 736 q 631 699 560 736 q 741 593 701 663 q 781 426 781 524 q 778 381 781 404 q 771 338 775 358 l 131 338 l 143 411 l 725 411 l 685 383 q 672 531 699 471 q 591 622 646 590 q 460 653 536 653 q 301 609 371 653 q 193 488 232 565 q 154 308 154 411 q 217 140 154 199 q 407 81 281 81 q 543 105 481 81 q 646 172 606 129 l 690 101 q 562 22 639 50 q 399 -7 485 -7 m 522 874 q 477 890 494 874 q 460 933 460 907 q 481 986 460 965 q 531 1007 501 1007 q 575 990 557 1007 q 593 947 593 974 q 572 894 593 915 q 522 874 551 874 z "},"Ę":{"ha":929,"x_min":86,"x_max":947,"o":"m 285 538 l 799 538 l 782 450 l 268 450 l 285 538 m 206 89 l 790 89 l 772 0 l 86 0 l 281 972 l 947 972 l 929 883 l 364 883 l 206 89 m 628 -306 q 531 -276 568 -306 q 493 -192 493 -246 q 519 -105 493 -146 q 599 -27 546 -64 q 731 40 651 10 l 772 0 q 660 -55 706 -25 q 591 -115 614 -85 q 568 -181 568 -146 q 588 -228 568 -211 q 642 -244 608 -244 q 692 -237 667 -244 q 736 -218 717 -231 l 751 -272 q 694 -297 725 -287 q 628 -306 664 -306 z "},"ę":{"ha":839,"x_min":58,"x_max":782,"o":"m 474 -306 q 382 -276 418 -306 q 346 -192 346 -246 q 362 -117 346 -154 q 413 -44 378 -81 q 503 25 449 -8 l 521 10 q 456 -3 486 1 q 399 -7 426 -7 q 218 31 294 -7 q 100 139 142 69 q 58 304 58 208 q 111 526 58 429 q 256 680 164 624 q 464 736 347 736 q 633 699 561 736 q 743 593 704 663 q 782 426 782 524 q 780 381 782 404 q 774 338 778 358 l 132 338 l 144 411 l 726 411 l 686 383 q 674 531 700 471 q 592 622 647 590 q 460 653 538 653 q 302 609 371 653 q 194 488 233 565 q 156 308 156 411 q 219 140 156 199 q 408 81 282 81 q 544 105 482 81 q 647 172 607 129 l 692 101 q 661 75 678 88 q 631 54 644 63 q 465 -72 514 -14 q 417 -178 417 -129 q 436 -228 417 -211 q 489 -244 456 -244 q 536 -237 513 -244 q 581 -218 560 -231 l 594 -272 q 540 -297 569 -287 q 474 -306 510 -306 z "},"Ě":{"ha":929,"x_min":86,"x_max":947,"o":"m 285 538 l 799 538 l 782 450 l 268 450 l 285 538 m 206 89 l 790 89 l 772 0 l 86 0 l 281 972 l 947 972 l 929 883 l 364 883 l 206 89 z "},"ě":{"ha":839,"x_min":58,"x_max":781,"o":"m 399 -7 q 217 31 294 -7 q 99 139 140 69 q 58 304 58 208 q 111 526 58 429 q 256 680 164 624 q 463 736 347 736 q 631 699 560 736 q 741 593 701 663 q 781 426 781 524 q 778 381 781 404 q 771 338 775 358 l 131 338 l 143 411 l 725 411 l 685 383 q 672 531 699 471 q 591 622 646 590 q 460 653 536 653 q 301 609 371 653 q 193 488 232 565 q 154 308 154 411 q 217 140 154 199 q 407 81 281 81 q 543 105 481 81 q 646 172 606 129 l 690 101 q 562 22 639 50 q 399 -7 485 -7 m 467 842 l 308 1014 l 397 1014 l 557 867 l 479 867 l 671 1014 l 767 1014 l 567 842 l 467 842 z "},"Ĝ":{"ha":1074,"x_min":89,"x_max":1043,"o":"m 543 -8 q 299 42 400 -8 q 143 184 197 93 q 89 396 89 275 q 130 621 89 515 q 248 808 171 726 q 435 935 325 889 q 682 981 544 981 q 897 944 804 981 q 1043 839 989 907 l 971 776 q 848 862 921 835 q 678 889 775 889 q 476 851 565 889 q 323 746 386 813 q 225 590 260 679 q 190 400 190 501 q 231 235 190 307 q 353 124 272 164 q 554 83 435 83 q 715 113 642 83 q 850 196 788 142 l 892 113 q 734 24 825 57 q 543 -8 643 -8 m 797 128 l 868 486 l 967 486 l 892 113 l 797 128 z "},"ĝ":{"ha":951,"x_min":10,"x_max":888,"o":"m 335 -276 q 150 -248 233 -276 q 10 -167 67 -219 l 68 -92 q 184 -162 113 -136 q 342 -189 256 -189 q 557 -125 481 -189 q 658 72 633 -61 l 697 264 l 735 383 l 750 508 l 793 729 l 888 729 l 760 89 q 618 -190 722 -104 q 335 -276 514 -276 m 383 28 q 215 64 288 28 q 101 166 142 100 q 61 322 61 232 q 92 486 61 411 q 178 617 122 561 q 310 705 233 674 q 478 736 386 736 q 633 706 565 736 q 741 614 701 675 q 781 458 781 553 q 733 241 782 339 q 596 85 685 143 q 383 28 507 28 m 403 115 q 566 157 494 115 q 679 272 638 199 q 721 438 721 344 q 657 594 721 538 q 479 650 593 650 q 315 608 388 650 q 202 494 243 567 q 161 328 161 421 q 225 172 161 228 q 403 115 289 115 m 318 843 l 517 1015 l 617 1015 l 776 843 l 688 843 l 526 990 l 604 990 l 413 843 l 318 843 z "},"Ğ":{"ha":1074,"x_min":89,"x_max":1043,"o":"m 543 -8 q 299 42 400 -8 q 143 184 197 93 q 89 396 89 275 q 130 621 89 515 q 248 808 171 726 q 435 935 325 889 q 682 981 544 981 q 897 944 804 981 q 1043 839 989 907 l 971 776 q 848 862 921 835 q 678 889 775 889 q 476 851 565 889 q 323 746 386 813 q 225 590 260 679 q 190 400 190 501 q 231 235 190 307 q 353 124 272 164 q 554 83 435 83 q 715 113 642 83 q 850 196 788 142 l 892 113 q 734 24 825 57 q 543 -8 643 -8 m 797 128 l 868 486 l 967 486 l 892 113 l 797 128 z "},"ğ":{"ha":951,"x_min":10,"x_max":888,"o":"m 335 -276 q 150 -248 233 -276 q 10 -167 67 -219 l 68 -92 q 184 -162 113 -136 q 342 -189 256 -189 q 557 -125 481 -189 q 658 72 633 -61 l 697 264 l 735 383 l 750 508 l 793 729 l 888 729 l 760 89 q 618 -190 722 -104 q 335 -276 514 -276 m 383 28 q 215 64 288 28 q 101 166 142 100 q 61 322 61 232 q 92 486 61 411 q 178 617 122 561 q 310 705 233 674 q 478 736 386 736 q 633 706 565 736 q 741 614 701 675 q 781 458 781 553 q 733 241 782 339 q 596 85 685 143 q 383 28 507 28 m 403 115 q 566 157 494 115 q 679 272 638 199 q 721 438 721 344 q 657 594 721 538 q 479 650 593 650 q 315 608 388 650 q 202 494 243 567 q 161 328 161 421 q 225 172 161 228 q 403 115 289 115 m 561 836 q 458 858 504 836 q 388 920 413 881 q 368 1015 364 960 l 436 1015 q 469 929 433 961 q 567 897 506 897 q 668 928 625 897 q 719 1015 711 960 l 792 1015 q 713 884 778 932 q 561 836 649 836 z "},"Ġ":{"ha":1074,"x_min":89,"x_max":1043,"o":"m 543 -8 q 299 42 400 -8 q 143 184 197 93 q 89 396 89 275 q 130 621 89 515 q 248 808 171 726 q 435 935 325 889 q 682 981 544 981 q 897 944 804 981 q 1043 839 989 907 l 971 776 q 848 862 921 835 q 678 889 775 889 q 476 851 565 889 q 323 746 386 813 q 225 590 260 679 q 190 400 190 501 q 231 235 190 307 q 353 124 272 164 q 554 83 435 83 q 715 113 642 83 q 850 196 788 142 l 892 113 q 734 24 825 57 q 543 -8 643 -8 m 797 128 l 868 486 l 967 486 l 892 113 l 797 128 z "},"ġ":{"ha":951,"x_min":10,"x_max":888,"o":"m 335 -276 q 150 -248 233 -276 q 10 -167 67 -219 l 68 -92 q 184 -162 113 -136 q 342 -189 256 -189 q 557 -125 481 -189 q 658 72 633 -61 l 697 264 l 735 383 l 750 508 l 793 729 l 888 729 l 760 89 q 618 -190 722 -104 q 335 -276 514 -276 m 383 28 q 215 64 288 28 q 101 166 142 100 q 61 322 61 232 q 92 486 61 411 q 178 617 122 561 q 310 705 233 674 q 478 736 386 736 q 633 706 565 736 q 741 614 701 675 q 781 458 781 553 q 733 241 782 339 q 596 85 685 143 q 383 28 507 28 m 403 115 q 566 157 494 115 q 679 272 638 199 q 721 438 721 344 q 657 594 721 538 q 479 650 593 650 q 315 608 388 650 q 202 494 243 567 q 161 328 161 421 q 225 172 161 228 q 403 115 289 115 m 563 875 q 517 892 535 875 q 500 935 500 908 q 521 988 500 967 q 571 1008 542 1008 q 615 992 597 1008 q 633 949 633 975 q 613 896 633 917 q 563 875 592 875 z "},"Ģ":{"ha":1074,"x_min":89,"x_max":1043,"o":"m 543 -8 q 299 42 400 -8 q 143 184 197 93 q 89 396 89 275 q 130 621 89 515 q 248 808 171 726 q 435 935 325 889 q 682 981 544 981 q 897 944 804 981 q 1043 839 989 907 l 971 776 q 848 862 921 835 q 678 889 775 889 q 476 851 565 889 q 323 746 386 813 q 225 590 260 679 q 190 400 190 501 q 231 235 190 307 q 353 124 272 164 q 554 83 435 83 q 715 113 642 83 q 850 196 788 142 l 892 113 q 734 24 825 57 q 543 -8 643 -8 m 797 128 l 868 486 l 967 486 l 892 113 l 797 128 m 371 -364 l 439 -214 l 444 -253 q 404 -238 419 -253 q 389 -204 389 -224 q 405 -161 389 -178 q 449 -144 421 -144 q 493 -159 478 -144 q 508 -194 508 -174 q 503 -224 508 -211 q 483 -258 497 -237 l 424 -364 l 371 -364 z "},"ģ":{"ha":951,"x_min":10,"x_max":888,"o":"m 335 -276 q 150 -248 233 -276 q 10 -167 67 -219 l 68 -92 q 184 -162 113 -136 q 342 -189 256 -189 q 557 -125 481 -189 q 658 72 633 -61 l 697 264 l 735 383 l 750 508 l 793 729 l 888 729 l 760 89 q 618 -190 722 -104 q 335 -276 514 -276 m 383 28 q 215 64 288 28 q 101 166 142 100 q 61 322 61 232 q 92 486 61 411 q 178 617 122 561 q 310 705 233 674 q 478 736 386 736 q 633 706 565 736 q 741 614 701 675 q 781 458 781 553 q 733 241 782 339 q 596 85 685 143 q 383 28 507 28 m 403 115 q 566 157 494 115 q 679 272 638 199 q 721 438 721 344 q 657 594 721 538 q 479 650 593 650 q 315 608 388 650 q 202 494 243 567 q 161 328 161 421 q 225 172 161 228 q 403 115 289 115 m 556 836 q 510 851 526 836 q 493 888 493 867 q 499 917 493 903 q 518 950 504 931 l 594 1085 l 653 1085 l 568 906 l 561 944 q 606 931 589 944 q 622 896 622 918 q 605 853 622 871 q 556 836 588 836 z "},"Ĥ":{"ha":1129,"x_min":86,"x_max":1092,"o":"m 990 972 l 1092 972 l 897 0 l 796 0 l 990 972 m 188 0 l 86 0 l 281 972 l 382 972 l 188 0 m 896 449 l 268 449 l 285 539 l 914 539 l 896 449 z "},"ĥ":{"ha":939,"x_min":65,"x_max":840,"o":"m 567 736 q 728 698 665 736 q 816 588 792 660 q 819 415 840 515 l 736 0 l 638 0 l 721 417 q 698 586 743 525 q 539 647 653 647 q 345 583 422 647 q 242 392 268 519 l 164 0 l 65 0 l 271 1031 l 369 1031 l 267 519 l 242 556 q 378 693 294 650 q 567 736 463 736 z "},"Ħ":{"ha":1143,"x_min":90,"x_max":1213,"o":"m 997 972 l 1099 972 l 904 0 l 803 0 l 997 972 m 194 0 l 93 0 l 288 972 l 389 972 l 194 0 m 903 449 l 275 449 l 292 539 l 921 539 l 903 449 m 90 719 l 104 803 l 1213 803 l 1197 719 l 90 719 z "},"ħ":{"ha":939,"x_min":65,"x_max":840,"o":"m 567 736 q 728 698 665 736 q 816 588 792 660 q 819 415 840 515 l 736 0 l 638 0 l 721 417 q 698 586 743 525 q 539 647 653 647 q 345 583 422 647 q 242 392 268 519 l 164 0 l 65 0 l 271 1031 l 369 1031 l 267 519 l 242 556 q 378 693 294 650 q 567 736 463 736 m 96 843 l 110 915 l 651 915 l 639 843 l 96 843 z "},"Ĩ":{"ha":419,"x_min":86,"x_max":594,"o":"m 86 0 l 281 972 l 382 972 l 188 0 l 86 0 z "},"ĩ":{"ha":374,"x_min":65,"x_max":496,"o":"m 65 0 l 210 729 l 308 729 l 164 0 l 65 0 m 374 851 q 324 865 344 851 q 288 898 303 879 q 258 931 272 917 q 225 946 243 946 q 185 922 201 946 q 164 857 168 899 l 104 857 q 145 969 113 929 q 228 1010 178 1010 q 277 995 257 1010 q 313 963 297 981 q 342 931 328 944 q 374 917 357 917 q 416 940 399 917 q 438 1001 433 963 l 496 1001 q 456 892 489 932 q 374 851 424 851 z "},"Ī":{"ha":419,"x_min":86,"x_max":546,"o":"m 86 0 l 281 972 l 382 972 l 188 0 l 86 0 z "},"ī":{"ha":374,"x_min":65,"x_max":482,"o":"m 65 0 l 210 729 l 308 729 l 164 0 l 65 0 m 121 896 l 132 961 l 482 961 l 468 896 l 121 896 z "},"Ĭ":{"ha":419,"x_min":86,"x_max":592,"o":"m 86 0 l 281 972 l 382 972 l 188 0 l 86 0 z "},"ĭ":{"ha":374,"x_min":65,"x_max":493,"o":"m 65 0 l 210 729 l 308 729 l 164 0 l 65 0 m 300 836 q 208 858 247 836 q 151 920 169 881 q 140 1015 133 960 l 204 1015 q 224 928 199 958 q 301 897 250 897 q 425 1015 411 897 l 493 1015 q 431 883 482 929 q 300 836 381 836 z "},"Į":{"ha":419,"x_min":-3,"x_max":382,"o":"m 86 0 l 281 972 l 382 972 l 188 0 l 86 0 m 107 -306 q 26 -276 54 -306 q -3 -200 -3 -247 q 43 -70 -3 -131 q 156 36 89 -10 l 188 0 q 101 -97 131 -47 q 71 -190 71 -146 q 85 -231 71 -217 q 124 -246 100 -246 q 150 -240 138 -246 q 175 -226 163 -235 l 188 -279 q 153 -299 175 -292 q 107 -306 131 -306 z "},"į":{"ha":374,"x_min":-28,"x_max":379,"o":"m 65 0 l 210 729 l 308 729 l 164 0 l 65 0 m 301 890 q 253 910 272 890 q 235 956 235 929 q 256 1008 235 986 q 311 1031 278 1031 q 360 1013 340 1031 q 379 967 379 994 q 357 912 379 933 q 301 890 335 890 m 82 -306 q 1 -276 29 -306 q -28 -200 -28 -247 q 18 -70 -28 -131 q 131 36 64 -10 l 163 0 q 76 -97 106 -47 q 46 -190 46 -146 q 60 -231 46 -217 q 99 -246 75 -246 q 125 -240 113 -246 q 150 -226 138 -235 l 163 -279 q 128 -299 150 -292 q 82 -306 106 -306 z "},"İ":{"ha":419,"x_min":86,"x_max":433,"o":"m 86 0 l 281 972 l 382 972 l 188 0 l 86 0 z "},"ı":{"ha":374,"x_min":65,"x_max":308,"o":"m 65 0 l 210 729 l 308 729 l 164 0 l 65 0 z "},"Ĳ":{"ha":997,"x_min":82,"x_max":968,"o":"m 407 -8 q 221 18 303 -8 q 82 88 139 44 l 135 169 q 261 106 190 128 q 413 83 332 83 q 638 163 554 83 q 754 415 721 242 l 865 972 l 968 972 l 856 408 q 702 94 813 196 q 407 -8 592 -8 m 161 419 l 272 972 l 374 972 l 263 419 l 161 419 z "},"ĳ":{"ha":756,"x_min":65,"x_max":758,"o":"m 65 0 l 210 729 l 308 729 l 164 0 l 65 0 m 301 890 q 253 910 272 890 q 235 956 235 929 q 256 1008 235 986 q 311 1031 278 1031 q 360 1013 340 1031 q 379 967 379 994 q 357 912 379 933 q 301 890 335 890 m 286 -276 q 199 -265 239 -276 q 132 -231 160 -253 l 178 -154 q 288 -192 221 -192 q 383 -159 347 -192 q 433 -53 418 -126 l 590 729 l 689 729 l 532 -56 q 286 -276 488 -276 m 681 890 q 633 910 651 890 q 614 956 614 929 q 635 1008 614 986 q 690 1031 657 1031 q 739 1013 719 1031 q 758 967 758 994 q 736 912 758 933 q 681 890 714 890 z "},"Ĵ":{"ha":696,"x_min":-51,"x_max":685,"o":"m 214 -8 q 51 29 119 -8 q -51 132 -18 67 l 21 197 q 98 112 47 143 q 217 81 149 81 q 355 128 301 81 q 431 290 408 176 l 549 883 l 194 883 l 213 972 l 667 972 l 531 290 q 467 115 510 181 q 362 21 425 50 q 214 -8 299 -8 z "},"ĵ":{"ha":381,"x_min":-242,"x_max":483,"o":"m -87 -276 q -174 -265 -135 -276 q -242 -231 -214 -253 l -196 -154 q -86 -192 -153 -192 q 9 -159 -26 -192 q 60 -53 44 -126 l 217 729 l 315 729 l 158 -56 q -87 -276 114 -276 m 94 843 l 261 1015 l 357 1015 l 483 843 l 397 843 l 275 990 l 340 990 l 185 843 l 94 843 z "},"Ķ":{"ha":988,"x_min":86,"x_max":1078,"o":"m 226 244 l 242 371 l 943 972 l 1078 972 l 553 521 l 492 471 l 226 244 m 86 0 l 281 972 l 382 972 l 188 0 l 86 0 m 792 0 l 461 483 l 531 551 l 907 0 l 792 0 m 328 -364 l 396 -214 l 401 -253 q 361 -238 376 -253 q 346 -204 346 -224 q 362 -161 346 -178 q 406 -144 378 -144 q 450 -159 435 -144 q 465 -194 465 -174 q 460 -224 465 -211 q 440 -258 454 -237 l 381 -364 l 328 -364 z "},"ķ":{"ha":819,"x_min":65,"x_max":874,"o":"m 183 194 l 203 315 l 733 729 l 874 729 l 475 419 l 421 378 l 183 194 m 65 0 l 271 1031 l 369 1031 l 164 0 l 65 0 m 635 0 l 404 379 l 472 453 l 750 0 l 635 0 m 243 -364 l 311 -214 l 317 -253 q 276 -238 292 -253 q 261 -204 261 -224 q 277 -161 261 -178 q 321 -144 293 -144 q 365 -159 350 -144 q 381 -194 381 -174 q 375 -224 381 -211 q 356 -258 369 -237 l 296 -364 l 243 -364 z "},"ĸ":{"ha":819,"x_min":65,"x_max":874,"o":"m 183 194 l 203 315 l 733 729 l 874 729 l 475 419 l 421 378 l 183 194 m 65 0 l 210 729 l 308 729 l 164 0 l 65 0 m 635 0 l 404 379 l 472 453 l 750 0 l 635 0 z "},"Ĺ":{"ha":818,"x_min":86,"x_max":750,"o":"m 86 0 l 281 972 l 382 972 l 206 89 l 750 89 l 732 0 l 86 0 z "},"ĺ":{"ha":374,"x_min":65,"x_max":588,"o":"m 65 0 l 271 1031 l 369 1031 l 164 0 l 65 0 z "},"Ļ":{"ha":818,"x_min":86,"x_max":750,"o":"m 86 0 l 281 972 l 382 972 l 206 89 l 750 89 l 732 0 l 86 0 m 307 -364 l 375 -214 l 381 -253 q 340 -238 356 -253 q 325 -204 325 -224 q 341 -161 325 -178 q 385 -144 357 -144 q 429 -159 414 -144 q 444 -194 444 -174 q 439 -224 444 -211 q 419 -258 433 -237 l 360 -364 l 307 -364 z "},"ļ":{"ha":374,"x_min":-3,"x_max":369,"o":"m 65 0 l 271 1031 l 369 1031 l 164 0 l 65 0 m -3 -364 l 65 -214 l 71 -253 q 31 -238 46 -253 q 15 -204 15 -224 q 31 -161 15 -178 q 75 -144 47 -144 q 119 -159 104 -144 q 135 -194 135 -174 q 129 -224 135 -211 q 110 -258 124 -237 l 50 -364 l -3 -364 z "},"Ľ":{"ha":818,"x_min":86,"x_max":825,"o":"m 86 0 l 281 972 l 382 972 l 206 89 l 750 89 l 732 0 l 86 0 m 689 750 l 742 1011 l 825 1011 l 760 750 l 689 750 z "},"ľ":{"ha":374,"x_min":65,"x_max":589,"o":"m 65 0 l 271 1031 l 369 1031 l 164 0 l 65 0 m 453 808 l 506 1069 l 589 1069 l 524 808 l 453 808 z "},"Ŀ":{"ha":818,"x_min":86,"x_max":750,"o":"m 86 0 l 281 972 l 382 972 l 206 89 l 750 89 l 732 0 l 86 0 m 650 461 q 603 481 622 461 q 583 526 583 500 q 605 580 583 560 q 656 600 626 600 q 701 581 682 600 q 721 533 721 563 q 699 482 721 503 q 650 461 678 461 z "},"ŀ":{"ha":436,"x_min":65,"x_max":494,"o":"m 65 0 l 271 1031 l 369 1031 l 164 0 l 65 0 m 429 429 q 386 447 404 429 q 368 492 368 465 q 388 540 368 521 q 433 560 407 560 q 477 542 460 560 q 494 497 494 525 q 476 449 494 469 q 429 429 457 429 z "},"Ł":{"ha":825,"x_min":32,"x_max":757,"o":"m 93 0 l 288 972 l 389 972 l 213 89 l 757 89 l 739 0 l 93 0 m 75 356 l 32 421 l 497 725 l 540 661 l 75 356 z "},"ł":{"ha":388,"x_min":7,"x_max":433,"o":"m 72 0 l 278 1031 l 376 1031 l 171 0 l 72 0 m 47 336 l 7 399 l 394 651 l 433 589 l 47 336 z "},"Ń":{"ha":1129,"x_min":86,"x_max":1092,"o":"m 86 0 l 281 972 l 364 972 l 854 124 l 822 129 l 990 972 l 1092 972 l 897 0 l 814 0 l 324 849 l 356 843 l 188 0 l 86 0 z "},"ń":{"ha":939,"x_min":65,"x_max":840,"o":"m 567 736 q 728 698 665 736 q 816 588 792 660 q 819 415 840 515 l 736 0 l 638 0 l 721 417 q 698 586 743 525 q 539 647 653 647 q 345 583 422 647 q 242 392 268 519 l 164 0 l 65 0 l 210 729 l 304 729 l 263 519 l 242 556 q 378 693 294 650 q 567 736 463 736 m 474 843 l 685 1015 l 819 1015 l 576 843 l 474 843 z "},"Ņ":{"ha":1129,"x_min":86,"x_max":1092,"o":"m 86 0 l 281 972 l 364 972 l 854 124 l 822 129 l 990 972 l 1092 972 l 897 0 l 814 0 l 324 849 l 356 843 l 188 0 l 86 0 m 375 -364 l 443 -214 l 449 -253 q 408 -238 424 -253 q 393 -204 393 -224 q 409 -161 393 -178 q 453 -144 425 -144 q 497 -159 482 -144 q 513 -194 513 -174 q 507 -224 513 -211 q 488 -258 501 -237 l 428 -364 l 375 -364 z "},"ņ":{"ha":939,"x_min":65,"x_max":840,"o":"m 567 736 q 728 698 665 736 q 816 588 792 660 q 819 415 840 515 l 736 0 l 638 0 l 721 417 q 698 586 743 525 q 539 647 653 647 q 345 583 422 647 q 242 392 268 519 l 164 0 l 65 0 l 210 729 l 304 729 l 263 519 l 242 556 q 378 693 294 650 q 567 736 463 736 m 282 -364 l 350 -214 l 356 -253 q 315 -238 331 -253 q 300 -204 300 -224 q 316 -161 300 -178 q 360 -144 332 -144 q 404 -159 389 -144 q 419 -194 419 -174 q 414 -224 419 -211 q 394 -258 408 -237 l 335 -364 l 282 -364 z "},"Ň":{"ha":1129,"x_min":86,"x_max":1092,"o":"m 86 0 l 281 972 l 364 972 l 854 124 l 822 129 l 990 972 l 1092 972 l 897 0 l 814 0 l 324 849 l 356 843 l 188 0 l 86 0 z "},"ň":{"ha":939,"x_min":65,"x_max":840,"o":"m 567 736 q 728 698 665 736 q 816 588 792 660 q 819 415 840 515 l 736 0 l 638 0 l 721 417 q 698 586 743 525 q 539 647 653 647 q 345 583 422 647 q 242 392 268 519 l 164 0 l 65 0 l 210 729 l 304 729 l 263 519 l 242 556 q 378 693 294 650 q 567 736 463 736 m 528 843 l 369 1015 l 458 1015 l 618 868 l 540 868 l 732 1015 l 828 1015 l 628 843 l 528 843 z "},"ŉ":{"ha":989,"x_min":39,"x_max":889,"o":"m 615 736 q 777 698 714 736 q 865 588 840 660 q 868 415 889 515 l 785 0 l 686 0 l 769 417 q 747 586 792 525 q 588 647 701 647 q 394 583 471 647 q 290 392 317 519 l 213 0 l 114 0 l 258 729 l 353 729 l 311 519 l 290 556 q 427 693 343 650 q 615 736 511 736 z "},"Ŋ":{"ha":1129,"x_min":86,"x_max":1092,"o":"m 86 0 l 281 972 l 364 972 l 854 124 l 814 0 l 324 849 l 356 844 l 188 0 l 86 0 m 585 -276 q 440 -243 506 -276 q 342 -156 374 -210 l 403 -87 q 477 -160 429 -133 q 589 -187 525 -187 q 726 -140 674 -187 q 800 19 778 -93 l 990 972 l 1092 972 l 904 33 q 838 -151 881 -83 q 733 -247 796 -218 q 585 -276 669 -276 z "},"ŋ":{"ha":939,"x_min":65,"x_max":840,"o":"m 481 -276 q 394 -265 433 -276 q 326 -231 354 -253 l 372 -154 q 482 -192 415 -192 q 576 -159 542 -192 q 626 -53 611 -126 l 721 417 q 698 586 743 525 q 539 647 653 647 q 345 583 422 647 q 242 392 268 519 l 164 0 l 65 0 l 210 729 l 304 729 l 263 519 l 242 556 q 378 693 294 650 q 567 736 463 736 q 728 698 665 736 q 816 588 792 660 q 819 415 840 515 l 725 -56 q 481 -276 682 -276 z "},"Ō":{"ha":1165,"x_min":89,"x_max":1125,"o":"m 539 -8 q 294 42 396 -8 q 141 184 193 93 q 89 396 89 275 q 129 621 89 515 q 247 808 169 726 q 432 935 324 889 q 675 981 540 981 q 920 930 819 981 q 1073 788 1021 879 q 1125 576 1125 697 q 1085 351 1125 457 q 967 165 1044 246 q 782 38 890 83 q 539 -8 674 -8 m 549 83 q 744 122 657 83 q 894 228 832 160 q 990 384 957 296 q 1024 572 1024 472 q 983 738 1024 667 q 863 849 942 808 q 665 889 783 889 q 469 851 557 889 q 320 744 382 813 q 224 588 258 676 q 190 400 190 500 q 231 235 190 307 q 351 124 272 164 q 549 83 431 83 z "},"ō":{"ha":871,"x_min":58,"x_max":813,"o":"m 390 -7 q 215 31 289 -7 q 99 139 140 69 q 58 303 58 208 q 113 526 58 428 q 263 680 167 624 q 481 736 358 736 q 656 699 582 736 q 772 592 731 661 q 813 428 813 522 q 758 205 813 303 q 609 50 704 107 q 390 -7 514 -7 m 397 81 q 560 124 489 81 q 673 246 632 168 q 714 422 714 324 q 651 590 714 531 q 474 650 588 650 q 311 606 383 650 q 198 484 239 561 q 157 307 157 407 q 220 140 157 200 q 397 81 283 81 m 325 896 l 338 961 l 767 961 l 753 896 l 325 896 z "},"Ŏ":{"ha":1165,"x_min":89,"x_max":1125,"o":"m 539 -8 q 294 42 396 -8 q 141 184 193 93 q 89 396 89 275 q 129 621 89 515 q 247 808 169 726 q 432 935 324 889 q 675 981 540 981 q 920 930 819 981 q 1073 788 1021 879 q 1125 576 1125 697 q 1085 351 1125 457 q 967 165 1044 246 q 782 38 890 83 q 539 -8 674 -8 m 549 83 q 744 122 657 83 q 894 228 832 160 q 990 384 957 296 q 1024 572 1024 472 q 983 738 1024 667 q 863 849 942 808 q 665 889 783 889 q 469 851 557 889 q 320 744 382 813 q 224 588 258 676 q 190 400 190 500 q 231 235 190 307 q 351 124 272 164 q 549 83 431 83 z "},"ŏ":{"ha":871,"x_min":58,"x_max":813,"o":"m 390 -7 q 215 31 289 -7 q 99 139 140 69 q 58 303 58 208 q 113 526 58 428 q 263 680 167 624 q 481 736 358 736 q 656 699 582 736 q 772 592 731 661 q 813 428 813 522 q 758 205 813 303 q 609 50 704 107 q 390 -7 514 -7 m 397 81 q 560 124 489 81 q 673 246 632 168 q 714 422 714 324 q 651 590 714 531 q 474 650 588 650 q 311 606 383 650 q 198 484 239 561 q 157 307 157 407 q 220 140 157 200 q 397 81 283 81 m 543 836 q 440 858 486 836 q 370 920 394 881 q 350 1015 346 960 l 418 1015 q 451 929 415 961 q 549 897 488 897 q 650 928 607 897 q 701 1015 693 960 l 774 1015 q 695 884 760 932 q 543 836 631 836 z "},"Ő":{"ha":1165,"x_min":89,"x_max":1125,"o":"m 539 -8 q 294 42 396 -8 q 141 184 193 93 q 89 396 89 275 q 129 621 89 515 q 247 808 169 726 q 432 935 324 889 q 675 981 540 981 q 920 930 819 981 q 1073 788 1021 879 q 1125 576 1125 697 q 1085 351 1125 457 q 967 165 1044 246 q 782 38 890 83 q 539 -8 674 -8 m 549 83 q 744 122 657 83 q 894 228 832 160 q 990 384 957 296 q 1024 572 1024 472 q 983 738 1024 667 q 863 849 942 808 q 665 889 783 889 q 469 851 557 889 q 320 744 382 813 q 224 588 258 676 q 190 400 190 500 q 231 235 190 307 q 351 124 272 164 q 549 83 431 83 z "},"ő":{"ha":871,"x_min":58,"x_max":863,"o":"m 390 -7 q 215 31 289 -7 q 99 139 140 69 q 58 303 58 208 q 113 526 58 428 q 263 680 167 624 q 481 736 358 736 q 656 699 582 736 q 772 592 731 661 q 813 428 813 522 q 758 205 813 303 q 609 50 704 107 q 390 -7 514 -7 m 397 81 q 560 124 489 81 q 673 246 632 168 q 714 422 714 324 q 651 590 714 531 q 474 650 588 650 q 311 606 383 650 q 198 484 239 561 q 157 307 157 407 q 220 140 157 200 q 397 81 283 81 m 597 843 l 749 1015 l 863 1015 l 686 843 l 597 843 m 369 843 l 522 1015 l 636 1015 l 461 843 l 369 843 z "},"Œ":{"ha":1557,"x_min":89,"x_max":1575,"o":"m 547 0 q 299 49 401 0 q 142 188 196 99 q 89 396 89 276 q 131 630 89 524 q 253 813 174 736 q 444 931 333 889 q 693 972 556 972 l 935 972 l 918 883 l 690 883 q 424 821 536 883 q 251 649 313 758 q 190 400 190 540 q 231 237 190 307 q 353 128 272 167 q 557 89 435 89 l 757 89 l 740 0 l 547 0 m 714 0 l 908 972 l 1575 972 l 1556 883 l 992 883 l 833 89 l 1418 89 l 1400 0 l 714 0 m 896 450 l 913 538 l 1426 538 l 1410 450 l 896 450 z "},"œ":{"ha":1485,"x_min":58,"x_max":1426,"o":"m 383 -7 q 213 31 286 -7 q 99 139 139 69 q 58 303 58 208 q 111 526 58 428 q 258 680 164 624 q 472 736 353 736 q 645 699 572 736 q 758 592 718 661 q 797 428 797 522 q 744 205 797 303 q 599 50 692 107 q 383 -7 506 -7 m 397 81 q 560 124 489 81 q 673 246 632 168 q 714 422 714 324 q 651 590 714 531 q 474 650 588 650 q 311 606 383 650 q 198 484 239 561 q 157 307 157 407 q 220 140 157 200 q 397 81 283 81 m 1044 -7 q 866 31 942 -7 q 750 139 790 69 q 710 304 710 208 q 763 526 710 429 q 906 680 815 624 q 1110 736 996 736 q 1277 699 1207 736 q 1387 593 1347 663 q 1426 426 1426 524 q 1424 381 1426 404 q 1417 338 1422 358 l 776 338 l 790 411 l 1371 411 l 1331 383 q 1319 531 1344 471 q 1238 622 1293 590 q 1106 653 1182 653 q 947 609 1017 653 q 839 488 878 565 q 800 308 800 411 q 864 140 800 199 q 1053 81 928 81 q 1189 105 1126 81 q 1292 172 1251 129 l 1336 101 q 1208 22 1286 50 q 1044 -7 1131 -7 z "},"Ŕ":{"ha":1004,"x_min":86,"x_max":978,"o":"m 86 0 l 281 972 l 631 972 q 887 900 796 972 q 978 697 978 828 q 923 487 978 574 q 767 354 868 400 q 526 308 665 308 l 206 308 l 260 356 l 189 0 l 86 0 m 751 0 l 553 353 l 663 353 l 863 0 l 751 0 m 257 347 l 222 397 l 528 397 q 784 471 693 397 q 875 688 875 544 q 810 833 875 783 q 624 883 744 883 l 322 883 l 375 933 l 257 347 z "},"ŕ":{"ha":557,"x_min":65,"x_max":669,"o":"m 65 0 l 210 729 l 304 729 l 263 514 l 251 551 q 380 692 300 647 q 579 736 460 736 l 561 640 q 548 641 554 640 q 533 642 542 642 q 341 574 417 642 q 238 371 265 507 l 164 0 l 65 0 m 324 843 l 535 1015 l 669 1015 l 426 843 l 324 843 z "},"Ŗ":{"ha":1004,"x_min":86,"x_max":978,"o":"m 86 0 l 281 972 l 631 972 q 887 900 796 972 q 978 697 978 828 q 923 487 978 574 q 767 354 868 400 q 526 308 665 308 l 206 308 l 260 356 l 189 0 l 86 0 m 751 0 l 553 353 l 663 353 l 863 0 l 751 0 m 257 347 l 222 397 l 528 397 q 784 471 693 397 q 875 688 875 544 q 810 833 875 783 q 624 883 744 883 l 322 883 l 375 933 l 257 347 m 322 -364 l 390 -214 l 396 -253 q 356 -238 371 -253 q 340 -204 340 -224 q 356 -161 340 -178 q 400 -144 372 -144 q 444 -159 429 -144 q 460 -194 460 -174 q 454 -224 460 -211 q 435 -258 449 -237 l 375 -364 l 322 -364 z "},"ŗ":{"ha":557,"x_min":-3,"x_max":579,"o":"m 65 0 l 210 729 l 304 729 l 263 514 l 251 551 q 380 692 300 647 q 579 736 460 736 l 561 640 q 548 641 554 640 q 533 642 542 642 q 341 574 417 642 q 238 371 265 507 l 164 0 l 65 0 m -3 -364 l 65 -214 l 71 -253 q 31 -238 46 -253 q 15 -204 15 -224 q 31 -161 15 -178 q 75 -144 47 -144 q 119 -159 104 -144 q 135 -194 135 -174 q 129 -224 135 -211 q 110 -258 124 -237 l 50 -364 l -3 -364 z "},"Ř":{"ha":1004,"x_min":86,"x_max":978,"o":"m 86 0 l 281 972 l 631 972 q 887 900 796 972 q 978 697 978 828 q 923 487 978 574 q 767 354 868 400 q 526 308 665 308 l 206 308 l 260 356 l 189 0 l 86 0 m 751 0 l 553 353 l 663 353 l 863 0 l 751 0 m 257 347 l 222 397 l 528 397 q 784 471 693 397 q 875 688 875 544 q 810 833 875 783 q 624 883 744 883 l 322 883 l 375 933 l 257 347 z "},"ř":{"ha":557,"x_min":65,"x_max":678,"o":"m 65 0 l 210 729 l 304 729 l 263 514 l 251 551 q 380 692 300 647 q 579 736 460 736 l 561 640 q 548 641 554 640 q 533 642 542 642 q 341 574 417 642 q 238 371 265 507 l 164 0 l 65 0 m 378 843 l 219 1015 l 308 1015 l 468 868 l 390 868 l 582 1015 l 678 1015 l 478 843 l 378 843 z "},"Ś":{"ha":854,"x_min":17,"x_max":850,"o":"m 369 -8 q 230 8 299 -8 q 106 52 161 24 q 17 115 50 81 l 67 196 q 149 135 100 161 q 258 94 199 108 q 378 79 318 79 q 528 101 464 79 q 629 167 593 124 q 665 271 665 210 q 638 349 665 319 q 565 398 610 379 q 467 432 521 417 q 358 465 413 447 q 259 510 304 483 q 187 579 214 536 q 160 688 160 622 q 210 845 160 779 q 347 946 260 911 q 549 981 435 981 q 715 960 635 981 q 850 897 794 939 l 807 814 q 686 873 754 853 q 543 893 618 893 q 394 869 458 893 q 295 802 331 846 q 260 697 260 758 q 287 618 260 649 q 359 568 314 588 q 458 533 404 549 q 567 499 513 517 q 666 456 621 482 q 739 390 711 431 q 767 285 767 349 q 715 126 767 192 q 574 26 664 60 q 369 -8 485 -8 z "},"ś":{"ha":678,"x_min":-12,"x_max":685,"o":"m 278 -7 q 110 18 189 -7 q -12 82 31 43 l 35 160 q 144 101 76 122 q 288 79 213 79 q 448 114 392 79 q 504 210 504 149 q 474 273 504 251 q 397 306 444 294 q 297 329 350 318 q 197 358 244 340 q 120 411 150 375 q 90 508 90 447 q 130 629 90 578 q 240 708 169 681 q 407 736 311 736 q 544 718 476 736 q 654 668 613 700 l 613 589 q 513 637 569 622 q 399 651 456 651 q 242 615 297 651 q 188 518 188 578 q 217 454 188 476 q 294 419 247 432 q 395 397 342 407 q 495 368 449 386 q 572 316 542 350 q 601 221 601 282 q 561 98 601 149 q 448 20 521 47 q 278 -7 375 -7 m 339 843 l 550 1015 l 685 1015 l 442 843 l 339 843 z "},"Ŝ":{"ha":854,"x_min":17,"x_max":850,"o":"m 369 -8 q 230 8 299 -8 q 106 52 161 24 q 17 115 50 81 l 67 196 q 149 135 100 161 q 258 94 199 108 q 378 79 318 79 q 528 101 464 79 q 629 167 593 124 q 665 271 665 210 q 638 349 665 319 q 565 398 610 379 q 467 432 521 417 q 358 465 413 447 q 259 510 304 483 q 187 579 214 536 q 160 688 160 622 q 210 845 160 779 q 347 946 260 911 q 549 981 435 981 q 715 960 635 981 q 850 897 794 939 l 807 814 q 686 873 754 853 q 543 893 618 893 q 394 869 458 893 q 295 802 331 846 q 260 697 260 758 q 287 618 260 649 q 359 568 314 588 q 458 533 404 549 q 567 499 513 517 q 666 456 621 482 q 739 390 711 431 q 767 285 767 349 q 715 126 767 192 q 574 26 664 60 q 369 -8 485 -8 z "},"ŝ":{"ha":678,"x_min":-12,"x_max":663,"o":"m 278 -7 q 110 18 189 -7 q -12 82 31 43 l 35 160 q 144 101 76 122 q 288 79 213 79 q 448 114 392 79 q 504 210 504 149 q 474 273 504 251 q 397 306 444 294 q 297 329 350 318 q 197 358 244 340 q 120 411 150 375 q 90 508 90 447 q 130 629 90 578 q 240 708 169 681 q 407 736 311 736 q 544 718 476 736 q 654 668 613 700 l 613 589 q 513 637 569 622 q 399 651 456 651 q 242 615 297 651 q 188 518 188 578 q 217 454 188 476 q 294 419 247 432 q 395 397 342 407 q 495 368 449 386 q 572 316 542 350 q 601 221 601 282 q 561 98 601 149 q 448 20 521 47 q 278 -7 375 -7 m 204 843 l 403 1015 l 503 1015 l 663 843 l 574 843 l 413 990 l 490 990 l 299 843 l 204 843 z "},"Ş":{"ha":854,"x_min":17,"x_max":850,"o":"m 369 -8 q 230 8 299 -8 q 106 52 161 24 q 17 115 50 81 l 67 196 q 149 135 100 161 q 258 94 199 108 q 378 79 318 79 q 528 101 464 79 q 629 167 593 124 q 665 271 665 210 q 638 349 665 319 q 565 398 610 379 q 467 432 521 417 q 358 465 413 447 q 259 510 304 483 q 187 579 214 536 q 160 688 160 622 q 210 845 160 779 q 347 946 260 911 q 549 981 435 981 q 715 960 635 981 q 850 897 794 939 l 807 814 q 686 873 754 853 q 543 893 618 893 q 394 869 458 893 q 295 802 331 846 q 260 697 260 758 q 287 618 260 649 q 359 568 314 588 q 458 533 404 549 q 567 499 513 517 q 666 456 621 482 q 739 390 711 431 q 767 285 767 349 q 715 126 767 192 q 574 26 664 60 q 369 -8 485 -8 m 290 -306 q 226 -297 256 -306 q 174 -274 196 -289 l 204 -221 q 247 -240 224 -233 q 297 -247 269 -247 q 367 -226 343 -247 q 392 -174 392 -206 q 372 -133 392 -147 q 315 -118 353 -118 l 285 -118 l 343 8 l 403 8 l 367 -71 q 438 -103 413 -78 q 464 -169 464 -129 q 416 -268 464 -231 q 290 -306 368 -306 z "},"ş":{"ha":678,"x_min":-12,"x_max":654,"o":"m 278 -7 q 110 18 189 -7 q -12 82 31 43 l 35 160 q 144 101 76 122 q 288 79 213 79 q 448 114 392 79 q 504 210 504 149 q 474 273 504 251 q 397 306 444 294 q 297 329 350 318 q 197 358 244 340 q 120 411 150 375 q 90 508 90 447 q 130 629 90 578 q 240 708 169 681 q 407 736 311 736 q 544 718 476 736 q 654 668 613 700 l 613 589 q 513 637 569 622 q 399 651 456 651 q 242 615 297 651 q 188 518 188 578 q 217 454 188 476 q 294 419 247 432 q 395 397 342 407 q 495 368 449 386 q 572 316 542 350 q 601 221 601 282 q 561 98 601 149 q 448 20 521 47 q 278 -7 375 -7 m 183 -306 q 119 -297 149 -306 q 67 -274 89 -289 l 97 -221 q 140 -240 117 -233 q 190 -247 163 -247 q 260 -226 236 -247 q 285 -174 285 -206 q 265 -133 285 -147 q 208 -118 246 -118 l 178 -118 l 236 8 l 296 8 l 260 -71 q 331 -103 306 -78 q 357 -169 357 -129 q 309 -268 357 -231 q 183 -306 261 -306 z "},"Š":{"ha":854,"x_min":17,"x_max":850,"o":"m 369 -8 q 230 8 299 -8 q 106 52 161 24 q 17 115 50 81 l 67 196 q 149 135 100 161 q 258 94 199 108 q 378 79 318 79 q 528 101 464 79 q 629 167 593 124 q 665 271 665 210 q 638 349 665 319 q 565 398 610 379 q 467 432 521 417 q 358 465 413 447 q 259 510 304 483 q 187 579 214 536 q 160 688 160 622 q 210 845 160 779 q 347 946 260 911 q 549 981 435 981 q 715 960 635 981 q 850 897 794 939 l 807 814 q 686 873 754 853 q 543 893 618 893 q 394 869 458 893 q 295 802 331 846 q 260 697 260 758 q 287 618 260 649 q 359 568 314 588 q 458 533 404 549 q 567 499 513 517 q 666 456 621 482 q 739 390 711 431 q 767 285 767 349 q 715 126 767 192 q 574 26 664 60 q 369 -8 485 -8 z "},"š":{"ha":678,"x_min":-12,"x_max":693,"o":"m 278 -7 q 110 18 189 -7 q -12 82 31 43 l 35 160 q 144 101 76 122 q 288 79 213 79 q 448 114 392 79 q 504 210 504 149 q 474 273 504 251 q 397 306 444 294 q 297 329 350 318 q 197 358 244 340 q 120 411 150 375 q 90 508 90 447 q 130 629 90 578 q 240 708 169 681 q 407 736 311 736 q 544 718 476 736 q 654 668 613 700 l 613 589 q 513 637 569 622 q 399 651 456 651 q 242 615 297 651 q 188 518 188 578 q 217 454 188 476 q 294 419 247 432 q 395 397 342 407 q 495 368 449 386 q 572 316 542 350 q 601 221 601 282 q 561 98 601 149 q 448 20 521 47 q 278 -7 375 -7 m 393 843 l 235 1015 l 324 1015 l 483 868 l 406 868 l 597 1015 l 693 1015 l 493 843 l 393 843 z "},"Ţ":{"ha":797,"x_min":108,"x_max":913,"o":"m 275 0 l 451 883 l 108 883 l 126 972 l 913 972 l 894 883 l 553 883 l 376 0 l 275 0 m 244 -306 q 180 -297 210 -306 q 128 -274 150 -289 l 158 -221 q 201 -240 178 -233 q 251 -247 224 -247 q 322 -226 297 -247 q 346 -174 346 -206 q 326 -133 346 -147 q 269 -118 307 -118 l 239 -118 l 297 8 l 357 8 l 321 -71 q 392 -103 367 -78 q 418 -169 418 -129 q 370 -268 418 -231 q 244 -306 322 -306 z "},"ţ":{"ha":564,"x_min":75,"x_max":547,"o":"m 297 -7 q 190 20 235 -7 q 128 97 146 47 q 125 217 111 147 l 258 890 l 357 890 l 224 221 q 234 115 210 153 q 324 78 258 78 q 383 87 354 78 q 436 115 413 96 l 460 40 q 382 3 425 14 q 297 -7 339 -7 m 81 647 l 96 729 l 547 729 l 531 647 l 81 647 m 192 -306 q 127 -297 157 -306 q 75 -274 97 -289 l 106 -221 q 148 -240 125 -233 q 199 -247 171 -247 q 269 -226 244 -247 q 293 -174 293 -206 q 274 -133 293 -147 q 217 -118 254 -118 l 186 -118 l 244 8 l 304 8 l 268 -71 q 340 -103 314 -78 q 365 -169 365 -129 q 317 -268 365 -231 q 192 -306 269 -306 z "},"Ť":{"ha":797,"x_min":108,"x_max":913,"o":"m 275 0 l 451 883 l 108 883 l 126 972 l 913 972 l 894 883 l 553 883 l 376 0 l 275 0 z "},"ť":{"ha":564,"x_min":81,"x_max":603,"o":"m 297 -7 q 190 20 235 -7 q 128 97 146 47 q 125 217 111 147 l 258 890 l 357 890 l 224 221 q 234 115 210 153 q 324 78 258 78 q 383 87 354 78 q 436 115 413 96 l 460 40 q 382 3 425 14 q 297 -7 339 -7 m 81 647 l 96 729 l 547 729 l 531 647 l 81 647 m 467 808 l 519 1069 l 603 1069 l 538 808 l 467 808 z "},"Ŧ":{"ha":797,"x_min":108,"x_max":913,"o":"m 275 0 l 451 883 l 108 883 l 126 972 l 913 972 l 894 883 l 553 883 l 376 0 l 275 0 m 143 438 l 160 519 l 697 519 l 681 438 l 143 438 z "},"ŧ":{"ha":578,"x_min":49,"x_max":554,"o":"m 304 -7 q 197 20 242 -7 q 135 97 153 47 q 132 217 118 147 l 265 890 l 364 890 l 231 221 q 241 115 217 153 q 331 78 265 78 q 390 87 361 78 q 443 115 419 96 l 467 40 q 389 3 432 14 q 304 -7 346 -7 m 88 647 l 103 729 l 554 729 l 538 647 l 88 647 m 49 374 l 63 444 l 482 444 l 468 374 l 49 374 z "},"Ũ":{"ha":1100,"x_min":136,"x_max":1069,"o":"m 499 -8 q 281 46 365 -8 q 167 196 197 100 q 161 414 136 292 l 272 972 l 374 972 l 263 414 q 254 281 247 342 q 291 175 261 219 q 375 107 321 131 q 508 83 429 83 q 678 120 608 83 q 791 229 747 157 q 857 407 835 301 l 969 972 l 1069 972 l 956 400 q 802 96 917 200 q 499 -8 688 -8 z "},"ũ":{"ha":933,"x_min":101,"x_max":869,"o":"m 371 -7 q 212 32 275 -7 q 125 143 149 71 q 119 314 101 215 l 203 729 l 301 729 l 218 314 q 242 144 197 206 q 397 82 286 82 q 590 146 513 82 q 693 338 667 210 l 771 729 l 869 729 l 724 0 l 629 0 l 671 210 l 692 175 q 556 37 640 81 q 371 -7 472 -7 m 667 851 q 610 865 635 851 q 567 898 586 879 q 528 931 547 917 q 485 946 508 946 q 433 922 454 946 q 406 857 413 897 l 346 857 q 394 969 357 929 q 486 1010 432 1010 q 542 995 518 1010 q 586 962 567 981 q 625 929 606 943 q 667 915 644 915 q 720 940 699 915 q 747 1001 742 964 l 807 1001 q 759 892 796 932 q 667 851 722 851 z "},"Ū":{"ha":1100,"x_min":136,"x_max":1069,"o":"m 499 -8 q 281 46 365 -8 q 167 196 197 100 q 161 414 136 292 l 272 972 l 374 972 l 263 414 q 254 281 247 342 q 291 175 261 219 q 375 107 321 131 q 508 83 429 83 q 678 120 608 83 q 791 229 747 157 q 857 407 835 301 l 969 972 l 1069 972 l 956 400 q 802 96 917 200 q 499 -8 688 -8 z "},"ū":{"ha":933,"x_min":101,"x_max":869,"o":"m 371 -7 q 212 32 275 -7 q 125 143 149 71 q 119 314 101 215 l 203 729 l 301 729 l 218 314 q 242 144 197 206 q 397 82 286 82 q 590 146 513 82 q 693 338 667 210 l 771 729 l 869 729 l 724 0 l 629 0 l 671 210 l 692 175 q 556 37 640 81 q 371 -7 472 -7 m 356 896 l 368 961 l 797 961 l 783 896 l 356 896 z "},"Ŭ":{"ha":1100,"x_min":136,"x_max":1069,"o":"m 499 -8 q 281 46 365 -8 q 167 196 197 100 q 161 414 136 292 l 272 972 l 374 972 l 263 414 q 254 281 247 342 q 291 175 261 219 q 375 107 321 131 q 508 83 429 83 q 678 120 608 83 q 791 229 747 157 q 857 407 835 301 l 969 972 l 1069 972 l 956 400 q 802 96 917 200 q 499 -8 688 -8 z "},"ŭ":{"ha":933,"x_min":101,"x_max":869,"o":"m 371 -7 q 212 32 275 -7 q 125 143 149 71 q 119 314 101 215 l 203 729 l 301 729 l 218 314 q 242 144 197 206 q 397 82 286 82 q 590 146 513 82 q 693 338 667 210 l 771 729 l 869 729 l 724 0 l 629 0 l 671 210 l 692 175 q 556 37 640 81 q 371 -7 472 -7 m 574 836 q 471 858 517 836 q 401 920 425 881 q 381 1015 376 960 l 449 1015 q 482 929 446 961 q 579 897 518 897 q 681 928 638 897 q 732 1015 724 960 l 804 1015 q 726 884 790 932 q 574 836 661 836 z "},"Ů":{"ha":1100,"x_min":136,"x_max":1069,"o":"m 499 -8 q 281 46 365 -8 q 167 196 197 100 q 161 414 136 292 l 272 972 l 374 972 l 263 414 q 254 281 247 342 q 291 175 261 219 q 375 107 321 131 q 508 83 429 83 q 678 120 608 83 q 791 229 747 157 q 857 407 835 301 l 969 972 l 1069 972 l 956 400 q 802 96 917 200 q 499 -8 688 -8 m 719 1069 q 645 1089 678 1069 q 594 1140 613 1108 q 575 1211 575 1172 q 594 1283 575 1250 q 645 1337 613 1317 q 719 1357 678 1357 q 794 1337 761 1357 q 845 1283 826 1317 q 864 1211 864 1250 q 845 1140 864 1172 q 794 1089 826 1108 q 719 1069 761 1069 m 719 1118 q 788 1145 761 1118 q 814 1211 814 1172 q 788 1280 814 1251 q 719 1308 761 1308 q 652 1281 679 1308 q 625 1211 625 1253 q 651 1144 625 1171 q 719 1118 678 1118 z "},"ů":{"ha":933,"x_min":101,"x_max":869,"o":"m 371 -7 q 212 32 275 -7 q 125 143 149 71 q 119 314 101 215 l 203 729 l 301 729 l 218 314 q 242 144 197 206 q 397 82 286 82 q 590 146 513 82 q 693 338 667 210 l 771 729 l 869 729 l 724 0 l 629 0 l 671 210 l 692 175 q 556 37 640 81 q 371 -7 472 -7 m 585 826 q 510 846 543 826 q 459 897 478 865 q 440 968 440 929 q 459 1040 440 1007 q 510 1094 478 1074 q 585 1114 543 1114 q 659 1094 626 1114 q 710 1040 692 1074 q 729 968 729 1007 q 710 897 729 929 q 659 846 692 865 q 585 826 626 826 m 585 875 q 653 902 626 875 q 679 968 679 929 q 653 1037 679 1008 q 585 1065 626 1065 q 517 1038 544 1065 q 490 968 490 1010 q 517 901 490 928 q 585 875 543 875 z "},"Ű":{"ha":1100,"x_min":136,"x_max":1069,"o":"m 499 -8 q 281 46 365 -8 q 167 196 197 100 q 161 414 136 292 l 272 972 l 374 972 l 263 414 q 254 281 247 342 q 291 175 261 219 q 375 107 321 131 q 508 83 429 83 q 678 120 608 83 q 791 229 747 157 q 857 407 835 301 l 969 972 l 1069 972 l 956 400 q 802 96 917 200 q 499 -8 688 -8 z "},"ű":{"ha":933,"x_min":101,"x_max":893,"o":"m 371 -7 q 212 32 275 -7 q 125 143 149 71 q 119 314 101 215 l 203 729 l 301 729 l 218 314 q 242 144 197 206 q 397 82 286 82 q 590 146 513 82 q 693 338 667 210 l 771 729 l 869 729 l 724 0 l 629 0 l 671 210 l 692 175 q 556 37 640 81 q 371 -7 472 -7 m 628 843 l 779 1015 l 893 1015 l 717 843 l 628 843 m 400 843 l 553 1015 l 667 1015 l 492 843 l 400 843 z "},"Ų":{"ha":1100,"x_min":149,"x_max":1069,"o":"m 508 83 q 677 119 608 83 q 790 228 746 156 q 829 308 813 264 q 857 407 846 353 l 969 972 l 1069 972 l 956 400 q 838 133 924 235 q 618 3 753 32 q 441 -80 497 -28 q 385 -181 385 -132 q 404 -228 385 -212 q 458 -244 424 -244 q 508 -237 483 -244 q 553 -218 532 -231 l 568 -272 q 511 -297 542 -287 q 443 -306 481 -306 q 347 -276 385 -306 q 310 -192 310 -246 q 347 -92 310 -140 q 456 -6 385 -43 q 443 -6 449 -6 q 432 -4 438 -6 q 259 60 328 6 q 164 204 190 115 q 149 304 150 251 q 161 414 149 357 l 272 972 l 374 972 l 263 417 q 253 292 249 350 q 282 190 258 233 q 367 111 311 139 q 508 83 424 83 z "},"ų":{"ha":933,"x_min":101,"x_max":869,"o":"m 371 -7 q 212 32 275 -7 q 125 143 149 71 q 119 314 101 215 l 203 729 l 301 729 l 218 314 q 242 144 197 206 q 397 82 286 82 q 590 146 513 82 q 693 338 667 210 l 771 729 l 869 729 l 724 0 l 629 0 l 671 210 l 692 175 q 556 37 640 81 q 371 -7 472 -7 m 579 -306 q 482 -276 519 -306 q 444 -192 444 -246 q 471 -105 444 -146 q 550 -27 497 -64 q 682 40 603 10 l 724 0 q 611 -55 657 -25 q 542 -115 565 -85 q 519 -181 519 -146 q 540 -228 519 -211 q 593 -244 560 -244 q 643 -237 618 -244 q 688 -218 668 -231 l 703 -272 q 646 -297 676 -287 q 579 -306 615 -306 z "},"Ŵ":{"ha":1543,"x_min":171,"x_max":1615,"o":"m 304 0 l 171 972 l 272 972 l 397 58 l 346 58 l 844 972 l 940 972 l 1068 58 l 1018 58 l 1513 972 l 1615 972 l 1093 0 l 985 0 l 860 865 l 889 867 l 413 0 l 304 0 z "},"ŵ":{"ha":1221,"x_min":79,"x_max":1289,"o":"m 222 0 l 79 729 l 169 729 l 299 53 l 254 53 l 640 729 l 724 729 l 857 53 l 813 53 l 1193 729 l 1289 729 l 876 0 l 781 0 l 650 636 l 681 636 l 317 0 l 222 0 m 478 843 l 676 1015 l 776 1015 l 936 843 l 847 843 l 686 990 l 764 990 l 572 843 l 478 843 z "},"Ŷ":{"ha":882,"x_min":122,"x_max":1001,"o":"m 317 0 l 389 364 l 400 294 l 122 972 l 225 972 l 468 381 l 413 379 l 892 972 l 1001 972 l 456 293 l 490 364 l 418 0 l 317 0 z "},"ŷ":{"ha":753,"x_min":-146,"x_max":825,"o":"m 28 -276 q -71 -259 -24 -276 q -146 -211 -118 -242 l -93 -139 q -37 -178 -69 -164 q 35 -192 -6 -192 q 122 -166 82 -192 q 204 -74 161 -140 l 278 39 l 290 53 l 724 729 l 825 729 l 292 -94 q 206 -203 246 -164 q 123 -260 165 -243 q 28 -276 81 -276 m 261 -21 l 74 729 l 174 729 l 338 60 l 261 -21 m 224 843 l 422 1015 l 522 1015 l 682 843 l 593 843 l 432 990 l 510 990 l 318 843 l 224 843 z "},"Ÿ":{"ha":882,"x_min":122,"x_max":1001,"o":"m 317 0 l 389 364 l 400 294 l 122 972 l 225 972 l 468 381 l 413 379 l 892 972 l 1001 972 l 456 293 l 490 364 l 418 0 l 317 0 z "},"Ź":{"ha":904,"x_min":-11,"x_max":965,"o":"m -11 0 l 3 71 l 842 922 l 850 883 l 176 883 l 194 972 l 965 972 l 951 901 l 111 50 l 104 89 l 804 89 l 786 0 l -11 0 z "},"ź":{"ha":710,"x_min":-15,"x_max":717,"o":"m -15 0 l -3 65 l 600 681 l 622 647 l 124 647 l 140 729 l 717 729 l 703 665 l 101 49 l 75 82 l 596 82 l 579 0 l -15 0 m 357 843 l 568 1015 l 703 1015 l 460 843 l 357 843 z "},"Ż":{"ha":904,"x_min":-11,"x_max":965,"o":"m -11 0 l 3 71 l 842 922 l 850 883 l 176 883 l 194 972 l 965 972 l 951 901 l 111 50 l 104 89 l 804 89 l 786 0 l -11 0 z "},"ż":{"ha":710,"x_min":-15,"x_max":717,"o":"m -15 0 l -3 65 l 600 681 l 622 647 l 124 647 l 140 729 l 717 729 l 703 665 l 101 49 l 75 82 l 596 82 l 579 0 l -15 0 m 467 875 q 422 892 439 875 q 404 935 404 908 q 425 988 404 967 q 475 1008 446 1008 q 519 992 501 1008 q 538 949 538 975 q 517 896 538 917 q 467 875 496 875 z "},"Ž":{"ha":904,"x_min":-11,"x_max":965,"o":"m -11 0 l 3 71 l 842 922 l 850 883 l 176 883 l 194 972 l 965 972 l 951 901 l 111 50 l 104 89 l 804 89 l 786 0 l -11 0 z "},"ž":{"ha":710,"x_min":-15,"x_max":717,"o":"m -15 0 l -3 65 l 600 681 l 622 647 l 124 647 l 140 729 l 717 729 l 703 665 l 101 49 l 75 82 l 596 82 l 579 0 l -15 0 m 411 843 l 253 1015 l 342 1015 l 501 868 l 424 868 l 615 1015 l 711 1015 l 511 843 l 411 843 z "},"ſ":{"ha":410,"x_min":96,"x_max":658,"o":"m 96 0 l 261 822 q 345 981 282 925 q 511 1038 408 1038 q 594 1025 556 1038 q 658 990 633 1013 l 614 918 q 511 954 575 954 q 410 920 447 954 q 357 811 372 886 l 194 0 l 96 0 m 96 647 l 111 729 l 300 729 l 283 647 l 96 647 z "},"Ə":{"ha":1135,"x_min":85,"x_max":1094,"o":"m 524 -8 q 289 42 388 -8 q 138 183 190 93 q 85 392 85 274 q 89 449 85 419 q 101 521 93 479 l 1006 521 l 989 433 l 154 433 l 193 479 q 188 438 190 456 q 185 397 185 421 q 226 228 185 300 q 345 119 267 157 q 533 81 424 81 q 722 119 638 81 q 867 226 807 158 q 959 383 926 294 q 992 572 992 472 q 953 738 992 667 q 836 849 914 808 q 644 889 758 889 q 465 860 549 889 q 324 778 382 831 l 272 853 q 438 947 339 913 q 653 981 538 981 q 892 930 794 981 q 1042 788 990 879 q 1094 576 1094 697 q 1054 351 1094 457 q 939 165 1014 246 q 759 38 864 83 q 524 -8 654 -8 z "},"ƒ":{"ha":611,"x_min":-239,"x_max":783,"o":"m -87 -276 q -175 -263 -135 -276 q -239 -226 -215 -250 l -186 -154 q -86 -192 -150 -192 q 15 -157 -29 -192 q 81 -54 58 -122 l 365 821 q 469 981 399 924 q 640 1038 539 1038 q 722 1026 685 1038 q 783 990 760 1014 l 729 915 q 688 944 714 935 q 631 953 661 953 q 526 918 569 953 q 460 815 483 883 l 424 706 l 413 660 l 175 -67 q 78 -221 144 -165 q -87 -276 11 -276 m 175 636 l 200 718 l 651 718 l 626 636 l 175 636 z "},"Ơ":{"ha":1165,"x_min":89,"x_max":1207,"o":"m 539 -8 q 294 42 396 -8 q 141 184 193 93 q 89 396 89 275 q 129 621 89 515 q 247 808 169 726 q 432 935 324 889 q 675 981 540 981 q 794 976 743 981 q 891 965 844 971 q 992 958 938 958 q 1097 987 1060 958 q 1133 1065 1133 1015 q 1126 1114 1133 1092 q 1106 1154 1118 1136 l 1171 1181 q 1197 1126 1188 1157 q 1207 1063 1207 1096 q 1183 969 1207 1010 q 1115 908 1160 929 q 1010 888 1071 888 q 963 890 985 888 q 919 893 940 892 l 953 904 q 1081 770 1038 854 q 1125 576 1125 686 q 1085 351 1125 457 q 967 165 1044 246 q 782 38 890 83 q 539 -8 674 -8 m 549 83 q 744 122 657 83 q 894 228 832 160 q 990 384 957 296 q 1024 572 1024 472 q 983 738 1024 667 q 863 849 942 808 q 665 889 783 889 q 469 851 557 889 q 320 744 382 813 q 224 588 258 676 q 190 400 190 500 q 231 235 190 307 q 351 124 272 164 q 549 83 431 83 z "},"ơ":{"ha":871,"x_min":58,"x_max":881,"o":"m 390 -7 q 215 31 289 -7 q 99 139 140 69 q 58 303 58 208 q 113 526 58 428 q 263 680 167 624 q 481 736 358 736 q 572 735 536 736 q 638 731 608 733 q 701 728 667 728 q 778 753 749 728 q 808 825 808 778 q 800 873 808 851 q 781 914 792 894 l 844 939 q 872 885 863 915 q 881 822 881 854 q 859 733 881 769 q 797 676 838 696 q 703 657 757 657 q 649 659 674 657 q 592 664 624 661 l 668 688 q 774 585 736 650 q 813 428 813 519 q 758 205 813 303 q 609 50 704 107 q 390 -7 514 -7 m 397 81 q 560 124 489 81 q 673 246 632 168 q 714 422 714 324 q 651 590 714 531 q 474 650 588 650 q 311 606 383 650 q 198 484 239 561 q 157 307 157 407 q 220 140 157 200 q 397 81 283 81 z "},"Ư":{"ha":1107,"x_min":136,"x_max":1208,"o":"m 499 -8 q 281 46 365 -8 q 167 196 197 100 q 161 414 136 292 l 272 972 l 374 972 l 263 414 q 254 281 247 342 q 291 175 261 219 q 375 107 321 131 q 508 83 429 83 q 678 120 608 83 q 791 229 747 157 q 857 407 835 301 l 969 972 l 1069 972 l 956 400 q 802 96 917 200 q 499 -8 688 -8 m 1022 897 l 1022 972 l 1043 972 q 1113 1000 1092 972 q 1135 1067 1135 1028 q 1127 1115 1135 1093 q 1107 1156 1119 1138 l 1172 1181 q 1199 1127 1189 1157 q 1208 1064 1208 1097 q 1190 978 1208 1015 q 1134 919 1171 940 q 1043 897 1097 897 l 1022 897 z "},"ư":{"ha":942,"x_min":101,"x_max":985,"o":"m 371 -7 q 212 32 275 -7 q 125 143 149 71 q 119 314 101 215 l 203 729 l 301 729 l 218 314 q 242 144 197 206 q 397 82 286 82 q 590 146 513 82 q 693 338 667 210 l 771 729 l 869 729 l 724 0 l 629 0 l 671 210 l 692 175 q 556 37 640 81 q 371 -7 472 -7 m 799 654 l 799 729 l 819 729 q 890 757 868 729 q 911 824 911 785 q 903 872 911 850 q 883 913 896 894 l 949 938 q 975 884 965 914 q 985 821 985 854 q 966 735 985 772 q 910 676 947 697 q 819 654 874 654 l 799 654 z "},"Ʒ":{"ha":824,"x_min":-4,"x_max":825,"o":"m 331 -8 q 131 26 218 -8 q -4 118 43 61 l 53 196 q 164 115 90 147 q 336 83 238 83 q 492 110 426 83 q 592 188 557 138 q 626 304 626 238 q 569 430 626 388 q 392 472 511 472 l 329 472 l 343 546 l 715 921 l 726 883 l 183 883 l 201 972 l 825 972 l 813 901 l 440 525 l 393 557 l 417 557 q 587 527 518 557 q 692 442 656 497 q 729 310 729 388 q 679 144 729 217 q 540 32 629 72 q 331 -8 450 -8 z "},"Ǆ":{"ha":2022,"x_min":86,"x_max":2074,"o":"m 86 0 l 281 972 l 650 972 q 899 923 797 972 q 1055 785 1001 874 q 1108 576 1108 697 q 1066 342 1108 449 q 944 160 1024 236 q 753 42 864 83 q 504 0 642 0 l 86 0 m 206 89 l 507 89 q 773 151 661 89 q 945 323 885 214 q 1006 572 1006 432 q 965 735 1006 665 q 844 844 925 806 q 639 883 763 883 l 364 883 l 206 89 m 1097 0 l 1111 71 l 1950 922 l 1958 883 l 1285 883 l 1303 972 l 2074 972 l 2060 901 l 1219 50 l 1213 89 l 1913 89 l 1894 0 l 1097 0 z "},"ǅ":{"ha":1857,"x_min":86,"x_max":1864,"o":"m 86 0 l 281 972 l 650 972 q 899 923 797 972 q 1055 785 1001 874 q 1108 576 1108 697 q 1066 342 1108 449 q 944 160 1024 236 q 753 42 864 83 q 504 0 642 0 l 86 0 m 206 89 l 507 89 q 773 151 661 89 q 945 323 885 214 q 1006 572 1006 432 q 965 735 1006 665 q 844 844 925 806 q 639 883 763 883 l 364 883 l 206 89 m 1132 0 l 1144 65 l 1747 681 l 1769 647 l 1271 647 l 1288 729 l 1864 729 l 1850 665 l 1249 49 l 1222 82 l 1743 82 l 1726 0 l 1132 0 m 1558 843 l 1400 1015 l 1489 1015 l 1649 868 l 1571 868 l 1763 1015 l 1858 1015 l 1658 843 l 1558 843 z "},"ǆ":{"ha":1651,"x_min":58,"x_max":1658,"o":"m 376 -7 q 211 31 283 -7 q 99 138 139 68 q 58 303 58 207 q 89 475 58 396 q 175 613 119 554 q 306 704 231 672 q 471 736 382 736 q 633 702 567 736 q 736 603 700 668 q 772 447 772 539 q 745 265 772 349 q 665 121 718 182 q 540 26 613 60 q 376 -7 467 -7 m 397 81 q 560 124 489 81 q 673 246 632 168 q 714 422 714 324 q 651 590 714 531 q 474 650 588 650 q 311 606 383 650 q 198 484 239 561 q 157 307 157 407 q 220 140 157 200 q 397 81 283 81 m 638 0 l 679 210 l 721 357 l 735 510 l 839 1031 l 938 1031 l 732 0 l 638 0 m 926 0 l 939 65 l 1542 681 l 1564 647 l 1065 647 l 1082 729 l 1658 729 l 1644 665 l 1043 49 l 1017 82 l 1538 82 l 1521 0 l 926 0 m 1353 843 l 1194 1015 l 1283 1015 l 1443 868 l 1365 868 l 1557 1015 l 1653 1015 l 1453 843 l 1353 843 z "},"Ǉ":{"ha":1514,"x_min":86,"x_max":1485,"o":"m 86 0 l 281 972 l 382 972 l 206 89 l 750 89 l 732 0 l 86 0 m 1032 -8 q 869 29 938 -8 q 767 132 800 67 l 839 197 q 916 112 865 143 q 1035 81 967 81 q 1173 128 1119 81 q 1249 290 1226 176 l 1367 883 l 1013 883 l 1031 972 l 1485 972 l 1349 290 q 1285 115 1328 181 q 1180 21 1243 50 q 1032 -8 1117 -8 z "},"ǈ":{"ha":1199,"x_min":86,"x_max":1203,"o":"m 86 0 l 281 972 l 382 972 l 206 89 l 750 89 l 732 0 l 86 0 m 731 -276 q 644 -265 683 -276 q 576 -231 604 -253 l 622 -154 q 732 -192 665 -192 q 827 -159 792 -192 q 878 -53 863 -126 l 1035 729 l 1133 729 l 976 -56 q 731 -276 932 -276 m 1125 890 q 1077 910 1096 890 q 1058 956 1058 929 q 1080 1008 1058 986 q 1135 1031 1101 1031 q 1183 1013 1164 1031 q 1203 967 1203 994 q 1181 912 1203 933 q 1125 890 1158 890 z "},"ǉ":{"ha":756,"x_min":65,"x_max":758,"o":"m 65 0 l 271 1031 l 369 1031 l 164 0 l 65 0 m 286 -276 q 199 -265 239 -276 q 132 -231 160 -253 l 178 -154 q 288 -192 221 -192 q 383 -159 347 -192 q 433 -53 418 -126 l 590 729 l 689 729 l 532 -56 q 286 -276 488 -276 m 681 890 q 633 910 651 890 q 614 956 614 929 q 635 1008 614 986 q 690 1031 657 1031 q 739 1013 719 1031 q 758 967 758 994 q 736 912 758 933 q 681 890 714 890 z "},"Ǌ":{"ha":1826,"x_min":86,"x_max":1796,"o":"m 86 0 l 281 972 l 364 972 l 854 124 l 822 129 l 990 972 l 1092 972 l 897 0 l 814 0 l 324 849 l 356 843 l 188 0 l 86 0 m 1343 -8 q 1180 29 1249 -8 q 1078 132 1111 67 l 1150 197 q 1227 112 1176 143 q 1346 81 1278 81 q 1484 128 1431 81 q 1560 290 1538 176 l 1678 883 l 1324 883 l 1342 972 l 1796 972 l 1660 290 q 1597 115 1639 181 q 1491 21 1554 50 q 1343 -8 1428 -8 z "},"ǋ":{"ha":1510,"x_min":86,"x_max":1514,"o":"m 86 0 l 281 972 l 364 972 l 854 124 l 822 129 l 990 972 l 1092 972 l 897 0 l 814 0 l 324 849 l 356 843 l 188 0 l 86 0 m 1042 -276 q 955 -265 994 -276 q 888 -231 915 -253 l 933 -154 q 1043 -192 976 -192 q 1138 -159 1103 -192 q 1189 -53 1174 -126 l 1346 729 l 1444 729 l 1288 -56 q 1042 -276 1243 -276 m 1436 890 q 1388 910 1407 890 q 1369 956 1369 929 q 1391 1008 1369 986 q 1446 1031 1413 1031 q 1494 1013 1475 1031 q 1514 967 1514 994 q 1492 912 1514 933 q 1436 890 1469 890 z "},"ǌ":{"ha":1321,"x_min":65,"x_max":1324,"o":"m 567 736 q 728 698 665 736 q 816 588 792 660 q 819 415 840 515 l 736 0 l 638 0 l 721 417 q 698 586 743 525 q 539 647 653 647 q 345 583 422 647 q 242 392 268 519 l 164 0 l 65 0 l 210 729 l 304 729 l 263 519 l 242 556 q 378 693 294 650 q 567 736 463 736 m 851 -276 q 765 -265 804 -276 q 697 -231 725 -253 l 743 -154 q 853 -192 786 -192 q 948 -159 913 -192 q 999 -53 983 -126 l 1156 729 l 1254 729 l 1097 -56 q 851 -276 1053 -276 m 1246 890 q 1198 910 1217 890 q 1179 956 1179 929 q 1201 1008 1179 986 q 1256 1031 1222 1031 q 1304 1013 1285 1031 q 1324 967 1324 994 q 1301 912 1324 933 q 1246 890 1279 890 z "},"Ǎ":{"ha":996,"x_min":-69,"x_max":921,"o":"m -69 0 l 569 972 l 671 972 l 921 0 l 818 0 l 590 915 l 632 915 l 42 0 l -69 0 m 157 260 l 204 343 l 769 343 l 785 260 l 157 260 z "},"ǎ":{"ha":942,"x_min":58,"x_max":878,"o":"m 376 -7 q 211 31 283 -7 q 99 138 139 68 q 58 303 58 207 q 89 475 58 396 q 175 613 119 554 q 306 704 231 672 q 471 736 382 736 q 633 702 567 736 q 736 603 700 668 q 772 447 772 539 q 724 213 772 315 q 586 51 675 110 q 376 -7 497 -7 m 397 81 q 560 124 489 81 q 673 246 632 168 q 714 422 714 324 q 651 590 714 531 q 474 650 588 650 q 311 606 383 650 q 198 484 239 561 q 157 307 157 407 q 220 140 157 200 q 397 81 283 81 m 638 0 l 679 210 l 721 357 l 735 510 l 779 729 l 878 729 l 732 0 l 638 0 m 513 843 l 354 1015 l 443 1015 l 603 868 l 525 868 l 717 1015 l 813 1015 l 613 843 l 513 843 z "},"Ǔ":{"ha":1100,"x_min":136,"x_max":1069,"o":"m 499 -8 q 281 46 365 -8 q 167 196 197 100 q 161 414 136 292 l 272 972 l 374 972 l 263 414 q 254 281 247 342 q 291 175 261 219 q 375 107 321 131 q 508 83 429 83 q 678 120 608 83 q 791 229 747 157 q 857 407 835 301 l 969 972 l 1069 972 l 956 400 q 802 96 917 200 q 499 -8 688 -8 z "},"ǔ":{"ha":933,"x_min":101,"x_max":869,"o":"m 371 -7 q 212 32 275 -7 q 125 143 149 71 q 119 314 101 215 l 203 729 l 301 729 l 218 314 q 242 144 197 206 q 397 82 286 82 q 590 146 513 82 q 693 338 667 210 l 771 729 l 869 729 l 724 0 l 629 0 l 671 210 l 692 175 q 556 37 640 81 q 371 -7 472 -7 m 519 843 l 361 1015 l 450 1015 l 610 868 l 532 868 l 724 1015 l 819 1015 l 619 843 l 519 843 z "},"Ǥ":{"ha":1119,"x_min":89,"x_max":1089,"o":"m 551 286 l 567 369 l 1089 369 l 1072 286 l 551 286 m 543 -8 q 299 42 400 -8 q 143 184 197 93 q 89 396 89 275 q 130 621 89 515 q 248 808 171 726 q 435 935 325 889 q 682 981 544 981 q 897 944 804 981 q 1043 839 989 907 l 971 776 q 848 862 921 835 q 678 889 775 889 q 476 851 565 889 q 323 746 386 813 q 225 590 260 679 q 190 400 190 501 q 231 235 190 307 q 353 124 272 164 q 554 83 435 83 q 715 113 642 83 q 850 196 788 142 l 892 113 q 734 24 825 57 q 543 -8 643 -8 m 797 128 l 868 486 l 967 486 l 892 113 l 797 128 z "},"ǥ":{"ha":961,"x_min":13,"x_max":889,"o":"m 336 -276 q 151 -248 235 -276 q 13 -167 68 -219 l 69 -92 q 185 -162 114 -136 q 343 -189 257 -189 q 558 -125 482 -189 q 661 72 635 -61 l 699 264 l 738 383 l 751 508 l 794 729 l 889 729 l 761 89 q 619 -190 724 -104 q 336 -276 515 -276 m 313 -86 l 325 -15 l 828 -15 l 814 -86 l 313 -86 m 385 49 q 216 83 289 49 q 103 181 143 117 q 63 335 63 246 q 116 539 63 449 q 264 683 169 629 q 479 736 358 736 q 635 706 567 736 q 742 617 703 676 q 782 467 782 557 q 735 255 783 350 q 597 104 686 160 q 385 49 508 49 m 404 132 q 567 172 496 132 q 681 284 639 213 q 722 446 722 356 q 658 598 722 543 q 481 653 594 653 q 317 613 389 653 q 204 501 246 572 q 163 339 163 429 q 226 186 163 240 q 404 132 290 132 z "},"Ǧ":{"ha":1074,"x_min":89,"x_max":1043,"o":"m 543 -8 q 299 42 400 -8 q 143 184 197 93 q 89 396 89 275 q 130 621 89 515 q 248 808 171 726 q 435 935 325 889 q 682 981 544 981 q 897 944 804 981 q 1043 839 989 907 l 971 776 q 848 862 921 835 q 678 889 775 889 q 476 851 565 889 q 323 746 386 813 q 225 590 260 679 q 190 400 190 501 q 231 235 190 307 q 353 124 272 164 q 554 83 435 83 q 715 113 642 83 q 850 196 788 142 l 892 113 q 734 24 825 57 q 543 -8 643 -8 m 797 128 l 868 486 l 967 486 l 892 113 l 797 128 z "},"ǧ":{"ha":951,"x_min":10,"x_max":888,"o":"m 335 -276 q 150 -248 233 -276 q 10 -167 67 -219 l 68 -92 q 184 -162 113 -136 q 342 -189 256 -189 q 557 -125 481 -189 q 658 72 633 -61 l 697 264 l 735 383 l 750 508 l 793 729 l 888 729 l 760 89 q 618 -190 722 -104 q 335 -276 514 -276 m 383 28 q 215 64 288 28 q 101 166 142 100 q 61 322 61 232 q 92 486 61 411 q 178 617 122 561 q 310 705 233 674 q 478 736 386 736 q 633 706 565 736 q 741 614 701 675 q 781 458 781 553 q 733 241 782 339 q 596 85 685 143 q 383 28 507 28 m 403 115 q 566 157 494 115 q 679 272 638 199 q 721 438 721 344 q 657 594 721 538 q 479 650 593 650 q 315 608 388 650 q 202 494 243 567 q 161 328 161 421 q 225 172 161 228 q 403 115 289 115 m 507 843 l 349 1015 l 438 1015 l 597 868 l 519 868 l 711 1015 l 807 1015 l 607 843 l 507 843 z "},"Ǩ":{"ha":988,"x_min":86,"x_max":1078,"o":"m 226 244 l 242 371 l 943 972 l 1078 972 l 553 521 l 492 471 l 226 244 m 86 0 l 281 972 l 382 972 l 188 0 l 86 0 m 792 0 l 461 483 l 531 551 l 907 0 l 792 0 z "},"ǩ":{"ha":819,"x_min":65,"x_max":874,"o":"m 183 194 l 203 315 l 733 729 l 874 729 l 475 419 l 421 378 l 183 194 m 65 0 l 271 1031 l 369 1031 l 164 0 l 65 0 m 635 0 l 404 379 l 472 453 l 750 0 l 635 0 m 303 1144 l 144 1317 l 233 1317 l 393 1169 l 315 1169 l 507 1317 l 603 1317 l 403 1144 l 303 1144 z "},"Ǫ":{"ha":1165,"x_min":89,"x_max":1125,"o":"m 460 -306 q 363 -276 400 -306 q 326 -192 326 -246 q 373 -74 326 -131 q 525 19 419 -18 l 539 -8 q 294 42 396 -8 q 141 184 193 93 q 89 396 89 275 q 129 621 89 515 q 247 808 169 726 q 432 935 324 889 q 675 981 540 981 q 920 930 819 981 q 1073 788 1021 879 q 1125 576 1125 697 q 1069 316 1125 436 q 912 114 1014 196 q 671 4 810 32 q 513 -46 572 -15 q 426 -111 453 -76 q 400 -181 400 -146 q 420 -228 400 -211 q 474 -244 440 -244 q 524 -237 499 -244 q 568 -218 549 -231 l 583 -272 q 526 -297 557 -287 q 460 -306 496 -306 m 549 83 q 744 122 657 83 q 894 228 832 160 q 990 384 957 296 q 1024 572 1024 472 q 983 738 1024 667 q 863 849 942 808 q 665 889 783 889 q 469 851 557 889 q 320 744 382 813 q 224 588 258 676 q 190 400 190 500 q 231 235 190 307 q 351 124 272 164 q 549 83 431 83 z "},"ǫ":{"ha":871,"x_min":58,"x_max":813,"o":"m 346 -306 q 249 -276 286 -306 q 213 -192 213 -246 q 257 -77 213 -132 q 400 18 301 -22 l 440 -4 q 413 -6 425 -6 q 390 -7 401 -7 q 215 31 289 -7 q 99 139 140 69 q 58 303 58 208 q 113 526 58 428 q 263 680 167 624 q 481 736 358 736 q 656 699 582 736 q 772 592 731 661 q 813 428 813 522 q 778 244 813 328 q 678 101 743 161 q 521 11 613 42 q 387 -48 439 -17 q 310 -112 335 -79 q 286 -181 286 -146 q 306 -228 286 -211 q 360 -244 326 -244 q 410 -237 385 -244 q 454 -218 435 -231 l 469 -272 q 413 -297 444 -287 q 346 -306 382 -306 m 397 81 q 560 124 489 81 q 673 246 632 168 q 714 422 714 324 q 651 590 714 531 q 474 650 588 650 q 311 606 383 650 q 198 484 239 561 q 157 307 157 407 q 220 140 157 200 q 397 81 283 81 z "},"Ǯ":{"ha":824,"x_min":-4,"x_max":825,"o":"m 331 -8 q 131 26 218 -8 q -4 118 43 61 l 53 196 q 164 115 90 147 q 336 83 238 83 q 492 110 426 83 q 592 188 557 138 q 626 304 626 238 q 569 430 626 388 q 392 472 511 472 l 329 472 l 343 546 l 715 921 l 726 883 l 183 883 l 201 972 l 825 972 l 813 901 l 440 525 l 393 557 l 417 557 q 587 527 518 557 q 692 442 656 497 q 729 310 729 388 q 679 144 729 217 q 540 32 629 72 q 331 -8 450 -8 z "},"ǯ":{"ha":710,"x_min":-131,"x_max":706,"o":"m 406 843 l 247 1015 l 336 1015 l 496 868 l 418 868 l 610 1015 l 706 1015 l 506 843 l 406 843 z "},"Ǻ":{"ha":996,"x_min":-69,"x_max":921,"o":"m -69 0 l 569 972 l 671 972 l 921 0 l 818 0 l 590 915 l 632 915 l 42 0 l -69 0 m 157 260 l 204 343 l 769 343 l 785 260 l 157 260 m 668 1069 q 594 1089 626 1069 q 542 1140 561 1108 q 524 1211 524 1172 q 542 1283 524 1250 q 594 1337 561 1317 q 668 1357 626 1357 q 742 1337 710 1357 q 794 1283 775 1317 q 813 1211 813 1250 q 794 1140 813 1172 q 742 1089 775 1108 q 668 1069 710 1069 m 668 1118 q 736 1145 710 1118 q 763 1211 763 1172 q 736 1280 763 1251 q 668 1308 710 1308 q 601 1281 628 1308 q 574 1211 574 1253 q 600 1144 574 1171 q 668 1118 626 1118 m 775 1289 l 718 1310 l 858 1449 l 913 1404 l 775 1289 z "},"ǻ":{"ha":942,"x_min":58,"x_max":878,"o":"m 376 -7 q 211 31 283 -7 q 99 138 139 68 q 58 303 58 207 q 89 475 58 396 q 175 613 119 554 q 306 704 231 672 q 471 736 382 736 q 633 702 567 736 q 736 603 700 668 q 772 447 772 539 q 724 213 772 315 q 586 51 675 110 q 376 -7 497 -7 m 397 81 q 560 124 489 81 q 673 246 632 168 q 714 422 714 324 q 651 590 714 531 q 474 650 588 650 q 311 606 383 650 q 198 484 239 561 q 157 307 157 407 q 220 140 157 200 q 397 81 283 81 m 638 0 l 679 210 l 721 357 l 735 510 l 779 729 l 878 729 l 732 0 l 638 0 m 578 826 q 503 846 536 826 q 452 897 471 865 q 433 968 433 929 q 452 1040 433 1007 q 503 1094 471 1074 q 578 1114 536 1114 q 652 1094 619 1114 q 703 1040 685 1074 q 722 968 722 1007 q 703 897 722 929 q 652 846 685 865 q 578 826 619 826 m 578 875 q 646 902 619 875 q 672 968 672 929 q 646 1037 672 1008 q 578 1065 619 1065 q 510 1038 538 1065 q 483 968 483 1010 q 510 901 483 928 q 578 875 536 875 m 685 1046 l 628 1067 l 768 1206 l 822 1161 l 685 1046 z "},"Ǽ":{"ha":1435,"x_min":-71,"x_max":1453,"o":"m -71 0 l 711 972 l 819 972 l 804 885 l 713 885 l 785 925 l 44 0 l -71 0 m 215 260 l 243 343 l 694 343 l 678 260 l 215 260 m 592 0 l 786 972 l 1453 972 l 1435 883 l 869 883 l 711 89 l 1296 89 l 1278 0 l 592 0 m 772 450 l 790 538 l 1304 538 l 1286 450 l 772 450 z "},"ǽ":{"ha":1371,"x_min":44,"x_max":1314,"o":"m 304 -7 q 164 17 222 -7 q 75 83 106 40 q 44 186 44 126 q 124 351 44 289 q 354 413 203 413 l 608 413 l 597 339 l 347 339 q 195 300 249 339 q 142 192 142 261 q 184 102 142 133 q 314 71 226 71 q 428 94 375 71 q 519 163 482 117 q 571 279 557 210 l 606 450 q 583 599 626 547 q 432 650 539 650 q 294 626 361 650 q 181 565 228 603 l 147 643 q 237 694 188 674 q 340 726 286 715 q 446 736 393 736 q 638 681 575 736 q 700 525 701 625 l 651 533 q 740 644 688 599 q 858 713 793 689 q 993 736 924 736 q 1162 699 1090 736 q 1274 593 1233 663 q 1314 426 1314 524 q 1311 381 1314 404 q 1303 339 1308 358 l 661 339 l 674 413 l 1257 413 l 1214 383 q 1202 531 1228 471 q 1121 622 1176 590 q 989 653 1065 653 q 832 609 901 653 q 723 488 763 565 q 683 308 683 411 q 747 138 683 194 q 936 81 811 81 q 1072 105 1013 81 q 1174 172 1132 129 l 1219 101 q 1090 22 1167 50 q 928 -7 1013 -7 q 772 21 842 -7 q 656 106 701 49 q 599 250 611 164 l 651 247 q 572 99 626 154 q 449 18 518 43 q 304 -7 379 -7 m 638 842 l 849 1014 l 983 1014 l 740 842 l 638 842 z "},"Ǿ":{"ha":1165,"x_min":25,"x_max":1186,"o":"m 539 -8 q 294 42 396 -8 q 141 184 193 93 q 89 396 89 275 q 129 621 89 515 q 247 808 169 726 q 432 935 324 889 q 675 981 540 981 q 920 930 819 981 q 1073 788 1021 879 q 1125 576 1125 697 q 1085 351 1125 457 q 967 165 1044 246 q 782 38 890 83 q 539 -8 674 -8 m 549 83 q 744 122 657 83 q 894 228 832 160 q 990 384 957 296 q 1024 572 1024 472 q 983 738 1024 667 q 863 849 942 808 q 665 889 783 889 q 469 851 557 889 q 320 744 382 813 q 224 588 258 676 q 190 400 190 500 q 231 235 190 307 q 351 124 272 164 q 549 83 431 83 m 25 -97 l 1100 1069 l 1186 1069 l 113 -97 l 25 -97 z "},"ǿ":{"ha":871,"x_min":0,"x_max":867,"o":"m 390 -7 q 215 31 289 -7 q 99 139 140 69 q 58 303 58 208 q 113 526 58 428 q 263 680 167 624 q 481 736 358 736 q 656 699 582 736 q 772 592 731 661 q 813 428 813 522 q 758 205 813 303 q 609 50 704 107 q 390 -7 514 -7 m 397 81 q 560 124 489 81 q 673 246 632 168 q 714 422 714 324 q 651 590 714 531 q 474 650 588 650 q 311 606 383 650 q 198 484 239 561 q 157 307 157 407 q 220 140 157 200 q 397 81 283 81 m 0 -97 l 796 826 l 867 826 l 71 -97 l 0 -97 m 435 843 l 646 1015 l 781 1015 l 538 843 l 435 843 z "},"Ȁ":{"ha":996,"x_min":-69,"x_max":921,"o":"m -69 0 l 569 972 l 671 972 l 921 0 l 818 0 l 590 915 l 632 915 l 42 0 l -69 0 m 157 260 l 204 343 l 769 343 l 785 260 l 157 260 z "},"ȁ":{"ha":942,"x_min":58,"x_max":878,"o":"m 376 -7 q 211 31 283 -7 q 99 138 139 68 q 58 303 58 207 q 89 475 58 396 q 175 613 119 554 q 306 704 231 672 q 471 736 382 736 q 633 702 567 736 q 736 603 700 668 q 772 447 772 539 q 724 213 772 315 q 586 51 675 110 q 376 -7 497 -7 m 397 81 q 560 124 489 81 q 673 246 632 168 q 714 422 714 324 q 651 590 714 531 q 474 650 588 650 q 311 606 383 650 q 198 484 239 561 q 157 307 157 407 q 220 140 157 200 q 397 81 283 81 m 638 0 l 679 210 l 721 357 l 735 510 l 779 729 l 878 729 l 732 0 l 638 0 m 624 843 l 500 1015 l 607 1015 l 707 843 l 624 843 m 397 843 l 274 1015 l 382 1015 l 482 843 l 397 843 z "},"Ȃ":{"ha":996,"x_min":-69,"x_max":921,"o":"m -69 0 l 569 972 l 671 972 l 921 0 l 818 0 l 590 915 l 632 915 l 42 0 l -69 0 m 157 260 l 204 343 l 769 343 l 785 260 l 157 260 z "},"ȃ":{"ha":942,"x_min":58,"x_max":878,"o":"m 376 -7 q 211 31 283 -7 q 99 138 139 68 q 58 303 58 207 q 89 475 58 396 q 175 613 119 554 q 306 704 231 672 q 471 736 382 736 q 633 702 567 736 q 736 603 700 668 q 772 447 772 539 q 724 213 772 315 q 586 51 675 110 q 376 -7 497 -7 m 397 81 q 560 124 489 81 q 673 246 632 168 q 714 422 714 324 q 651 590 714 531 q 474 650 588 650 q 311 606 383 650 q 198 484 239 561 q 157 307 157 407 q 220 140 157 200 q 397 81 283 81 m 638 0 l 679 210 l 721 357 l 735 510 l 779 729 l 878 729 l 732 0 l 638 0 m 340 843 q 419 974 354 926 q 571 1022 483 1022 q 673 1000 628 1022 q 743 938 718 978 q 764 843 768 899 l 696 843 q 663 930 699 897 q 565 963 626 963 q 463 930 507 963 q 411 843 419 897 l 340 843 z "},"Ȅ":{"ha":929,"x_min":86,"x_max":947,"o":"m 285 538 l 799 538 l 782 450 l 268 450 l 285 538 m 206 89 l 790 89 l 772 0 l 86 0 l 281 972 l 947 972 l 929 883 l 364 883 l 206 89 z "},"ȅ":{"ha":839,"x_min":58,"x_max":781,"o":"m 399 -7 q 217 31 294 -7 q 99 139 140 69 q 58 304 58 208 q 111 526 58 429 q 256 680 164 624 q 463 736 347 736 q 631 699 560 736 q 741 593 701 663 q 781 426 781 524 q 778 381 781 404 q 771 338 775 358 l 131 338 l 143 411 l 725 411 l 685 383 q 672 531 699 471 q 591 622 646 590 q 460 653 536 653 q 301 609 371 653 q 193 488 232 565 q 154 308 154 411 q 217 140 154 199 q 407 81 281 81 q 543 105 481 81 q 646 172 606 129 l 690 101 q 562 22 639 50 q 399 -7 485 -7 m 578 842 l 454 1014 l 561 1014 l 661 842 l 578 842 m 351 842 l 228 1014 l 336 1014 l 436 842 l 351 842 z "},"Ȇ":{"ha":929,"x_min":86,"x_max":947,"o":"m 285 538 l 799 538 l 782 450 l 268 450 l 285 538 m 206 89 l 790 89 l 772 0 l 86 0 l 281 972 l 947 972 l 929 883 l 364 883 l 206 89 z "},"ȇ":{"ha":839,"x_min":58,"x_max":781,"o":"m 399 -7 q 217 31 294 -7 q 99 139 140 69 q 58 304 58 208 q 111 526 58 429 q 256 680 164 624 q 463 736 347 736 q 631 699 560 736 q 741 593 701 663 q 781 426 781 524 q 778 381 781 404 q 771 338 775 358 l 131 338 l 143 411 l 725 411 l 685 383 q 672 531 699 471 q 591 622 646 590 q 460 653 536 653 q 301 609 371 653 q 193 488 232 565 q 154 308 154 411 q 217 140 154 199 q 407 81 281 81 q 543 105 481 81 q 646 172 606 129 l 690 101 q 562 22 639 50 q 399 -7 485 -7 m 294 842 q 373 973 308 925 q 525 1021 438 1021 q 627 999 582 1021 q 697 937 672 976 q 718 842 722 897 l 650 842 q 617 928 653 896 q 519 961 581 961 q 417 928 461 961 q 365 842 374 896 l 294 842 z "},"Ȉ":{"ha":419,"x_min":68,"x_max":501,"o":"m 86 0 l 281 972 l 382 972 l 188 0 l 86 0 z "},"ȉ":{"ha":374,"x_min":4,"x_max":438,"o":"m 65 0 l 210 729 l 308 729 l 164 0 l 65 0 m 354 843 l 231 1015 l 338 1015 l 438 843 l 354 843 m 128 843 l 4 1015 l 113 1015 l 213 843 l 128 843 z "},"Ȋ":{"ha":419,"x_min":86,"x_max":563,"o":"m 86 0 l 281 972 l 382 972 l 188 0 l 86 0 z "},"ȋ":{"ha":374,"x_min":65,"x_max":467,"o":"m 65 0 l 210 729 l 308 729 l 164 0 l 65 0 m 106 843 q 167 975 117 929 q 301 1021 218 1021 q 392 999 354 1021 q 449 938 431 978 q 460 843 467 897 l 396 843 q 376 930 403 899 q 297 961 350 961 q 174 843 188 961 l 106 843 z "},"Ȍ":{"ha":1165,"x_min":89,"x_max":1125,"o":"m 539 -8 q 294 42 396 -8 q 141 184 193 93 q 89 396 89 275 q 129 621 89 515 q 247 808 169 726 q 432 935 324 889 q 675 981 540 981 q 920 930 819 981 q 1073 788 1021 879 q 1125 576 1125 697 q 1085 351 1125 457 q 967 165 1044 246 q 782 38 890 83 q 539 -8 674 -8 m 549 83 q 744 122 657 83 q 894 228 832 160 q 990 384 957 296 q 1024 572 1024 472 q 983 738 1024 667 q 863 849 942 808 q 665 889 783 889 q 469 851 557 889 q 320 744 382 813 q 224 588 258 676 q 190 400 190 500 q 231 235 190 307 q 351 124 272 164 q 549 83 431 83 z "},"ȍ":{"ha":871,"x_min":58,"x_max":813,"o":"m 390 -7 q 215 31 289 -7 q 99 139 140 69 q 58 303 58 208 q 113 526 58 428 q 263 680 167 624 q 481 736 358 736 q 656 699 582 736 q 772 592 731 661 q 813 428 813 522 q 758 205 813 303 q 609 50 704 107 q 390 -7 514 -7 m 397 81 q 560 124 489 81 q 673 246 632 168 q 714 422 714 324 q 651 590 714 531 q 474 650 588 650 q 311 606 383 650 q 198 484 239 561 q 157 307 157 407 q 220 140 157 200 q 397 81 283 81 m 600 843 l 476 1015 l 583 1015 l 683 843 l 600 843 m 374 843 l 250 1015 l 358 1015 l 458 843 l 374 843 z "},"Ȏ":{"ha":1165,"x_min":89,"x_max":1125,"o":"m 539 -8 q 294 42 396 -8 q 141 184 193 93 q 89 396 89 275 q 129 621 89 515 q 247 808 169 726 q 432 935 324 889 q 675 981 540 981 q 920 930 819 981 q 1073 788 1021 879 q 1125 576 1125 697 q 1085 351 1125 457 q 967 165 1044 246 q 782 38 890 83 q 539 -8 674 -8 m 549 83 q 744 122 657 83 q 894 228 832 160 q 990 384 957 296 q 1024 572 1024 472 q 983 738 1024 667 q 863 849 942 808 q 665 889 783 889 q 469 851 557 889 q 320 744 382 813 q 224 588 258 676 q 190 400 190 500 q 231 235 190 307 q 351 124 272 164 q 549 83 431 83 z "},"ȏ":{"ha":871,"x_min":58,"x_max":813,"o":"m 390 -7 q 215 31 289 -7 q 99 139 140 69 q 58 303 58 208 q 113 526 58 428 q 263 680 167 624 q 481 736 358 736 q 656 699 582 736 q 772 592 731 661 q 813 428 813 522 q 758 205 813 303 q 609 50 704 107 q 390 -7 514 -7 m 397 81 q 560 124 489 81 q 673 246 632 168 q 714 422 714 324 q 651 590 714 531 q 474 650 588 650 q 311 606 383 650 q 198 484 239 561 q 157 307 157 407 q 220 140 157 200 q 397 81 283 81 m 317 843 q 395 974 331 926 q 547 1022 460 1022 q 649 1000 604 1022 q 719 938 694 978 q 740 843 744 899 l 672 843 q 639 930 675 897 q 542 963 603 963 q 440 930 483 963 q 388 843 396 897 l 317 843 z "},"Ȑ":{"ha":1004,"x_min":86,"x_max":978,"o":"m 86 0 l 281 972 l 631 972 q 887 900 796 972 q 978 697 978 828 q 923 487 978 574 q 767 354 868 400 q 526 308 665 308 l 206 308 l 260 356 l 189 0 l 86 0 m 751 0 l 553 353 l 663 353 l 863 0 l 751 0 m 257 347 l 222 397 l 528 397 q 784 471 693 397 q 875 688 875 544 q 810 833 875 783 q 624 883 744 883 l 322 883 l 375 933 l 257 347 z "},"ȑ":{"ha":557,"x_min":65,"x_max":579,"o":"m 65 0 l 210 729 l 304 729 l 263 514 l 251 551 q 380 692 300 647 q 579 736 460 736 l 561 640 q 548 641 554 640 q 533 642 542 642 q 341 574 417 642 q 238 371 265 507 l 164 0 l 65 0 m 489 843 l 365 1015 l 472 1015 l 572 843 l 489 843 m 263 843 l 139 1015 l 247 1015 l 347 843 l 263 843 z "},"Ȓ":{"ha":1004,"x_min":86,"x_max":978,"o":"m 86 0 l 281 972 l 631 972 q 887 900 796 972 q 978 697 978 828 q 923 487 978 574 q 767 354 868 400 q 526 308 665 308 l 206 308 l 260 356 l 189 0 l 86 0 m 751 0 l 553 353 l 663 353 l 863 0 l 751 0 m 257 347 l 222 397 l 528 397 q 784 471 693 397 q 875 688 875 544 q 810 833 875 783 q 624 883 744 883 l 322 883 l 375 933 l 257 347 z "},"ȓ":{"ha":557,"x_min":65,"x_max":633,"o":"m 65 0 l 210 729 l 304 729 l 263 514 l 251 551 q 380 692 300 647 q 579 736 460 736 l 561 640 q 548 641 554 640 q 533 642 542 642 q 341 574 417 642 q 238 371 265 507 l 164 0 l 65 0 m 206 843 q 284 974 219 926 q 436 1022 349 1022 q 538 1000 493 1022 q 608 938 583 978 q 629 843 633 899 l 561 843 q 528 930 564 897 q 431 963 492 963 q 328 930 372 963 q 276 843 285 897 l 206 843 z "},"Ȕ":{"ha":1100,"x_min":136,"x_max":1069,"o":"m 499 -8 q 281 46 365 -8 q 167 196 197 100 q 161 414 136 292 l 272 972 l 374 972 l 263 414 q 254 281 247 342 q 291 175 261 219 q 375 107 321 131 q 508 83 429 83 q 678 120 608 83 q 791 229 747 157 q 857 407 835 301 l 969 972 l 1069 972 l 956 400 q 802 96 917 200 q 499 -8 688 -8 z "},"ȕ":{"ha":933,"x_min":101,"x_max":869,"o":"m 371 -7 q 212 32 275 -7 q 125 143 149 71 q 119 314 101 215 l 203 729 l 301 729 l 218 314 q 242 144 197 206 q 397 82 286 82 q 590 146 513 82 q 693 338 667 210 l 771 729 l 869 729 l 724 0 l 629 0 l 671 210 l 692 175 q 556 37 640 81 q 371 -7 472 -7 m 631 843 l 507 1015 l 614 1015 l 714 843 l 631 843 m 404 843 l 281 1015 l 389 1015 l 489 843 l 404 843 z "},"Ȗ":{"ha":1100,"x_min":136,"x_max":1069,"o":"m 499 -8 q 281 46 365 -8 q 167 196 197 100 q 161 414 136 292 l 272 972 l 374 972 l 263 414 q 254 281 247 342 q 291 175 261 219 q 375 107 321 131 q 508 83 429 83 q 678 120 608 83 q 791 229 747 157 q 857 407 835 301 l 969 972 l 1069 972 l 956 400 q 802 96 917 200 q 499 -8 688 -8 z "},"ȗ":{"ha":933,"x_min":101,"x_max":869,"o":"m 371 -7 q 212 32 275 -7 q 125 143 149 71 q 119 314 101 215 l 203 729 l 301 729 l 218 314 q 242 144 197 206 q 397 82 286 82 q 590 146 513 82 q 693 338 667 210 l 771 729 l 869 729 l 724 0 l 629 0 l 671 210 l 692 175 q 556 37 640 81 q 371 -7 472 -7 m 347 843 q 426 974 361 926 q 578 1022 490 1022 q 680 1000 635 1022 q 750 938 725 978 q 771 843 775 899 l 703 843 q 669 930 706 897 q 572 963 633 963 q 470 930 514 963 q 418 843 426 897 l 347 843 z "},"Ș":{"ha":854,"x_min":17,"x_max":850,"o":"m 369 -8 q 230 8 299 -8 q 106 52 161 24 q 17 115 50 81 l 67 196 q 149 135 100 161 q 258 94 199 108 q 378 79 318 79 q 528 101 464 79 q 629 167 593 124 q 665 271 665 210 q 638 349 665 319 q 565 398 610 379 q 467 432 521 417 q 358 465 413 447 q 259 510 304 483 q 187 579 214 536 q 160 688 160 622 q 210 845 160 779 q 347 946 260 911 q 549 981 435 981 q 715 960 635 981 q 850 897 794 939 l 807 814 q 686 873 754 853 q 543 893 618 893 q 394 869 458 893 q 295 802 331 846 q 260 697 260 758 q 287 618 260 649 q 359 568 314 588 q 458 533 404 549 q 567 499 513 517 q 666 456 621 482 q 739 390 711 431 q 767 285 767 349 q 715 126 767 192 q 574 26 664 60 q 369 -8 485 -8 m 254 -364 l 322 -214 l 328 -253 q 288 -238 303 -253 q 272 -204 272 -224 q 288 -161 272 -178 q 332 -144 304 -144 q 376 -159 361 -144 q 392 -194 392 -174 q 386 -224 392 -211 q 367 -258 381 -237 l 307 -364 l 254 -364 z "},"ș":{"ha":678,"x_min":-12,"x_max":654,"o":"m 278 -7 q 110 18 189 -7 q -12 82 31 43 l 35 160 q 144 101 76 122 q 288 79 213 79 q 448 114 392 79 q 504 210 504 149 q 474 273 504 251 q 397 306 444 294 q 297 329 350 318 q 197 358 244 340 q 120 411 150 375 q 90 508 90 447 q 130 629 90 578 q 240 708 169 681 q 407 736 311 736 q 544 718 476 736 q 654 668 613 700 l 613 589 q 513 637 569 622 q 399 651 456 651 q 242 615 297 651 q 188 518 188 578 q 217 454 188 476 q 294 419 247 432 q 395 397 342 407 q 495 368 449 386 q 572 316 542 350 q 601 221 601 282 q 561 98 601 149 q 448 20 521 47 q 278 -7 375 -7 m 147 -364 l 215 -214 l 221 -253 q 181 -238 196 -253 q 165 -204 165 -224 q 181 -161 165 -178 q 225 -144 197 -144 q 269 -159 254 -144 q 285 -194 285 -174 q 279 -224 285 -211 q 260 -258 274 -237 l 200 -364 l 147 -364 z "},"Ț":{"ha":797,"x_min":108,"x_max":913,"o":"m 275 0 l 451 883 l 108 883 l 126 972 l 913 972 l 894 883 l 553 883 l 376 0 l 275 0 m 208 -364 l 276 -214 l 282 -253 q 242 -238 257 -253 q 226 -204 226 -224 q 242 -161 226 -178 q 286 -144 258 -144 q 331 -159 315 -144 q 346 -194 346 -174 q 340 -224 346 -211 q 321 -258 335 -237 l 261 -364 l 208 -364 z "},"ț":{"ha":564,"x_min":81,"x_max":547,"o":"m 297 -7 q 190 20 235 -7 q 128 97 146 47 q 125 217 111 147 l 258 890 l 357 890 l 224 221 q 234 115 210 153 q 324 78 258 78 q 383 87 354 78 q 436 115 413 96 l 460 40 q 382 3 425 14 q 297 -7 339 -7 m 81 647 l 96 729 l 547 729 l 531 647 l 81 647 m 156 -364 l 224 -214 l 229 -253 q 189 -238 204 -253 q 174 -204 174 -224 q 190 -161 174 -178 q 233 -144 206 -144 q 278 -159 263 -144 q 293 -194 293 -174 q 288 -224 293 -211 q 268 -258 282 -237 l 208 -364 l 156 -364 z "},"Ȟ":{"ha":1129,"x_min":86,"x_max":1092,"o":"m 990 972 l 1092 972 l 897 0 l 796 0 l 990 972 m 188 0 l 86 0 l 281 972 l 382 972 l 188 0 m 896 449 l 268 449 l 285 539 l 914 539 l 896 449 z "},"ȟ":{"ha":939,"x_min":65,"x_max":840,"o":"m 567 736 q 728 698 665 736 q 816 588 792 660 q 819 415 840 515 l 736 0 l 638 0 l 721 417 q 698 586 743 525 q 539 647 653 647 q 345 583 422 647 q 242 392 268 519 l 164 0 l 65 0 l 271 1031 l 369 1031 l 267 519 l 242 556 q 378 693 294 650 q 567 736 463 736 m 303 1144 l 144 1317 l 233 1317 l 393 1169 l 315 1169 l 507 1317 l 603 1317 l 403 1144 l 303 1144 z "},"Ȫ":{"ha":1165,"x_min":89,"x_max":1125,"o":"m 539 -8 q 294 42 396 -8 q 141 184 193 93 q 89 396 89 275 q 129 621 89 515 q 247 808 169 726 q 432 935 324 889 q 675 981 540 981 q 920 930 819 981 q 1073 788 1021 879 q 1125 576 1125 697 q 1085 351 1125 457 q 967 165 1044 246 q 782 38 890 83 q 539 -8 674 -8 m 549 83 q 744 122 657 83 q 894 228 832 160 q 990 384 957 296 q 1024 572 1024 472 q 983 738 1024 667 q 863 849 942 808 q 665 889 783 889 q 469 851 557 889 q 320 744 382 813 q 224 588 258 676 q 190 400 190 500 q 231 235 190 307 q 351 124 272 164 q 549 83 431 83 z "},"ȫ":{"ha":871,"x_min":58,"x_max":813,"o":"m 390 -7 q 215 31 289 -7 q 99 139 140 69 q 58 303 58 208 q 113 526 58 428 q 263 680 167 624 q 481 736 358 736 q 656 699 582 736 q 772 592 731 661 q 813 428 813 522 q 758 205 813 303 q 609 50 704 107 q 390 -7 514 -7 m 397 81 q 560 124 489 81 q 673 246 632 168 q 714 422 714 324 q 651 590 714 531 q 474 650 588 650 q 311 606 383 650 q 198 484 239 561 q 157 307 157 407 q 220 140 157 200 q 397 81 283 81 z "},"Ȭ":{"ha":1165,"x_min":89,"x_max":1125,"o":"m 539 -8 q 294 42 396 -8 q 141 184 193 93 q 89 396 89 275 q 129 621 89 515 q 247 808 169 726 q 432 935 324 889 q 675 981 540 981 q 920 930 819 981 q 1073 788 1021 879 q 1125 576 1125 697 q 1085 351 1125 457 q 967 165 1044 246 q 782 38 890 83 q 539 -8 674 -8 m 549 83 q 744 122 657 83 q 894 228 832 160 q 990 384 957 296 q 1024 572 1024 472 q 983 738 1024 667 q 863 849 942 808 q 665 889 783 889 q 469 851 557 889 q 320 744 382 813 q 224 588 258 676 q 190 400 190 500 q 231 235 190 307 q 351 124 272 164 q 549 83 431 83 z "},"ȭ":{"ha":871,"x_min":58,"x_max":813,"o":"m 390 -7 q 215 31 289 -7 q 99 139 140 69 q 58 303 58 208 q 113 526 58 428 q 263 680 167 624 q 481 736 358 736 q 656 699 582 736 q 772 592 731 661 q 813 428 813 522 q 758 205 813 303 q 609 50 704 107 q 390 -7 514 -7 m 397 81 q 560 124 489 81 q 673 246 632 168 q 714 422 714 324 q 651 590 714 531 q 474 650 588 650 q 311 606 383 650 q 198 484 239 561 q 157 307 157 407 q 220 140 157 200 q 397 81 283 81 z "},"Ȱ":{"ha":1165,"x_min":89,"x_max":1125,"o":"m 539 -8 q 294 42 396 -8 q 141 184 193 93 q 89 396 89 275 q 129 621 89 515 q 247 808 169 726 q 432 935 324 889 q 675 981 540 981 q 920 930 819 981 q 1073 788 1021 879 q 1125 576 1125 697 q 1085 351 1125 457 q 967 165 1044 246 q 782 38 890 83 q 539 -8 674 -8 m 549 83 q 744 122 657 83 q 894 228 832 160 q 990 384 957 296 q 1024 572 1024 472 q 983 738 1024 667 q 863 849 942 808 q 665 889 783 889 q 469 851 557 889 q 320 744 382 813 q 224 588 258 676 q 190 400 190 500 q 231 235 190 307 q 351 124 272 164 q 549 83 431 83 z "},"ȱ":{"ha":871,"x_min":58,"x_max":813,"o":"m 390 -7 q 215 31 289 -7 q 99 139 140 69 q 58 303 58 208 q 113 526 58 428 q 263 680 167 624 q 481 736 358 736 q 656 699 582 736 q 772 592 731 661 q 813 428 813 522 q 758 205 813 303 q 609 50 704 107 q 390 -7 514 -7 m 397 81 q 560 124 489 81 q 673 246 632 168 q 714 422 714 324 q 651 590 714 531 q 474 650 588 650 q 311 606 383 650 q 198 484 239 561 q 157 307 157 407 q 220 140 157 200 q 397 81 283 81 z "},"Ȳ":{"ha":882,"x_min":122,"x_max":1001,"o":"m 317 0 l 389 364 l 400 294 l 122 972 l 225 972 l 468 381 l 413 379 l 892 972 l 1001 972 l 456 293 l 490 364 l 418 0 l 317 0 z "},"ȳ":{"ha":753,"x_min":-146,"x_max":825,"o":"m 28 -276 q -71 -259 -24 -276 q -146 -211 -118 -242 l -93 -139 q -37 -178 -69 -164 q 35 -192 -6 -192 q 122 -166 82 -192 q 204 -74 161 -140 l 278 39 l 290 53 l 724 729 l 825 729 l 292 -94 q 206 -203 246 -164 q 123 -260 165 -243 q 28 -276 81 -276 m 261 -21 l 74 729 l 174 729 l 338 60 l 261 -21 m 249 896 l 261 961 l 690 961 l 676 896 l 249 896 z "},"ȷ":{"ha":381,"x_min":-242,"x_max":315,"o":"m -87 -276 q -174 -265 -135 -276 q -242 -231 -214 -253 l -196 -154 q -86 -192 -153 -192 q 9 -159 -26 -192 q 60 -53 44 -126 l 217 729 l 315 729 l 158 -56 q -87 -276 114 -276 z "},"ə":{"ha":839,"x_min":58,"x_max":781,"o":"m 440 736 q 622 699 546 736 q 740 592 699 661 q 781 425 781 522 q 728 204 781 301 q 584 50 675 107 q 375 -7 493 -7 q 208 31 279 -7 q 97 138 136 68 q 58 303 58 207 q 60 350 58 328 q 68 392 63 372 l 707 392 l 694 318 l 114 318 l 154 346 q 166 200 140 260 q 248 109 192 140 q 379 78 304 78 q 538 122 469 78 q 645 243 607 165 q 683 421 683 321 q 621 590 683 531 q 432 650 558 650 q 297 625 358 650 q 192 557 235 600 l 149 628 q 277 708 200 681 q 440 736 354 736 z "},"ʒ":{"ha":715,"x_min":-131,"x_max":701,"o":"m 200 -278 q 22 -247 108 -278 q -131 -149 -65 -215 l -79 -69 q 53 -157 -24 -129 q 207 -185 129 -185 q 351 -158 283 -185 q 459 -80 418 -132 q 500 49 500 -28 q 445 178 500 132 q 269 225 390 225 l 204 225 l 215 294 l 592 681 l 600 640 l 60 640 l 78 729 l 701 729 l 689 660 l 306 272 l 267 300 l 290 300 q 523 235 443 300 q 603 51 603 171 q 569 -90 603 -29 q 479 -193 536 -151 q 350 -256 422 -235 q 200 -278 278 -278 z "},"ʹ":{"ha":281,"x_min":151,"x_max":306,"o":"m 151 606 l 218 972 l 306 972 l 225 606 l 151 606 z "},"ʺ":{"ha":518,"x_min":153,"x_max":544,"o":"m 390 606 l 456 972 l 544 972 l 464 606 l 390 606 m 153 606 l 218 972 l 307 972 l 226 606 l 153 606 z "},"ʻ":{"ha":369,"x_min":183,"x_max":382,"o":"m 382 1167 l 269 910 l 261 972 q 311 951 290 972 q 332 900 332 931 q 309 843 332 865 q 254 821 286 821 q 204 842 225 821 q 183 892 183 863 q 190 927 183 911 q 208 965 196 943 l 315 1167 l 382 1167 z "},"ʼ":{"ha":313,"x_min":153,"x_max":350,"o":"m 153 692 l 264 947 l 274 886 q 222 907 243 886 q 201 958 201 928 q 225 1015 201 993 q 279 1038 249 1038 q 330 1017 310 1038 q 350 965 350 997 q 344 931 350 947 q 325 892 338 915 l 219 692 l 153 692 z "},"ʾ":{"ha":833,"x_min":510,"x_max":683,"o":"m 519 881 q 528 879 524 879 q 538 879 532 879 q 604 906 578 879 q 631 974 631 933 q 610 1033 631 1008 q 557 1065 590 1058 l 565 1114 q 651 1065 618 1104 q 683 975 683 1026 q 665 902 683 935 q 613 849 646 869 q 538 829 581 829 q 524 829 531 829 q 510 831 517 829 l 519 881 z "},"ʿ":{"ha":833,"x_min":392,"x_max":565,"o":"m 556 1063 q 547 1064 550 1064 q 538 1064 543 1064 q 471 1036 497 1064 q 444 968 444 1008 q 465 909 444 933 q 518 878 485 885 l 510 829 q 424 878 457 839 q 392 968 392 918 q 411 1041 392 1008 q 463 1094 431 1074 q 538 1114 496 1114 q 551 1114 544 1114 q 565 1111 557 1114 l 556 1063 z "},"ˆ":{"ha":833,"x_min":283,"x_max":742,"o":"m 283 843 l 482 1015 l 582 1015 l 742 843 l 653 843 l 492 990 l 569 990 l 378 843 l 283 843 z "},"ˇ":{"ha":833,"x_min":314,"x_max":772,"o":"m 472 843 l 314 1015 l 403 1015 l 563 868 l 485 868 l 676 1015 l 772 1015 l 572 843 l 472 843 z "},"ˈ":{"ha":231,"x_min":150,"x_max":272,"o":"m 150 713 l 201 972 l 272 972 l 221 713 l 150 713 z "},"ˉ":{"ha":833,"x_min":310,"x_max":751,"o":"m 310 896 l 322 961 l 751 961 l 738 896 l 310 896 z "},"ˊ":{"ha":833,"x_min":418,"x_max":764,"o":"m 418 843 l 629 1015 l 764 1015 l 521 843 l 418 843 z "},"ˋ":{"ha":833,"x_min":314,"x_max":603,"o":"m 504 843 l 314 1015 l 444 1015 l 603 843 l 504 843 z "},"ˌ":{"ha":232,"x_min":-53,"x_max":71,"o":"m -53 -301 l -1 -42 l 71 -42 l 18 -301 l -53 -301 z "},"˘":{"ha":833,"x_min":329,"x_max":757,"o":"m 526 836 q 424 858 469 836 q 353 920 378 881 q 333 1015 329 960 l 401 1015 q 435 929 399 961 q 532 897 471 897 q 633 928 590 897 q 685 1015 676 960 l 757 1015 q 678 884 743 932 q 526 836 614 836 z "},"˙":{"ha":833,"x_min":465,"x_max":599,"o":"m 528 875 q 483 892 500 875 q 465 935 465 908 q 486 988 465 967 q 536 1008 507 1008 q 581 992 563 1008 q 599 949 599 975 q 578 896 599 917 q 528 875 557 875 z "},"˚":{"ha":833,"x_min":393,"x_max":682,"o":"m 538 826 q 463 846 496 826 q 412 897 431 865 q 393 968 393 929 q 412 1040 393 1007 q 463 1094 431 1074 q 538 1114 496 1114 q 612 1094 579 1114 q 663 1040 644 1074 q 682 968 682 1007 q 663 897 682 929 q 612 846 644 865 q 538 826 579 826 m 538 875 q 606 902 579 875 q 632 968 632 929 q 606 1037 632 1008 q 538 1065 579 1065 q 470 1038 497 1065 q 443 968 443 1010 q 469 901 443 928 q 538 875 496 875 z "},"˛":{"ha":833,"x_min":65,"x_max":344,"o":"m 200 -306 q 103 -276 140 -306 q 65 -192 65 -246 q 92 -105 65 -146 q 171 -27 118 -64 q 303 40 224 10 l 344 0 q 232 -55 278 -25 q 163 -115 186 -85 q 140 -181 140 -146 q 160 -228 140 -211 q 214 -244 181 -244 q 264 -237 239 -244 q 308 -218 289 -231 l 324 -272 q 267 -297 297 -287 q 200 -306 236 -306 z "},"˜":{"ha":833,"x_min":299,"x_max":760,"o":"m 619 851 q 563 865 588 851 q 519 898 539 879 q 481 931 500 917 q 438 946 461 946 q 386 922 407 946 q 358 857 365 897 l 299 857 q 347 969 310 929 q 439 1010 385 1010 q 495 995 471 1010 q 539 962 519 981 q 578 929 558 943 q 619 915 597 915 q 673 940 651 915 q 700 1001 694 964 l 760 1001 q 712 892 749 932 q 619 851 675 851 z "},"˝":{"ha":833,"x_min":353,"x_max":846,"o":"m 581 843 l 732 1015 l 846 1015 l 669 843 l 581 843 m 353 843 l 506 1015 l 619 1015 l 444 843 l 353 843 z "},"̀":{"ha":0,"x_min":314,"x_max":603,"o":"m 504 843 l 314 1015 l 444 1015 l 603 843 l 504 843 z "},"́":{"ha":0,"x_min":418,"x_max":764,"o":"m 418 843 l 629 1015 l 764 1015 l 521 843 l 418 843 z "},"̂":{"ha":0,"x_min":283,"x_max":742,"o":"m 283 843 l 482 1015 l 582 1015 l 742 843 l 653 843 l 492 990 l 569 990 l 378 843 l 283 843 z "},"̃":{"ha":0,"x_min":299,"x_max":760,"o":"m 619 851 q 563 865 588 851 q 519 898 539 879 q 481 931 500 917 q 438 946 461 946 q 386 922 407 946 q 358 857 365 897 l 299 857 q 347 969 310 929 q 439 1010 385 1010 q 495 995 471 1010 q 539 962 519 981 q 578 929 558 943 q 619 915 597 915 q 673 940 651 915 q 700 1001 694 964 l 760 1001 q 712 892 749 932 q 619 851 675 851 z "},"̄":{"ha":0,"x_min":308,"x_max":750,"o":"m 308 896 l 321 961 l 750 961 l 736 896 l 308 896 z "},"̆":{"ha":0,"x_min":329,"x_max":757,"o":"m 526 836 q 424 858 469 836 q 353 920 378 881 q 333 1015 329 960 l 401 1015 q 435 929 399 961 q 532 897 471 897 q 633 928 590 897 q 685 1015 676 960 l 757 1015 q 678 884 743 932 q 526 836 614 836 z "},"̇":{"ha":0,"x_min":465,"x_max":599,"o":"m 528 875 q 483 892 500 875 q 465 935 465 908 q 486 988 465 967 q 536 1008 507 1008 q 581 992 563 1008 q 599 949 599 975 q 578 896 599 917 q 528 875 557 875 z "},"̈":{"ha":0,"x_min":346,"x_max":714,"o":"m 650 875 q 610 890 626 875 q 594 928 594 906 q 613 976 594 957 q 657 994 632 994 q 697 979 681 994 q 714 939 714 964 q 695 893 714 911 q 650 875 676 875 m 403 875 q 363 890 379 875 q 346 928 346 906 q 365 976 346 957 q 408 994 385 994 q 449 979 433 994 q 465 939 465 964 q 447 893 465 911 q 403 875 428 875 z "},"̉":{"ha":0,"x_min":426,"x_max":668,"o":"m 538 831 l 510 876 q 579 922 556 896 q 603 983 603 949 q 583 1026 603 1010 q 533 1043 564 1043 q 449 1017 492 1043 l 426 1067 q 485 1093 453 1085 q 547 1101 518 1101 q 635 1073 603 1101 q 668 996 668 1044 q 636 902 668 943 q 538 831 604 861 z "},"̊":{"ha":0,"x_min":393,"x_max":682,"o":"m 538 826 q 463 846 496 826 q 412 897 431 865 q 393 968 393 929 q 412 1040 393 1007 q 463 1094 431 1074 q 538 1114 496 1114 q 612 1094 579 1114 q 663 1040 644 1074 q 682 968 682 1007 q 663 897 682 929 q 612 846 644 865 q 538 826 579 826 m 538 875 q 606 902 579 875 q 632 968 632 929 q 606 1037 632 1008 q 538 1065 579 1065 q 470 1038 497 1065 q 443 968 443 1010 q 469 901 443 928 q 538 875 496 875 z "},"̋":{"ha":0,"x_min":353,"x_max":846,"o":"m 581 843 l 732 1015 l 846 1015 l 669 843 l 581 843 m 353 843 l 506 1015 l 619 1015 l 444 843 l 353 843 z "},"̌":{"ha":0,"x_min":314,"x_max":772,"o":"m 472 843 l 314 1015 l 403 1015 l 563 868 l 485 868 l 676 1015 l 772 1015 l 572 843 l 472 843 z "},"̏":{"ha":0,"x_min":233,"x_max":667,"o":"m 583 843 l 460 1015 l 567 1015 l 667 843 l 583 843 m 357 843 l 233 1015 l 342 1015 l 442 843 l 357 843 z "},"̑":{"ha":0,"x_min":300,"x_max":728,"o":"m 300 843 q 378 974 314 926 q 531 1022 443 1022 q 633 1000 588 1022 q 703 938 678 978 q 724 843 728 899 l 656 843 q 622 930 658 897 q 525 963 586 963 q 423 930 467 963 q 371 843 379 897 l 300 843 z "},"̒":{"ha":0,"x_min":458,"x_max":618,"o":"m 521 836 q 475 851 492 836 q 458 888 458 867 q 464 917 458 903 q 483 950 469 931 l 560 1085 l 618 1085 l 533 906 l 526 944 q 571 931 554 944 q 588 896 588 918 q 570 853 588 871 q 521 836 553 836 z "},"̛":{"ha":0,"x_min":468,"x_max":654,"o":"m 468 654 l 468 729 l 489 729 q 559 757 538 729 q 581 824 581 785 q 573 872 581 850 q 553 913 565 894 l 618 938 q 644 884 635 914 q 654 821 654 854 q 635 735 654 772 q 580 676 617 697 q 489 654 543 654 l 468 654 z "},"̣":{"ha":0,"x_min":242,"x_max":364,"o":"m 294 -264 q 257 -248 272 -264 q 243 -208 242 -232 q 265 -163 244 -182 q 311 -144 285 -144 q 349 -159 333 -144 q 363 -199 364 -174 q 342 -245 361 -226 q 294 -264 322 -264 z "},"̤":{"ha":0,"x_min":131,"x_max":476,"o":"m 415 -260 q 376 -244 392 -260 q 360 -207 360 -229 q 378 -162 360 -181 q 422 -144 397 -144 q 460 -160 443 -144 q 476 -196 476 -175 q 458 -242 476 -225 q 415 -260 440 -260 m 185 -260 q 146 -244 161 -260 q 131 -207 131 -229 q 149 -162 131 -181 q 192 -144 167 -144 q 230 -160 214 -144 q 246 -196 246 -175 q 228 -242 246 -225 q 185 -260 210 -260 z "},"̦":{"ha":0,"x_min":226,"x_max":364,"o":"m 226 -364 l 294 -214 l 300 -253 q 260 -238 275 -253 q 244 -204 244 -224 q 260 -161 244 -178 q 304 -144 276 -144 q 349 -159 333 -144 q 364 -194 364 -174 q 358 -224 364 -211 q 339 -258 353 -237 l 279 -364 l 226 -364 z "},"̧":{"ha":0,"x_min":146,"x_max":436,"o":"m 263 -306 q 198 -297 228 -306 q 146 -274 168 -289 l 176 -221 q 219 -240 196 -233 q 269 -247 242 -247 q 340 -226 315 -247 q 364 -174 364 -206 q 344 -133 364 -147 q 288 -118 325 -118 l 257 -118 l 315 8 l 375 8 l 339 -71 q 410 -103 385 -78 q 436 -169 436 -129 q 388 -268 436 -231 q 263 -306 340 -306 z "},"̨":{"ha":0,"x_min":65,"x_max":344,"o":"m 200 -306 q 103 -276 140 -306 q 65 -192 65 -246 q 92 -105 65 -146 q 171 -27 118 -64 q 303 40 224 10 l 344 0 q 232 -55 278 -25 q 163 -115 186 -85 q 140 -181 140 -146 q 160 -228 140 -211 q 214 -244 181 -244 q 264 -237 239 -244 q 308 -218 289 -231 l 324 -272 q 267 -297 297 -287 q 200 -306 236 -306 z "},"̮":{"ha":0,"x_min":104,"x_max":531,"o":"m 303 -285 q 199 -263 244 -285 q 128 -204 153 -242 q 108 -117 104 -167 l 176 -117 q 209 -198 174 -168 q 306 -228 244 -228 q 408 -199 365 -228 q 460 -117 451 -169 l 531 -117 q 453 -241 518 -197 q 303 -285 388 -285 z "},"̱":{"ha":0,"x_min":83,"x_max":524,"o":"m 83 -235 l 94 -169 l 524 -169 l 511 -235 l 83 -235 z "},"̵":{"ha":0,"x_min":188,"x_max":743,"o":"m 188 574 l 201 646 l 743 646 l 731 574 l 188 574 z "},"̶":{"ha":0,"x_min":78,"x_max":1200,"o":"m 78 568 l 92 651 l 1200 651 l 1185 568 l 78 568 z "},"̷":{"ha":0,"x_min":83,"x_max":510,"o":"m 124 375 l 83 438 l 471 690 l 510 628 l 124 375 z "},"̸":{"ha":0,"x_min":-6,"x_max":861,"o":"m -6 -97 l 790 826 l 861 826 l 65 -97 l -6 -97 z "},"Δ":{"ha":996,"x_min":-69,"x_max":921,"o":"m 669 972 l 921 0 l -69 0 l 569 972 l 669 972 m 67 40 l 39 89 l 842 89 l 808 40 l 590 915 l 632 915 l 67 40 z "},"Ω":{"ha":1253,"x_min":-58,"x_max":1183,"o":"m -58 0 l -42 90 l 289 90 q 172 244 207 161 q 136 442 136 328 q 178 663 136 564 q 298 833 221 763 q 481 942 375 904 q 711 981 586 981 q 950 934 846 981 q 1113 799 1054 888 q 1172 582 1172 710 q 1147 411 1172 489 q 1078 272 1121 333 q 982 165 1035 210 q 874 90 929 119 l 1183 90 l 1167 0 l 696 0 l 713 83 q 847 156 783 111 q 961 262 911 200 q 1040 402 1011 324 q 1068 575 1068 481 q 969 808 1068 728 q 704 889 871 889 q 458 833 564 889 q 294 674 353 776 q 236 436 236 572 q 257 291 236 354 q 320 178 278 228 q 429 83 363 128 l 413 0 l -58 0 z "},"μ":{"ha":942,"x_min":11,"x_max":876,"o":"m 11 -269 l 211 729 l 310 729 l 226 314 q 249 144 206 206 q 406 82 293 82 q 597 146 519 82 q 700 338 675 210 l 778 729 l 876 729 l 732 0 l 638 0 l 679 210 l 700 175 q 617 72 665 113 q 512 13 568 32 q 397 -7 456 -7 q 245 28 304 -7 q 163 135 186 63 l 200 176 l 110 -269 l 11 -269 z "},"π":{"ha":1003,"x_min":19,"x_max":1063,"o":"m 49 367 q 27 417 35 389 q 19 476 19 446 q 52 606 19 549 q 152 696 85 663 q 321 729 219 729 l 1063 729 l 1046 647 l 308 647 q 157 600 207 647 q 107 479 107 553 q 113 434 107 456 q 129 392 118 413 l 49 367 m 175 0 l 389 676 l 488 676 l 274 0 l 175 0 m 599 0 l 733 676 l 832 676 l 697 0 l 599 0 z "},"Ѐ":{"ha":915,"x_min":92,"x_max":953,"o":"z "},"Ё":{"ha":915,"x_min":92,"x_max":953,"o":"z "},"Ђ":{"ha":1146,"x_min":121,"x_max":1079,"o":"m 286 0 l 467 911 l 488 883 l 121 883 l 139 972 l 951 972 l 933 883 l 536 883 l 568 911 l 388 0 l 286 0 m 585 8 l 608 93 q 745 85 679 74 q 864 131 811 96 q 947 219 917 165 q 978 340 978 274 q 911 468 978 428 q 726 498 844 508 q 450 422 607 488 l 467 518 q 710 582 599 569 q 904 571 821 594 q 1033 490 988 547 q 1079 346 1079 433 q 1039 182 1079 256 q 928 61 999 108 q 770 -1 858 14 q 585 8 682 -17 z "},"Ѓ":{"ha":799,"x_min":92,"x_max":904,"o":"m 92 0 l 286 972 l 904 972 l 885 883 l 339 883 l 372 910 l 192 0 l 92 0 z "},"Є":{"ha":985,"x_min":99,"x_max":1031,"o":"m 721 519 l 706 435 l 168 435 l 183 519 l 721 519 m 493 -8 q 285 44 375 -8 q 147 188 196 96 q 99 396 99 279 q 147 625 99 519 q 277 811 194 731 q 467 936 360 892 q 692 981 574 981 q 892 944 804 981 q 1031 838 979 908 l 954 772 q 835 862 906 835 q 678 889 765 889 q 498 852 583 889 q 346 750 413 815 q 241 599 279 685 q 203 413 203 513 q 242 243 203 318 q 351 126 281 168 q 517 83 422 83 q 685 111 604 83 q 839 200 765 139 l 890 135 q 708 28 811 64 q 493 -8 606 -8 z "},"Ѕ":{"ha":869,"x_min":26,"x_max":860,"o":"m 379 -8 q 240 8 308 -8 q 115 52 171 24 q 26 115 60 81 l 76 196 q 159 135 110 161 q 268 94 208 108 q 388 79 328 79 q 538 101 474 79 q 639 167 603 124 q 675 271 675 210 q 647 349 675 319 q 575 398 619 379 q 476 432 531 417 q 368 465 422 447 q 269 510 314 483 q 197 579 224 536 q 169 688 169 622 q 219 845 169 779 q 357 946 269 911 q 558 981 444 981 q 724 960 644 981 q 860 897 804 939 l 817 814 q 696 873 764 853 q 553 893 628 893 q 404 869 468 893 q 305 802 340 846 q 269 697 269 758 q 297 618 269 649 q 369 568 324 588 q 468 533 414 549 q 576 499 522 517 q 676 456 631 482 q 749 390 721 431 q 776 285 776 349 q 725 126 776 192 q 584 26 674 60 q 379 -8 494 -8 z "},"І":{"ha":419,"x_min":86,"x_max":382,"o":"m 86 0 l 281 972 l 382 972 l 188 0 l 86 0 z "},"Ї":{"ha":419,"x_min":86,"x_max":549,"o":"m 86 0 l 281 972 l 382 972 l 188 0 l 86 0 z "},"Ј":{"ha":733,"x_min":-15,"x_max":703,"o":"m 250 -8 q 87 29 156 -8 q -15 132 18 67 l 57 197 q 134 112 83 143 q 253 81 185 81 q 391 128 338 81 q 467 290 444 176 l 585 883 l 231 883 l 249 972 l 703 972 l 567 290 q 503 115 546 181 q 398 21 461 50 q 250 -8 335 -8 z "},"Љ":{"ha":1651,"x_min":-57,"x_max":1586,"o":"m 21 -8 q -17 -6 1 -8 q -57 1 -35 -3 l -32 93 q 11 88 -10 88 q 119 133 72 88 q 208 282 167 179 q 290 557 249 385 l 389 972 l 1047 972 l 853 0 l 753 0 l 935 911 l 956 883 l 435 883 l 467 913 l 383 558 q 308 293 346 401 q 228 119 271 185 q 135 22 186 53 q 21 -8 85 -8 m 1276 625 q 1586 367 1586 625 q 1531 173 1586 256 q 1376 45 1476 90 q 1140 0 1276 0 l 753 0 l 947 972 l 1047 972 l 978 625 l 1276 625 m 1150 82 q 1326 115 1251 82 q 1440 211 1400 149 q 1481 358 1481 274 q 1426 498 1481 454 q 1251 542 1371 542 l 961 542 l 869 82 l 1150 82 z "},"Њ":{"ha":1647,"x_min":92,"x_max":1582,"o":"m 92 0 l 286 972 l 386 972 l 307 572 l 894 572 l 974 972 l 1075 972 l 881 0 l 779 0 l 876 483 l 289 483 l 192 0 l 92 0 m 892 54 l 871 82 l 1175 82 q 1335 113 1268 82 q 1440 199 1403 143 q 1476 329 1476 256 q 1420 451 1476 408 q 1257 493 1364 493 l 953 493 l 985 522 l 892 54 m 779 0 l 974 972 l 1075 972 l 990 544 l 969 576 l 1299 576 q 1509 517 1436 576 q 1582 349 1582 457 q 1531 165 1582 243 q 1385 43 1479 86 q 1165 0 1292 0 l 779 0 z "},"Ћ":{"ha":1160,"x_min":119,"x_max":1097,"o":"m 285 0 l 465 911 l 486 883 l 119 883 l 138 972 l 947 972 l 929 883 l 533 883 l 565 911 l 385 0 l 285 0 m 464 511 q 639 566 558 549 q 789 583 719 583 q 1020 504 943 583 q 1067 268 1097 425 l 1013 0 l 913 0 l 965 264 q 933 435 988 378 q 765 492 879 492 q 620 472 697 492 q 451 413 543 451 l 464 511 z "},"Ќ":{"ha":975,"x_min":92,"x_max":1050,"o":"m 92 0 l 286 972 l 388 972 l 193 0 l 92 0 m 251 447 l 268 536 l 572 536 l 556 447 l 251 447 m 764 0 l 485 486 l 571 532 l 874 0 l 764 0 m 571 476 l 475 493 l 933 972 l 1050 972 l 571 476 z "},"Ѝ":{"ha":1144,"x_min":92,"x_max":1101,"o":"m 92 0 l 286 972 l 386 972 l 225 167 l 1008 972 l 1101 972 l 907 0 l 807 0 l 969 804 l 185 0 l 92 0 z "},"Ў":{"ha":946,"x_min":50,"x_max":1050,"o":"m 88 99 q 177 82 132 82 q 267 105 222 82 q 356 181 313 128 l 418 256 l 432 268 l 944 972 l 1050 972 l 446 151 q 318 31 386 69 q 181 -9 250 -8 q 50 19 113 -10 l 88 99 m 415 175 l 151 972 l 258 972 l 485 260 l 415 175 m 600 1043 q 444 1092 497 1043 q 404 1221 392 1140 l 474 1221 q 501 1134 467 1167 q 603 1101 536 1101 q 714 1133 667 1101 q 774 1221 761 1165 l 844 1221 q 763 1090 828 1136 q 600 1043 699 1043 z "},"Џ":{"ha":1119,"x_min":92,"x_max":1076,"o":"m 1076 972 l 882 0 l 533 0 l 489 -228 l 393 -228 l 439 0 l 92 0 l 286 972 l 386 972 l 210 89 l 799 89 l 975 972 l 1076 972 z "},"А":{"ha":1033,"x_min":-51,"x_max":939,"o":"m -51 0 l 588 972 l 689 972 l 939 0 l 836 0 l 608 915 l 650 915 l 60 0 l -51 0 m 175 260 l 222 343 l 788 343 l 803 260 l 175 260 z "},"Б":{"ha":1013,"x_min":92,"x_max":997,"o":"m 92 0 l 286 972 l 997 972 l 979 885 l 368 885 l 306 567 l 624 567 q 849 506 772 567 q 926 324 926 444 q 874 150 926 222 q 724 39 822 78 q 489 0 626 0 l 92 0 m 208 82 l 503 82 q 737 144 653 82 q 821 317 821 206 q 764 444 821 404 q 583 485 707 485 l 289 485 l 208 82 z "},"В":{"ha":1047,"x_min":86,"x_max":994,"o":"m 86 0 l 281 972 l 696 972 q 915 919 836 972 q 994 765 994 867 q 949 608 994 671 q 828 513 903 544 q 668 481 754 481 l 699 513 q 884 459 815 513 q 953 301 953 406 q 902 136 953 204 q 758 34 851 68 q 538 0 665 0 l 86 0 m 204 85 l 546 85 q 772 140 692 85 q 851 300 851 196 q 794 417 851 383 q 625 450 736 450 l 260 450 l 276 535 l 604 535 q 752 558 688 535 q 853 630 817 582 q 889 747 889 678 q 833 853 889 819 q 676 888 778 888 l 364 888 l 204 85 z "},"Г":{"ha":799,"x_min":92,"x_max":904,"o":"m 92 0 l 286 972 l 904 972 l 885 883 l 339 883 l 372 910 l 192 0 l 92 0 z "},"Д":{"ha":1101,"x_min":-100,"x_max":1032,"o":"m 746 49 l 913 883 l 447 883 l 392 643 q 337 434 365 533 q 275 255 308 335 q 201 125 242 175 q 108 68 160 75 l -8 89 q 93 129 47 86 q 176 251 139 172 q 245 435 214 331 q 304 660 276 540 l 376 972 l 1032 972 l 847 49 l 746 49 m -100 -218 l -37 89 l 1003 89 l 940 -218 l 844 -218 l 889 0 l 40 0 l -6 -218 l -100 -218 z "},"Е":{"ha":915,"x_min":92,"x_max":953,"o":"m 290 538 l 804 538 l 788 450 l 274 450 l 290 538 m 211 89 l 796 89 l 778 0 l 92 0 l 286 972 l 953 972 l 935 883 l 369 883 l 211 89 z "},"Ж":{"ha":1404,"x_min":-42,"x_max":1469,"o":"m 1181 0 l 953 485 l 1047 535 l 1297 0 l 1181 0 m 738 446 l 756 536 l 1033 536 l 1015 446 l 738 446 m 1043 475 l 950 492 l 1356 972 l 1469 972 l 1043 475 m 82 0 l -42 0 l 422 535 l 501 485 l 82 0 m 681 0 l 581 0 l 775 972 l 875 972 l 681 0 m 701 446 l 422 446 l 440 536 l 718 536 l 701 446 m 410 475 l 182 972 l 289 972 l 503 492 l 410 475 z "},"З":{"ha":883,"x_min":-3,"x_max":825,"o":"m 339 -8 q 154 23 244 -8 q -3 119 64 54 l 50 193 q 182 109 104 136 q 342 82 260 82 q 465 98 406 82 q 572 144 524 114 q 647 216 619 174 q 675 311 675 258 q 619 424 675 386 q 454 463 563 463 l 244 463 l 261 546 l 468 546 q 601 569 546 546 q 688 635 657 593 q 718 732 718 678 q 688 820 718 785 q 608 874 658 856 q 492 893 557 893 q 351 873 426 893 q 201 813 276 853 l 183 896 q 348 960 265 939 q 506 981 431 981 q 667 953 596 981 q 782 874 739 926 q 825 749 825 822 q 782 615 825 674 q 663 524 739 557 q 490 490 588 490 l 501 521 q 649 494 588 521 q 743 419 710 468 q 776 303 776 369 q 740 174 776 232 q 640 76 703 117 q 500 13 578 35 q 339 -8 422 -8 z "},"И":{"ha":1144,"x_min":92,"x_max":1101,"o":"m 92 0 l 286 972 l 386 972 l 225 167 l 1008 972 l 1101 972 l 907 0 l 807 0 l 969 804 l 185 0 l 92 0 z "},"Й":{"ha":1144,"x_min":92,"x_max":1101,"o":"m 92 0 l 286 972 l 386 972 l 225 167 l 1008 972 l 1101 972 l 907 0 l 807 0 l 969 804 l 185 0 l 92 0 m 707 1043 q 551 1092 604 1043 q 511 1221 499 1140 l 581 1221 q 608 1134 574 1167 q 710 1101 643 1101 q 821 1133 774 1101 q 881 1221 868 1165 l 951 1221 q 870 1090 935 1136 q 707 1043 806 1043 z "},"К":{"ha":975,"x_min":92,"x_max":1050,"o":"m 92 0 l 286 972 l 388 972 l 193 0 l 92 0 m 251 447 l 268 536 l 572 536 l 556 447 l 251 447 m 764 0 l 485 486 l 571 532 l 874 0 l 764 0 m 571 476 l 475 493 l 933 972 l 1050 972 l 571 476 z "},"Л":{"ha":1090,"x_min":-57,"x_max":1047,"o":"m 21 -8 q -17 -6 1 -8 q -57 1 -35 -3 l -32 93 q 11 88 -10 88 q 119 133 72 88 q 208 282 167 179 q 290 557 249 385 l 389 972 l 1047 972 l 853 0 l 753 0 l 935 911 l 956 883 l 435 883 l 467 913 l 383 558 q 308 293 346 401 q 228 119 271 185 q 135 22 186 53 q 21 -8 85 -8 z "},"М":{"ha":1338,"x_min":92,"x_max":1296,"o":"m 92 0 l 286 972 l 369 972 l 665 213 l 622 214 l 1206 972 l 1296 972 l 1101 0 l 1003 0 l 1167 821 l 1193 818 l 654 124 l 606 124 l 331 822 l 353 818 l 190 0 l 92 0 z "},"Н":{"ha":1140,"x_min":92,"x_max":1097,"o":"m 996 972 l 1097 972 l 903 0 l 801 0 l 996 972 m 193 0 l 92 0 l 286 972 l 388 972 l 193 0 m 901 449 l 274 449 l 290 539 l 919 539 l 901 449 z "},"О":{"ha":1194,"x_min":103,"x_max":1139,"o":"m 553 -8 q 308 42 410 -8 q 155 184 207 93 q 103 396 103 275 q 143 621 103 515 q 260 808 183 726 q 446 935 338 889 q 689 981 554 981 q 934 930 833 981 q 1087 788 1035 879 q 1139 576 1139 697 q 1099 351 1139 457 q 981 165 1058 246 q 796 38 904 83 q 553 -8 688 -8 m 563 83 q 758 122 671 83 q 908 228 846 160 q 1004 384 971 296 q 1038 572 1038 472 q 997 738 1038 667 q 876 849 956 808 q 679 889 797 889 q 483 851 571 889 q 334 744 396 813 q 238 588 272 676 q 204 400 204 500 q 245 235 204 307 q 365 124 286 164 q 563 83 444 83 z "},"П":{"ha":1146,"x_min":92,"x_max":1103,"o":"m 92 0 l 286 972 l 1103 972 l 908 0 l 808 0 l 989 911 l 1010 883 l 340 883 l 372 911 l 192 0 l 92 0 z "},"Р":{"ha":993,"x_min":89,"x_max":979,"o":"m 89 0 l 283 972 l 632 972 q 888 900 797 972 q 979 697 979 828 q 924 485 979 572 q 768 353 869 399 q 528 307 667 307 l 207 307 l 263 356 l 190 0 l 89 0 m 260 347 l 224 397 l 529 397 q 785 471 694 397 q 876 688 876 544 q 811 833 876 783 q 624 883 746 883 l 324 883 l 378 935 l 260 347 z "},"С":{"ha":1019,"x_min":103,"x_max":1040,"o":"m 557 -8 q 311 42 413 -8 q 156 184 210 93 q 103 396 103 275 q 144 621 103 515 q 262 808 185 726 q 448 935 339 889 q 694 981 557 981 q 901 944 811 981 q 1040 839 992 908 l 968 775 q 853 860 922 832 q 686 889 783 889 q 487 851 576 889 q 335 744 397 813 q 238 588 272 676 q 204 400 204 500 q 245 235 204 307 q 367 124 286 164 q 564 83 447 83 q 738 113 660 83 q 874 199 815 142 l 933 131 q 771 27 869 63 q 557 -8 672 -8 z "},"Т":{"ha":817,"x_min":119,"x_max":922,"o":"m 285 0 l 465 911 l 486 883 l 119 883 l 138 972 l 922 972 l 904 883 l 533 883 l 565 911 l 385 0 l 285 0 z "},"У":{"ha":946,"x_min":50,"x_max":1050,"o":"m 88 99 q 177 82 132 82 q 267 105 222 82 q 356 181 313 128 l 418 256 l 432 268 l 944 972 l 1050 972 l 446 151 q 318 31 386 69 q 181 -9 250 -8 q 50 19 113 -10 l 88 99 m 415 175 l 151 972 l 258 972 l 485 260 l 415 175 z "},"Ф":{"ha":1279,"x_min":88,"x_max":1239,"o":"m 572 67 q 215 158 343 67 q 88 418 88 250 q 166 676 88 567 q 388 847 244 786 q 728 908 532 908 l 754 908 q 1112 816 985 908 q 1239 554 1239 724 q 1160 296 1239 406 q 938 126 1082 186 q 600 67 794 67 l 572 67 m 588 149 l 601 149 q 890 197 769 149 q 1074 333 1010 244 q 1139 544 1139 422 q 1037 753 1139 681 q 742 825 935 825 l 728 825 q 438 777 560 825 q 253 641 317 729 q 189 431 189 553 q 291 221 189 293 q 588 149 393 149 m 513 -33 l 719 1006 l 815 1006 l 607 -33 l 513 -33 z "},"Х":{"ha":901,"x_min":-43,"x_max":968,"o":"m 179 972 l 294 972 l 492 588 l 846 972 l 968 972 l 543 504 l 797 0 l 681 0 l 464 418 l 78 0 l -43 0 l 417 500 l 179 972 z "},"Ц":{"ha":1149,"x_min":92,"x_max":1076,"o":"m 92 0 l 286 972 l 386 972 l 210 89 l 799 89 l 975 972 l 1076 972 l 882 0 l 92 0 m 894 -228 l 944 28 l 964 0 l 781 0 l 799 89 l 1054 89 l 990 -228 l 894 -228 z "},"Ч":{"ha":1014,"x_min":110,"x_max":971,"o":"m 781 410 q 602 353 688 372 q 444 335 517 335 q 190 419 271 335 q 140 656 110 504 l 203 972 l 304 972 l 242 658 q 276 485 218 546 q 458 425 333 425 q 620 446 535 425 q 792 504 706 467 l 781 410 m 676 0 l 871 972 l 971 972 l 776 0 l 676 0 z "},"Ш":{"ha":1519,"x_min":92,"x_max":1476,"o":"m 681 89 l 650 61 l 832 972 l 932 972 l 751 61 l 729 89 l 1228 89 l 1196 61 l 1376 972 l 1476 972 l 1282 0 l 92 0 l 286 972 l 386 972 l 206 61 l 185 89 l 681 89 z "},"Щ":{"ha":1549,"x_min":92,"x_max":1476,"o":"m 681 89 l 650 61 l 832 972 l 932 972 l 751 61 l 729 89 l 1228 89 l 1196 61 l 1376 972 l 1476 972 l 1282 0 l 92 0 l 286 972 l 386 972 l 206 61 l 185 89 l 681 89 m 1294 -218 l 1343 28 l 1367 0 l 1181 0 l 1200 89 l 1451 89 l 1390 -218 l 1294 -218 z "},"Ъ":{"ha":1142,"x_min":119,"x_max":1076,"o":"m 776 625 q 1000 564 924 625 q 1076 385 1076 503 q 1024 178 1076 264 q 872 46 972 92 q 629 0 772 0 l 244 0 l 421 883 l 119 883 l 138 972 l 540 972 l 471 625 l 776 625 m 644 82 q 890 157 806 82 q 974 367 974 232 q 913 499 974 456 q 736 542 853 542 l 454 542 l 363 82 l 644 82 z "},"Ы":{"ha":1381,"x_min":92,"x_max":1342,"o":"m 615 625 q 925 367 925 625 q 870 173 925 256 q 715 45 815 90 q 479 0 615 0 l 92 0 l 286 972 l 386 972 l 317 625 l 615 625 m 489 82 q 665 115 590 82 q 779 211 739 149 q 819 358 819 274 q 765 498 819 454 q 590 542 710 542 l 300 542 l 208 82 l 489 82 m 1046 0 l 1240 972 l 1342 972 l 1147 0 l 1046 0 z "},"Ь":{"ha":990,"x_min":92,"x_max":925,"o":"m 615 625 q 925 367 925 625 q 870 173 925 256 q 715 45 815 90 q 479 0 615 0 l 92 0 l 286 972 l 386 972 l 317 625 l 615 625 m 489 82 q 665 115 590 82 q 779 211 739 149 q 819 358 819 274 q 765 498 819 454 q 590 542 710 542 l 300 542 l 208 82 l 489 82 z "},"Э":{"ha":983,"x_min":1,"x_max":935,"o":"m 311 453 l 326 538 l 864 538 l 849 453 l 311 453 m 539 981 q 747 928 658 981 q 885 785 836 876 q 935 576 935 693 q 886 347 935 453 q 755 161 838 242 q 565 36 672 81 q 340 -8 458 -8 q 141 28 229 -8 q 1 135 53 64 l 79 200 q 198 110 128 138 q 354 83 268 83 q 534 120 449 83 q 686 222 619 157 q 791 374 753 288 q 829 560 829 460 q 790 730 829 656 q 681 847 751 804 q 515 889 611 889 q 347 861 428 889 q 194 772 267 833 l 142 838 q 324 944 221 908 q 539 981 426 981 z "},"Ю":{"ha":1521,"x_min":92,"x_max":1469,"o":"m 92 0 l 286 972 l 386 972 l 300 540 l 550 540 l 532 447 l 282 447 l 192 0 l 92 0 m 890 -8 q 674 43 768 -8 q 528 188 581 94 q 476 404 476 281 q 522 625 476 521 q 649 810 568 729 q 833 935 729 890 q 1054 981 938 981 q 1272 928 1178 981 q 1417 783 1365 876 q 1469 567 1469 690 q 1424 347 1469 450 q 1297 163 1378 243 q 1112 38 1217 83 q 890 -8 1007 -8 m 897 86 q 1076 124 992 86 q 1226 229 1161 163 q 1328 381 1290 296 q 1365 561 1365 467 q 1326 732 1365 658 q 1215 846 1286 806 q 1047 886 1143 886 q 869 848 954 886 q 720 743 785 810 q 618 591 656 676 q 581 410 581 506 q 620 240 581 313 q 731 126 660 167 q 897 86 801 86 z "},"Я":{"ha":1019,"x_min":22,"x_max":976,"o":"m 682 0 l 746 322 l 769 294 l 451 294 q 222 367 304 294 q 140 572 140 440 q 197 784 140 694 q 358 923 254 874 q 599 972 461 972 l 976 972 l 782 0 l 682 0 m 22 0 l 331 342 l 443 342 l 139 0 l 22 0 m 753 351 l 864 913 l 886 883 l 588 883 q 401 847 478 883 q 285 744 325 811 q 244 586 244 678 q 304 434 244 486 q 475 382 364 382 l 786 382 l 753 351 z "},"а":{"ha":957,"x_min":71,"x_max":890,"o":"m 389 -7 q 224 31 296 -7 q 111 138 151 68 q 71 303 71 207 q 101 475 71 396 q 188 613 132 554 q 319 704 243 672 q 483 736 394 736 q 646 702 579 736 q 749 603 713 668 q 785 447 785 539 q 736 213 785 315 q 599 51 688 110 q 389 -7 510 -7 m 410 81 q 573 124 501 81 q 685 246 644 168 q 726 422 726 324 q 663 590 726 531 q 486 650 600 650 q 324 606 396 650 q 210 484 251 561 q 169 307 169 407 q 233 140 169 200 q 410 81 296 81 m 650 0 l 692 210 l 733 357 l 747 510 l 792 729 l 890 729 l 744 0 l 650 0 z "},"б":{"ha":924,"x_min":97,"x_max":921,"o":"m 428 -8 q 185 83 272 -8 q 97 349 97 175 q 132 568 97 464 q 231 758 167 672 q 383 903 294 844 q 579 983 472 961 l 918 1054 l 921 969 l 601 903 q 405 814 490 879 q 266 650 319 749 q 196 428 213 551 l 167 446 q 332 628 231 565 q 558 690 433 690 q 776 615 697 690 q 854 403 854 539 q 799 192 854 285 q 648 45 744 99 q 428 -8 551 -8 m 435 69 q 595 112 524 69 q 708 226 667 154 q 749 388 749 297 q 690 547 749 490 q 528 603 632 603 q 403 579 463 603 q 296 515 343 556 q 222 422 249 475 q 194 310 194 369 q 259 135 194 201 q 435 69 324 69 z "},"в":{"ha":844,"x_min":67,"x_max":767,"o":"m 67 0 l 214 729 l 532 729 q 707 688 647 729 q 767 568 767 647 q 689 417 767 475 q 485 360 611 360 l 503 386 q 672 348 618 386 q 725 228 725 310 q 640 60 725 121 q 404 0 554 0 l 67 0 m 179 78 l 410 78 q 570 118 513 78 q 628 231 628 158 q 592 308 628 285 q 475 332 556 332 l 231 332 l 179 78 m 244 406 l 463 406 q 610 445 554 406 q 667 551 667 485 q 628 628 667 603 q 514 653 590 653 l 294 653 l 244 406 z "},"г":{"ha":660,"x_min":67,"x_max":731,"o":"m 67 0 l 213 729 l 731 729 l 713 643 l 268 643 l 297 668 l 165 0 l 67 0 z "},"д":{"ha":903,"x_min":-94,"x_max":811,"o":"m 576 47 l 696 643 l 344 643 l 304 476 q 265 333 285 403 q 219 204 244 263 q 162 109 194 146 q 85 67 129 72 l -17 86 q 62 117 28 85 q 124 208 96 150 q 174 340 151 267 q 215 490 196 414 l 274 729 l 811 729 l 675 47 l 576 47 m -94 -176 l -43 86 l 797 86 l 746 -176 l 653 -176 l 688 0 l 33 0 l -1 -176 l -94 -176 z "},"е":{"ha":865,"x_min":71,"x_max":793,"o":"m 411 -7 q 230 31 307 -7 q 112 139 153 69 q 71 304 71 208 q 124 526 71 429 q 268 680 176 624 q 475 736 360 736 q 643 699 572 736 q 753 593 714 663 q 793 426 793 524 q 790 381 793 404 q 783 338 788 358 l 143 338 l 156 411 l 738 411 l 697 383 q 685 531 711 471 q 603 622 658 590 q 472 653 549 653 q 314 609 383 653 q 206 488 244 565 q 167 308 167 411 q 230 140 167 199 q 419 81 293 81 q 556 105 493 81 q 658 172 618 129 l 703 101 q 574 22 651 50 q 411 -7 497 -7 z "},"ж":{"ha":1149,"x_min":-50,"x_max":1179,"o":"m 935 0 l 757 363 l 843 401 l 1050 0 l 935 0 m 586 328 l 601 408 l 833 408 l 818 328 l 586 328 m 849 356 l 753 368 l 1068 729 l 1179 729 l 849 356 m 74 0 l -50 0 l 317 408 l 393 363 l 74 0 m 550 0 l 451 0 l 597 729 l 697 729 l 550 0 m 549 328 l 318 328 l 335 408 l 564 408 l 549 328 m 301 356 l 119 729 l 224 729 l 394 368 l 301 356 z "},"з":{"ha":729,"x_min":-8,"x_max":651,"o":"m 271 -8 q -8 85 100 -8 l 33 154 q 137 97 75 117 q 272 78 199 78 q 401 98 344 78 q 489 152 457 118 q 521 229 521 186 q 475 311 521 282 q 346 340 429 340 l 225 340 l 236 415 l 340 415 q 492 451 435 415 q 550 542 550 486 q 505 622 550 593 q 378 651 460 651 q 265 636 321 651 q 146 593 208 621 l 118 675 q 253 722 186 707 q 386 738 321 738 q 525 715 465 738 q 618 653 585 693 q 651 557 651 613 q 625 469 651 508 q 549 405 599 431 q 433 369 500 379 l 431 388 q 571 333 522 375 q 619 222 619 290 q 574 105 619 157 q 450 22 529 53 q 271 -8 371 -8 z "},"и":{"ha":956,"x_min":67,"x_max":889,"o":"m 67 0 l 214 729 l 313 729 l 194 140 l 794 729 l 889 729 l 743 0 l 642 0 l 763 590 l 163 0 l 67 0 z "},"й":{"ha":956,"x_min":67,"x_max":889,"o":"m 67 0 l 214 729 l 313 729 l 194 140 l 794 729 l 889 729 l 743 0 l 642 0 l 763 590 l 163 0 l 67 0 m 575 836 q 431 884 479 836 q 397 1014 382 932 l 465 1014 q 488 926 456 960 q 581 893 519 893 q 684 926 640 893 q 740 1014 728 958 l 810 1014 q 731 883 793 929 q 575 836 669 836 z "},"к":{"ha":804,"x_min":67,"x_max":844,"o":"m 603 0 l 379 363 l 461 400 l 715 0 l 603 0 m 67 0 l 214 729 l 313 729 l 165 0 l 67 0 m 201 325 l 217 410 l 451 410 l 436 325 l 201 325 m 464 354 l 368 368 l 733 729 l 844 729 l 464 354 z "},"л":{"ha":878,"x_min":-65,"x_max":811,"o":"m -65 1 l -42 86 q -24 83 -32 85 q -8 81 -15 81 q 80 126 42 81 q 149 258 118 171 q 213 472 181 346 l 276 729 l 811 729 l 664 0 l 565 0 l 700 675 l 721 643 l 324 643 l 353 675 l 300 463 q 240 255 269 343 q 176 108 210 167 q 101 21 142 50 q 7 -8 60 -8 q -28 -6 -11 -8 q -65 1 -44 -3 z "},"м":{"ha":1096,"x_min":67,"x_max":1029,"o":"m 67 0 l 213 729 l 311 729 l 529 169 l 488 169 l 936 729 l 1029 729 l 883 0 l 793 0 l 917 617 l 933 608 l 515 89 l 471 89 l 261 614 l 281 618 l 157 0 l 67 0 z "},"н":{"ha":936,"x_min":67,"x_max":869,"o":"m 67 0 l 213 729 l 311 729 l 247 407 l 706 407 l 771 729 l 869 729 l 724 0 l 625 0 l 689 322 l 231 322 l 165 0 l 67 0 z "},"о":{"ha":893,"x_min":69,"x_max":824,"o":"m 401 -7 q 226 31 300 -7 q 110 139 151 69 q 69 303 69 208 q 124 526 69 428 q 274 680 178 624 q 492 736 369 736 q 667 699 593 736 q 783 592 742 661 q 824 428 824 522 q 769 205 824 303 q 620 50 715 107 q 401 -7 525 -7 m 408 81 q 572 124 500 81 q 684 246 643 168 q 725 422 725 324 q 662 590 725 531 q 485 650 599 650 q 322 606 394 650 q 209 484 250 561 q 168 307 168 407 q 231 140 168 200 q 408 81 294 81 z "},"п":{"ha":935,"x_min":67,"x_max":868,"o":"m 67 0 l 213 729 l 868 729 l 722 0 l 624 0 l 756 669 l 776 643 l 267 643 l 297 669 l 165 0 l 67 0 z "},"р":{"ha":958,"x_min":15,"x_max":889,"o":"m 475 -7 q 313 27 381 -7 q 210 126 246 61 q 174 282 175 190 q 222 519 174 417 q 360 678 271 621 q 569 736 449 736 q 735 699 664 736 q 848 593 807 663 q 889 428 889 524 q 858 254 889 333 q 772 117 828 175 q 640 26 715 58 q 475 -7 565 -7 m 15 -269 l 214 729 l 308 729 l 267 519 l 226 374 l 211 221 l 114 -269 l 15 -269 m 474 81 q 636 124 565 81 q 748 246 707 168 q 789 422 789 324 q 726 590 789 531 q 549 650 664 650 q 387 606 458 650 q 274 484 315 561 q 233 307 233 407 q 296 140 233 200 q 474 81 358 81 z "},"с":{"ha":800,"x_min":69,"x_max":782,"o":"m 407 -7 q 227 31 303 -7 q 110 139 151 69 q 69 303 69 208 q 124 526 69 428 q 274 680 178 624 q 494 736 371 736 q 669 699 596 736 q 782 590 742 663 l 699 542 q 615 624 668 597 q 486 650 561 650 q 322 606 394 650 q 209 484 250 561 q 168 307 168 407 q 231 140 168 200 q 411 81 294 81 q 542 108 482 81 q 642 186 603 135 l 713 132 q 583 30 665 67 q 407 -7 501 -7 z "},"т":{"ha":657,"x_min":58,"x_max":728,"o":"m 206 0 l 339 669 l 358 643 l 58 643 l 75 729 l 728 729 l 710 643 l 407 643 l 438 669 l 304 0 l 206 0 z "},"у":{"ha":775,"x_min":-142,"x_max":829,"o":"m 32 -276 q -67 -259 -19 -276 q -142 -211 -114 -242 l -89 -139 q -33 -178 -65 -164 q 39 -192 -1 -192 q 126 -166 86 -192 q 208 -74 165 -140 l 282 39 l 294 53 l 728 729 l 829 729 l 296 -94 q 210 -203 250 -164 q 127 -260 169 -243 q 32 -276 85 -276 m 265 -21 l 78 729 l 178 729 l 342 60 l 265 -21 z "},"ф":{"ha":1085,"x_min":60,"x_max":1022,"o":"m 460 -7 q 162 71 264 -6 q 60 300 60 147 q 128 528 60 431 q 319 681 197 626 q 604 736 442 736 l 624 736 q 921 658 819 735 q 1022 429 1022 582 q 955 201 1022 299 q 767 48 888 103 q 486 -7 647 -7 l 460 -7 m 476 76 l 486 76 q 719 119 619 76 q 873 240 818 163 q 928 418 928 317 q 850 594 928 536 q 608 651 772 651 l 597 651 q 364 608 464 651 q 209 489 264 565 q 154 311 154 413 q 236 134 154 189 q 476 76 318 79 m 371 -269 l 631 1031 l 719 1031 l 460 -269 l 371 -269 z "},"х":{"ha":731,"x_min":-54,"x_max":768,"o":"m -54 0 l 339 403 l 328 354 l 111 729 l 215 729 l 396 414 l 351 415 l 654 729 l 768 729 l 394 344 l 403 400 l 635 0 l 529 0 l 339 333 l 383 333 l 63 0 l -54 0 z "},"ц":{"ha":949,"x_min":67,"x_max":856,"o":"m 67 0 l 213 729 l 311 729 l 183 86 l 628 86 l 757 729 l 856 729 l 710 0 l 67 0 m 699 -176 l 736 8 l 760 0 l 611 0 l 628 86 l 844 86 l 792 -176 l 699 -176 z "},"ч":{"ha":831,"x_min":65,"x_max":764,"o":"m 592 307 q 456 263 524 278 q 326 249 388 249 q 130 310 194 249 q 89 493 65 371 l 136 729 l 235 729 l 188 492 q 215 369 171 408 q 347 329 258 329 q 469 345 404 329 q 601 389 533 361 l 592 307 m 519 0 l 665 729 l 764 729 l 618 0 l 519 0 z "},"ш":{"ha":1289,"x_min":67,"x_max":1221,"o":"m 564 86 l 536 60 l 669 729 l 768 729 l 635 60 l 614 86 l 1021 86 l 990 60 l 1124 729 l 1221 729 l 1075 0 l 67 0 l 213 729 l 311 729 l 179 60 l 160 86 l 564 86 z "},"щ":{"ha":1314,"x_min":67,"x_max":1221,"o":"m 564 86 l 536 60 l 669 729 l 768 729 l 635 60 l 614 86 l 1021 86 l 990 60 l 1124 729 l 1221 729 l 1075 0 l 67 0 l 213 729 l 311 729 l 179 60 l 160 86 l 564 86 m 1061 -160 l 1099 26 l 1118 0 l 971 0 l 989 86 l 1204 86 l 1154 -160 l 1061 -160 z "},"ъ":{"ha":872,"x_min":58,"x_max":804,"o":"m 325 643 l 58 643 l 75 729 l 403 729 l 325 643 m 557 474 q 742 425 681 474 q 804 278 804 376 q 762 131 804 193 q 643 34 719 68 q 464 0 567 0 l 158 0 l 304 729 l 403 729 l 351 474 l 557 474 m 464 75 q 590 99 536 75 q 675 167 644 124 q 706 269 706 211 q 528 400 706 400 l 338 400 l 272 75 l 464 75 z "},"ы":{"ha":1089,"x_min":67,"x_max":1022,"o":"m 778 0 l 924 729 l 1022 729 l 876 0 l 778 0 m 461 474 q 645 425 583 474 q 707 278 707 376 q 665 131 707 193 q 546 34 622 68 q 367 0 469 0 l 67 0 l 213 728 l 311 728 l 261 474 l 461 474 m 367 75 q 493 99 439 75 q 578 167 547 124 q 608 269 608 211 q 432 400 608 400 l 246 400 l 181 75 l 367 75 z "},"ь":{"ha":781,"x_min":67,"x_max":713,"o":"m 465 474 q 651 425 589 474 q 713 278 713 376 q 670 131 713 193 q 551 34 628 68 q 372 0 475 0 l 67 0 l 214 729 l 311 729 l 261 474 l 465 474 m 372 75 q 499 99 444 75 q 583 167 553 124 q 614 269 614 211 q 438 400 614 400 l 246 400 l 181 75 l 372 75 z "},"э":{"ha":797,"x_min":-6,"x_max":735,"o":"m 233 333 l 250 408 l 672 408 l 657 333 l 233 333 m 399 736 q 575 698 500 736 q 692 590 650 660 q 735 425 735 519 q 698 258 735 336 q 597 119 661 179 q 447 26 532 60 q 267 -8 363 -8 q 106 22 178 -8 q -6 106 35 51 l 57 157 q 149 94 93 117 q 269 72 204 72 q 411 100 344 72 q 528 176 478 128 q 608 288 579 225 q 638 422 638 351 q 570 594 638 531 q 386 658 503 658 q 257 635 319 658 q 142 569 194 613 l 93 626 q 230 707 149 678 q 399 736 311 736 z "}}}
